<?xml version="1.0" encoding="utf-8"?>
<!-- Generator: Adobe Illustrator 16.0.0, SVG Export Plug-In . SVG Version: 6.00 Build 0)  -->
<!DOCTYPE svg PUBLIC "-//W3C//DTD SVG 1.1//EN" "http://www.w3.org/Graphics/SVG/1.1/DTD/svg11.dtd">
<svg version="1.1" id="Layer_1" xmlns="http://www.w3.org/2000/svg" xmlns:xlink="http://www.w3.org/1999/xlink" x="0px" y="0px"
	 width="315.5px" height="101.9px" viewBox="0 0 315.5 101.9" enable-background="new 0 0 315.5 101.9" xml:space="preserve">
<g>
	<path fill="#FFFFFF" d="M140.6,17.9c0,2.2-0.4,4-1.2,5.6c-0.8,1.601-1.9,2.9-3.2,3.9c-1.3,1-2.8,1.8-4.5,2.2
		c-1.7,0.5-3.3,0.699-5,0.699h-9.2V5.6h9c1.8,0,3.5,0.199,5.2,0.6c1.7,0.4,3.2,1.1,4.6,2c1.3,0.9,2.4,2.2,3.2,3.8
		C140.2,13.6,140.6,15.6,140.6,17.9z M134.3,17.9c0-1.4-0.2-2.601-0.7-3.5c-0.5-0.9-1.1-1.7-1.8-2.2c-0.8-0.5-1.6-0.9-2.6-1.2
		c-1-0.2-2-0.3-3-0.3h-3v14.5h2.8c1.1,0,2.1-0.1,3.1-0.4c1-0.199,1.9-0.6,2.6-1.199c0.8-0.601,1.4-1.301,1.8-2.2
		C134.1,20.499,134.3,19.299,134.3,17.9z"/>
	<path fill="#FFFFFF" d="M171.3,17.9c0,2-0.3,3.8-1,5.399c-0.7,1.601-1.6,3-2.8,4.2s-2.6,2-4.3,2.7c-1.7,0.6-3.5,0.9-5.4,0.9
		c-1.9,0-3.7-0.301-5.4-0.9c-1.7-0.6-3.1-1.5-4.3-2.7c-1.2-1.2-2.1-2.5-2.8-4.2c-0.7-1.6-1-3.399-1-5.399s0.3-3.8,1-5.4
		c0.7-1.6,1.6-3,2.8-4.1c1.2-1.101,2.6-2,4.3-2.601c1.7-0.6,3.4-0.899,5.4-0.899c1.9,0,3.7,0.3,5.4,0.899
		c1.7,0.601,3.1,1.5,4.3,2.601c1.2,1.1,2.1,2.5,2.8,4.1C170.9,14.1,171.3,15.9,171.3,17.9z M164.9,17.9c0-1.101-0.2-2.101-0.5-3
		c-0.4-0.9-0.801-1.7-1.5-2.4c-0.601-0.7-1.4-1.2-2.2-1.6c-0.9-0.4-1.8-0.601-2.9-0.601c-1.1,0-2,0.2-2.9,0.601
		c-0.9,0.399-1.6,0.899-2.2,1.6c-0.6,0.7-1.1,1.5-1.5,2.4c-0.3,0.899-0.5,1.899-0.5,3c0,1.1,0.2,2.2,0.5,3.1
		c0.4,0.9,0.8,1.8,1.5,2.4c0.6,0.7,1.4,1.2,2.2,1.6c0.8,0.4,1.8,0.601,2.9,0.601c1.101,0,2-0.2,2.9-0.601
		c0.899-0.399,1.6-0.899,2.2-1.6c0.6-0.7,1.1-1.5,1.5-2.4C164.7,19.999,164.9,18.999,164.9,17.9z"/>
	<path fill="#FFFFFF" d="M196.4,25.1c-0.5,1.199-1.2,2.3-2.2,3.1c-0.9,0.9-2.101,1.6-3.4,2c-1.3,0.5-2.8,0.7-4.399,0.7
		c-1.601,0-3.101-0.2-4.4-0.7s-2.4-1.2-3.3-2c-0.9-0.8-1.601-1.9-2.101-3.1c-0.5-1.2-0.699-2.601-0.699-4.101V5.6h5.899v14.899
		c0,0.7,0.101,1.3,0.3,1.9c0.2,0.6,0.4,1.1,0.801,1.6c0.399,0.5,0.8,0.9,1.399,1.101c0.601,0.3,1.3,0.399,2.2,0.399
		s1.6-0.1,2.2-0.399c0.6-0.301,1.1-0.7,1.5-1.101c0.399-0.5,0.6-1,0.8-1.6c0.2-0.601,0.2-1.2,0.2-1.9V5.6h6v15.399
		C197.1,22.499,196.9,23.9,196.4,25.1z"/>
	<path fill="#FFFFFF" d="M220.6,30.4c-1.6,0.399-3.399,0.6-5.3,0.6c-2,0-3.8-0.3-5.5-0.899c-1.7-0.601-3.1-1.5-4.3-2.7
		c-1.2-1.101-2.1-2.5-2.8-4.101c-0.7-1.6-1-3.399-1-5.3c0-2,0.3-3.8,1-5.399c0.7-1.601,1.6-3,2.899-4.101c1.2-1.1,2.601-2,4.301-2.6
		c1.6-0.601,3.399-0.9,5.3-0.9c2,0,3.8,0.3,5.5,0.9c1.7,0.6,3,1.399,4.1,2.399L221,12.6c-0.6-0.7-1.4-1.2-2.3-1.7
		c-1-0.4-2-0.601-3.3-0.601c-1,0-2,0.2-2.9,0.601c-0.9,0.399-1.7,0.899-2.3,1.6c-0.7,0.7-1.2,1.5-1.5,2.4c-0.4,0.899-0.5,2-0.5,3.1
		c0,1.101,0.2,2.2,0.5,3.2s0.8,1.8,1.5,2.5c0.6,0.7,1.399,1.2,2.399,1.6c0.9,0.4,2,0.601,3.2,0.601c0.7,0,1.4-0.101,2-0.2
		c0.601-0.1,1.2-0.3,1.8-0.5v-4.5H214.9v-4.8H225.1v13.1C223.7,29.499,222.2,29.999,220.6,30.4z"/>
	<path fill="#FFFFFF" d="M230.7,30.4V5.6h6v19.6h9.6v5.2H230.7z"/>
	<path fill="#FFFFFF" d="M266.8,30.4l-1.899-4.9H255.3l-1.8,4.9H247l10.4-24.8h5.8l10.3,24.8H266.8z M260.2,12.199l-3.2,8.5h6.2
		L260.2,12.199z"/>
	<path fill="#FFFFFF" d="M289.5,12.1c-0.5-0.7-1.2-1.2-2-1.601c-0.8-0.399-1.6-0.6-2.4-0.6c-0.399,0-0.8,0-1.199,0.1
		c-0.4,0.101-0.801,0.2-1.101,0.4s-0.6,0.5-0.8,0.8s-0.3,0.7-0.3,1.2c0,0.399,0.1,0.8,0.3,1s0.4,0.5,0.8,0.7
		c0.3,0.199,0.7,0.399,1.2,0.6s1,0.4,1.6,0.5c0.801,0.3,1.7,0.6,2.601,0.9c0.899,0.3,1.7,0.8,2.5,1.3c0.7,0.6,1.399,1.3,1.899,2.1
		s0.7,1.9,0.7,3.101c0,1.399-0.3,2.699-0.8,3.699s-1.2,1.9-2.1,2.601c-0.9,0.7-1.9,1.2-3,1.5c-1.101,0.3-2.301,0.5-3.5,0.5
		c-1.801,0-3.5-0.3-5.101-0.9c-1.7-0.6-3-1.5-4.1-2.6l3.899-4c0.601,0.7,1.4,1.399,2.4,1.899s2,0.801,3,0.801c0.4,0,0.9,0,1.3-0.101
		c0.4-0.1,0.8-0.2,1.101-0.5c0.3-0.2,0.6-0.5,0.8-0.8s0.3-0.8,0.3-1.3s-0.1-0.9-0.4-1.2c-0.3-0.3-0.6-0.6-1-0.9
		c-0.399-0.3-1-0.5-1.6-0.699c-0.6-0.2-1.4-0.5-2.2-0.7c-0.8-0.3-1.6-0.601-2.3-0.9c-0.8-0.3-1.4-0.8-2-1.3s-1.1-1.2-1.4-2
		c-0.399-0.8-0.5-1.7-0.5-2.9c0-1.399,0.301-2.6,0.801-3.5c0.6-1,1.3-1.8,2.199-2.399c0.9-0.601,1.9-1.101,3.101-1.4
		c1.1-0.3,2.3-0.399,3.5-0.399c1.399,0,2.8,0.3,4.3,0.8s2.7,1.3,3.8,2.3L289.5,12.1z"/>
	<path fill="#FFFFFF" d="M136.2,47.199c0,1.4-0.3,2.7-0.8,3.7c-0.5,1-1.3,1.8-2.2,2.4c-0.9,0.6-2,1.1-3.1,1.301
		c-1.2,0.299-2.4,0.398-3.7,0.398h-3V64.3h-6V39.6h9.1c1.4,0,2.6,0.1,3.8,0.399c1.2,0.3,2.2,0.7,3.1,1.3
		c0.9,0.601,1.6,1.4,2.1,2.301C136,44.6,136.2,45.799,136.2,47.199z M130.2,47.299c0-0.6-0.1-1.1-0.4-1.399
		c-0.2-0.4-0.5-0.7-0.9-0.9s-0.8-0.3-1.3-0.399c-0.5-0.101-1-0.101-1.6-0.101h-2.6v5.8h2.5c0.6,0,1.1,0,1.6-0.1s1-0.3,1.4-0.5
		s0.7-0.5,1-0.9C130.1,48.299,130.2,47.9,130.2,47.299z"/>
	<path fill="#FFFFFF" d="M140.7,64.399V39.6h6v24.799H140.7z"/>
	<path fill="#FFFFFF" d="M168.4,64.399l-10-16.2H158.3l0.101,16.2h-5.8V39.6h6.8l9.899,16.2h0.101L169.3,39.6h5.8v24.799H168.4z"/>
	<path fill="#FFFFFF" d="M196.8,64.399v-10.4h-9.7v10.4h-6V39.6h6v9.399h9.7V39.6h6v24.799H196.8z"/>
	<path fill="#FFFFFF" d="M234.5,51.899c0,2-0.3,3.801-1,5.4s-1.6,3-2.8,4.199c-1.2,1.201-2.601,2-4.3,2.701
		c-1.7,0.6-3.5,0.9-5.4,0.9s-3.7-0.301-5.4-0.9c-1.699-0.6-3.1-1.5-4.3-2.701c-1.2-1.199-2.1-2.5-2.8-4.199c-0.7-1.6-1-3.4-1-5.4
		c0-2,0.3-3.799,1-5.4c0.7-1.6,1.6-3,2.8-4.1c1.2-1.101,2.601-2,4.3-2.601c1.7-0.6,3.4-0.899,5.4-0.899c1.9,0,3.7,0.3,5.4,0.899
		c1.699,0.601,3.1,1.5,4.3,2.601c1.2,1.1,2.1,2.5,2.8,4.1C234.2,48.1,234.5,49.9,234.5,51.899z M228.1,51.899c0-1.1-0.199-2.1-0.5-3
		c-0.399-0.9-0.8-1.7-1.5-2.4c-0.6-0.7-1.399-1.2-2.199-1.6c-0.9-0.4-1.801-0.601-2.9-0.601s-2,0.2-2.9,0.601
		c-0.899,0.399-1.6,0.899-2.199,1.6c-0.601,0.7-1.101,1.5-1.5,2.4c-0.301,0.899-0.5,1.899-0.5,3c0,1.1,0.199,2.201,0.5,3.1
		c0.399,0.9,0.8,1.801,1.5,2.4c0.6,0.701,1.399,1.201,2.199,1.6c0.801,0.4,1.801,0.602,2.9,0.602s2-0.201,2.9-0.602
		c0.899-0.398,1.6-0.898,2.199-1.6c0.601-0.699,1.101-1.5,1.5-2.4C228,53.999,228.1,52.999,228.1,51.899z"/>
</g>
<g>
	<path fill="#FFFFFF" d="M0,6v88h88V6H0z M6,12h15.179c-3.396,1.098-6.691,2.497-9.887,4.294C9.396,17.293,7.698,18.491,6,19.69V12z
		 M6,87.9V22.187c1.998-1.498,4.095-2.897,6.291-4.095c5.592-3.096,11.584-5.093,17.776-5.992h12.882v25.966
		c-4.294-0.299-8.588,0.699-12.383,2.797c-5.293,2.996-9.087,7.79-10.785,13.582C15.886,68.226,22.977,82.507,35.759,88H6V87.9z
		 M44.946,40.163c0.799,0.1,1.498,0.3,2.297,0.5c4.194,1.199,7.689,3.995,9.787,7.79s2.596,8.189,1.398,12.384
		c-0.899,3.296-3.096,6.092-6.092,7.689c-2.296,1.299-4.893,1.799-7.39,1.599V40.163z M42.649,87.9
		c-0.999-0.2-1.997-0.399-2.996-0.699c-13.881-3.995-21.87-18.375-17.975-32.258c1.498-5.292,4.993-9.687,9.786-12.384
		c3.495-1.998,7.489-2.796,11.484-2.596v29.861v2.098V87.9H42.649z M44.946,87.9V72.22c2.896,0.2,5.792-0.398,8.388-1.797
		c3.495-1.898,5.992-5.094,7.09-8.889c1.298-4.693,0.799-9.687-1.598-13.982c-2.396-4.294-6.291-7.39-10.985-8.688
		c-0.898-0.3-1.897-0.5-2.796-0.6V12h0.1c2.296,0.299,4.494,0.799,6.79,1.398c21.97,6.191,34.751,29.161,28.46,51.133
		C76.702,77.014,66.416,85.703,54.533,87.9H44.946z M81.895,87.9H61.623c9.387-3.795,16.976-11.584,20.271-21.771V87.9z
		 M81.895,40.463C77.8,27.38,67.714,16.494,53.934,12h27.961V40.463z"/>
</g>
</svg>
