<?xml version="1.0" encoding="utf-8"?>
<!-- Generator: Adobe Illustrator 16.0.0, SVG Export Plug-In . SVG Version: 6.00 Build 0)  -->
<!DOCTYPE svg PUBLIC "-//W3C//DTD SVG 1.1//EN" "http://www.w3.org/Graphics/SVG/1.1/DTD/svg11.dtd">
<svg version="1.1" id="Layer_1" xmlns="http://www.w3.org/2000/svg" xmlns:xlink="http://www.w3.org/1999/xlink" x="0px" y="0px"
	 width="36px" height="36px" viewBox="0.5 0.5 36 36" enable-background="new 0.5 0.5 36 36" xml:space="preserve">
<g>
	<g>
		<path fill="#FFFFFF" d="M0.5,0.5v36h36v-36H0.5z M2.5,2.5h6.38C7.492,2.961,6.106,3.608,4.812,4.349
			c-0.74,0.463-1.572,0.925-2.219,1.479V2.5H2.5z M2.5,34.5V6.846c0.832-0.647,1.756-1.294,2.681-1.758
			c2.312-1.294,4.902-2.127,7.492-2.496h5.455v10.913c-1.849-0.091-3.606,0.277-5.271,1.203c-2.219,1.202-3.884,3.237-4.531,5.643
			C6.66,26.084,9.62,32.188,15.075,34.5H2.5z M18.959,14.43c0.278,0.093,0.649,0.093,0.926,0.185
			c1.758,0.461,3.236,1.666,4.16,3.237c0.927,1.573,1.113,3.421,0.648,5.271c-0.368,1.39-1.296,2.589-2.589,3.236
			c-0.923,0.556-2.035,0.741-3.145,0.648V14.43z M17.943,34.5c-0.371-0.09-0.833-0.186-1.296-0.276
			c-5.825-1.665-9.248-7.77-7.583-13.597c0.647-2.22,2.127-4.069,4.162-5.271c1.48-0.833,3.145-1.202,4.81-1.11v12.58v0.924V34.5
			H17.943z M18.959,34.5v-6.565c1.204,0.091,2.407-0.186,3.516-0.741c1.479-0.833,2.496-2.128,2.958-3.793
			c0.556-1.94,0.276-4.067-0.647-5.918c-0.924-1.849-2.682-3.145-4.623-3.699c-0.371-0.093-0.832-0.185-1.204-0.277V2.5l0,0
			c0.926,0.185,1.941,0.369,2.869,0.647c9.248,2.59,14.609,12.301,12.021,21.549c-1.479,5.274-5.827,8.881-10.816,9.804H18.959z
			 M34.496,34.5h-8.507c3.979-1.57,7.121-4.9,8.507-9.153V34.5z M34.496,14.523C32.741,8.973,28.486,4.441,22.661,2.5h11.744v12.023
			H34.496z"/>
	</g>
</g>
</svg>
