<svg  preserveAspectRatio="none" viewBox="0 0 2669 2669" fill="none" xmlns="http://www.w3.org/2000/svg">
<g clip-path="url(#clip0_4_13640)">
<path d="M2667.56 2667.61H0.894531V0.946774H2667.56V2667.61Z" fill="#161616"/>
<path d="M2.1569 2668.55L0.271484 2666.67L764.178 1902.51L918.062 1748.56H1749.84V1751.23H919.166L2.1569 2668.55Z" fill="#282828"/>
<path d="M2539.07 2540.72H129.388V2538.05H2539.07V2540.72Z" fill="#282828"/>
<path d="M2418 2419.63H250.451V2416.96H2418V2419.63Z" fill="#282828"/>
<path d="M2319.05 2320.63H349.406V2317.96H2319.05V2320.63Z" fill="#282828"/>
<path d="M2236.65 2238.2H431.804V2235.53H2236.65V2238.2Z" fill="#282828"/>
<path d="M2166.99 2168.51H501.478V2165.84H2166.99V2168.51Z" fill="#282828"/>
<path d="M2107.29 2108.8H561.164V2106.13H2107.29V2108.8Z" fill="#282828"/>
<path d="M2055.59 2057.08H612.865V2054.41H2055.59V2057.08Z" fill="#282828"/>
<path d="M2010.37 2011.84H658.085V2009.17H2010.37V2011.84Z" fill="#282828"/>
<path d="M1970.48 1971.95H697.972V1969.28H1970.48V1971.95" fill="#282828"/>
<path d="M1935.04 1936.49H733.413V1933.83H1935.04V1936.49" fill="#282828"/>
<path d="M1903.35 1904.77H765.114V1902.11H1903.35V1904.77" fill="#282828"/>
<path d="M1874.81 1876.24H793.639V1873.57H1874.81V1876.24Z" fill="#282828"/>
<path d="M1849.01 1850.43H819.439V1847.76H1849.01V1850.43Z" fill="#282828"/>
<path d="M1825.56 1826.97H842.891V1824.31H1825.56V1826.97Z" fill="#282828"/>
<path d="M1804.16 1805.56H864.297V1802.89H1804.16V1805.56Z" fill="#282828"/>
<path d="M1784.55 1785.93H883.917V1783.27H1784.55V1785.93Z" fill="#282828"/>
<path d="M1766.49 1767.88H901.964V1765.21H1766.49V1767.88Z" fill="#282828"/>
<path d="M2539.29 2668.51L1709.27 1750.79L1711.24 1749L2541.27 2666.72L2539.29 2668.51" fill="#282828"/>
<path d="M2412.29 2668.45L2210.52 2419.13L1669.63 1750.73L1671.71 1749.05L2414.37 2666.77L2412.29 2668.45" fill="#282828"/>
<path d="M2285.29 2668.39L1739.67 1904.23L1630.01 1750.67L1632.17 1749.12L2287.45 2666.84L2285.29 2668.39" fill="#282828"/>
<path d="M2158.28 2668.31L1590.37 1750.59L1592.64 1749.19L2160.55 2666.91L2158.28 2668.31" fill="#282828"/>
<path d="M2031.28 2668.23L1550.76 1750.51L1553.12 1749.27L2033.65 2666.99L2031.28 2668.23" fill="#282828"/>
<path d="M1904.29 2668.13L1511.12 1750.41L1513.57 1749.36L1906.75 2667.08L1904.29 2668.13Z" fill="#282828"/>
<path d="M1777.29 2668.03L1471.49 1750.31L1474.03 1749.47L1779.83 2667.19L1777.29 2668.03" fill="#282828"/>
<path d="M1650.32 2667.92L1431.89 1750.2L1434.48 1749.59L1652.91 2667.31L1650.32 2667.92" fill="#282828"/>
<path d="M1523.33 2667.8L1392.28 1750.08L1394.92 1749.71L1525.97 2667.43L1523.33 2667.8Z" fill="#282828"/>
<path d="M1396.37 2667.67L1352.68 1749.95L1355.35 1749.83L1399.04 2667.55L1396.37 2667.67" fill="#282828"/>
<path d="M1272.08 2667.67L1269.42 2667.55L1313.11 1749.83L1315.77 1749.95L1272.08 2667.67Z" fill="#282828"/>
<path d="M1145.12 2667.8L1142.48 2667.43L1273.53 1749.71L1276.17 1750.08L1145.12 2667.8Z" fill="#282828"/>
<path d="M1018.14 2667.92L1015.54 2667.31L1233.97 1749.59L1236.56 1750.2L1018.14 2667.92Z" fill="#282828"/>
<path d="M891.16 2668.03L888.629 2667.19L1194.43 1749.47L1196.96 1750.31L891.16 2668.03Z" fill="#282828"/>
<path d="M764.16 2668.13L761.709 2667.08L1154.88 1749.36L1157.33 1750.41L764.16 2668.13Z" fill="#282828"/>
<path d="M637.168 2668.23L634.807 2666.99L1115.35 1749.27L1117.72 1750.51L637.168 2668.23Z" fill="#282828"/>
<path d="M510.174 2668.31L507.906 2666.91L1075.81 1749.19L1078.08 1750.59L510.174 2668.31Z" fill="#282828"/>
<path d="M383.167 2668.39L380.996 2666.84L1036.28 1749.12L1038.45 1750.67L383.167 2668.39Z" fill="#282828"/>
<path d="M256.157 2668.45L254.084 2666.77L455.859 2417.45L996.751 1749.05L998.824 1750.73L256.157 2668.45" fill="#282828"/>
<path d="M129.164 2668.51L127.186 2666.72L957.212 1749L959.191 1750.79L129.164 2668.51Z" fill="#282828"/>
<path d="M1750.39 920H918.062L0.271484 1.88014L2.1569 0.000196159L766.064 764.16L919.166 917.334H1749.29L2666.29 0.000196159L2668.19 1.88014L1750.39 920" fill="#282828"/>
<path d="M129.388 130.493V127.827H2539.07V130.493H129.388Z" fill="#282828"/>
<path d="M250.451 251.6V248.933H2418V251.6H250.451Z" fill="#282828"/>
<path d="M2319.05 350.587H349.406V347.92H2319.05V350.587Z" fill="#282828"/>
<path d="M2236.65 433.013H431.804V430.347H2236.65V433.013Z" fill="#282828"/>
<path d="M501.478 502.707V500.04H2166.99V502.707H501.478Z" fill="#282828"/>
<path d="M561.164 562.413V559.747H2107.29V562.413H561.164Z" fill="#282828"/>
<path d="M612.865 614.134V611.467H2055.59V614.134H612.865Z" fill="#282828"/>
<path d="M2010.37 659.373H658.085V656.707H2010.37V659.373Z" fill="#282828"/>
<path d="M697.972 699.28V696.613H1970.48V699.28H697.972Z" fill="#282828"/>
<path d="M1935.04 734.733H733.413V732.067H1935.04V734.733" fill="#282828"/>
<path d="M1903.35 766.44H765.114V763.774H1903.35V766.44" fill="#282828"/>
<path d="M1874.81 794.974H793.639V792.307H1874.81V794.974Z" fill="#282828"/>
<path d="M819.439 820.787V818.12H1849.01V820.787H819.439Z" fill="#282828"/>
<path d="M1825.56 844.24H842.891V841.573H1825.56V844.24Z" fill="#282828"/>
<path d="M1804.16 865.667H864.297V863H1804.16V865.667Z" fill="#282828"/>
<path d="M1784.55 885.28H883.917V882.613H1784.55V885.28Z" fill="#282828"/>
<path d="M1766.49 903.333H901.964V900.667H1766.49V903.333Z" fill="#282828"/>
<path d="M1711.59 1749.89H1708.92V918.147L2032.67 560.2L2539.29 0.0534976L2541.27 1.83996L1711.59 919.173V1749.89Z" fill="#282828"/>
<path d="M1672 1749.89H1669.33V918.187L2210.52 249.427L2412.29 0.106623L2414.37 1.78683L1672 919.133V1749.89Z" fill="#282828"/>
<path d="M1632.43 1749.89H1629.76V918.24L1927.97 500.614L1977.73 430.907L2107.28 249.494L2285.29 0.173485L2287.45 1.72036L1632.43 919.093V1749.89" fill="#282828"/>
<path d="M1592.84 1749.89H1590.17V918.28L1751.65 657.334L2158.28 0.240151L2160.55 1.64015L1592.84 919.04V1749.89Z" fill="#282828"/>
<path d="M1553.27 1749.89H1550.6V918.333L1805.76 431.054L2031.28 0.320164L2033.65 1.56001L1553.27 918.987V1749.89Z" fill="#282828"/>
<path d="M1513.68 1749.89H1511.01V918.387L1642.16 612.28L1904.29 0.413393L1906.75 1.46678L1513.68 918.933V1749.89Z" fill="#282828"/>
<path d="M1474.09 1749.89H1471.43V918.44L1496.73 842.493L1777.29 0.52036L1779.83 1.3602L1613.08 501.8L1474.09 918.88V1749.89Z" fill="#282828"/>
<path d="M1434.52 1749.89H1431.85L1431.89 918.36L1650.32 0.639956L1652.91 1.2535L1434.52 918.813V1749.89Z" fill="#282828"/>
<path d="M1394.93 1749.89H1392.27L1392.28 918.48L1523.33 0.760204L1525.97 1.13364L1394.93 918.76V1749.89Z" fill="#282828"/>
<path d="M1355.35 1749.89H1352.68V918.667L1396.37 0.88006L1399.04 1.00011L1355.35 918.72V1749.89Z" fill="#282828"/>
<path d="M1315.77 1749.89H1313.11V918.667L1269.42 1.00011L1272.08 0.88006L1315.77 918.6L1315.77 1749.89" fill="#282828"/>
<path d="M1276.19 1749.89H1273.52V918.76L1142.48 1.13364L1145.12 0.760204L1276.19 918.667V1749.89Z" fill="#282828"/>
<path d="M1236.6 1749.89H1233.93V918.813L1015.54 1.2535L1018.14 0.639956L1236.6 918.507V1749.89Z" fill="#282828"/>
<path d="M1197.03 1749.89H1194.36V918.88L888.629 1.3602L891.16 0.52036L1197.03 918.44V1749.89Z" fill="#282828"/>
<path d="M1157.44 1749.89H1154.77V918.933L761.708 1.46678L764.16 0.413393L1157.44 918.387V1749.89Z" fill="#282828"/>
<path d="M1117.87 1749.89H1115.2V918.987L634.807 1.56001L637.168 0.320164L1117.87 918.333V1749.89Z" fill="#282828"/>
<path d="M1078.28 1749.89H1075.61V919.04L507.908 1.64015L510.175 0.240151L1078.28 918.28V1749.89Z" fill="#282828"/>
<path d="M1038.69 1749.89H1036.03V919.093L380.996 1.72036L383.167 0.173485L1038.69 918.24V1749.89" fill="#282828"/>
<path d="M999.121 1749.89H996.455V919.133L254.084 1.78683L256.157 0.106623L457.931 249.427L999.121 918.187V1749.89Z" fill="#282828"/>
<path d="M959.535 1749.89H956.868V919.173L127.186 1.83996L129.164 0.0534976L959.535 918.147V1749.89Z" fill="#282828"/>
<path d="M919.954 1749.88H917.287V918.667H919.954V1749.88Z" fill="#282828"/>
<path d="M130.444 2539.79H127.777L127.776 130.107H130.443L130.444 2539.79Z" fill="#282828"/>
<path d="M251.549 2418.72H248.883V251.16H251.549V2418.72Z" fill="#282828"/>
<path d="M350.54 2319.76H347.873L347.872 350.12H350.539L350.54 2319.76" fill="#282828"/>
<path d="M432.965 2237.37H430.299V432.52H432.965V2237.37Z" fill="#282828"/>
<path d="M502.664 2167.69H499.997L499.996 502.186H502.663L502.664 2167.69" fill="#282828"/>
<path d="M562.371 2108.01H559.704L559.703 561.88H562.37L562.371 2108.01Z" fill="#282828"/>
<path d="M614.09 2056.31H611.424V613.573H614.09V2056.31Z" fill="#282828"/>
<path d="M659.328 2011.08H656.661L656.66 658.8H659.327L659.328 2011.08Z" fill="#282828"/>
<path d="M699.227 1971.2H696.561V698.68H699.227V1971.2Z" fill="#282828"/>
<path d="M734.682 1935.76H732.015L732.014 734.12H734.68L734.682 1935.76Z" fill="#282828"/>
<path d="M766.393 1904.05H763.727V765.827H766.393V1904.05Z" fill="#282828"/>
<path d="M794.928 1875.53H792.261L792.26 794.347H794.926L794.928 1875.53Z" fill="#282828"/>
<path d="M820.737 1849.73H818.07V820.16H820.737V1849.73Z" fill="#282828"/>
<path d="M844.196 1826.28H841.529V843.6H844.196V1826.28Z" fill="#282828"/>
<path d="M865.611 1804.88H862.944V865.013H865.611V1804.88Z" fill="#282828"/>
<path d="M885.237 1785.25H882.57V884.627H885.237V1785.25Z" fill="#282828"/>
<path d="M903.291 1767.21H900.624V902.68H903.291V1767.21Z" fill="#282828"/>
<path d="M918.101 960.253L0 129.88L1.78907 127.907L919.128 957.587L1749.84 956.92V959.587L918.101 960.253" fill="#282828"/>
<path d="M918.143 999.84L657.149 788.627L0.0556641 256.867L1.73275 254.8L251.053 456.573L919.085 997.173L1749.84 996.507V999.173L918.143 999.84Z" fill="#282828"/>
<path d="M918.188 1039.41L657.214 853.067L0.120117 383.88L1.66959 381.707L919.042 1036.75L1749.84 1036.08V1038.75L918.188 1039.41" fill="#282828"/>
<path d="M918.236 1079L0.192383 510.894L1.59603 508.627L918.993 1076.33L1749.84 1075.67V1078.33L918.236 1079" fill="#282828"/>
<path d="M918.287 1118.57L0.276367 637.88L1.51335 635.52L918.943 1115.91L1749.84 1115.24V1117.91L918.287 1118.57" fill="#282828"/>
<path d="M918.615 1158.16H918.341L431.103 949.413L0.369141 764.88L1.41966 762.427L918.888 1155.49L1749.84 1154.83V1157.49L918.615 1158.16Z" fill="#282828"/>
<path d="M918.193 1197.68L0.473633 891.88L1.31582 889.347L919.036 1195.15L918.193 1197.68Z" fill="#282828"/>
<path d="M918.615 1237.32L918.305 1237.28L0.585938 1018.85L1.20313 1016.25L918.771 1234.65L1749.84 1233.99V1236.65L918.615 1237.32Z" fill="#282828"/>
<path d="M918.427 1276.89L0.706055 1145.84L1.08314 1143.2L918.803 1274.25L918.427 1276.89" fill="#282828"/>
<path d="M918.552 1316.49L0.831055 1272.8L0.958137 1270.13L918.678 1313.83L918.552 1316.49" fill="#282828"/>
<path d="M0.958137 1399.76L0.831055 1397.09L918.552 1353.4L1749.84 1352.73V1355.4L918.615 1356.07L0.958137 1399.76Z" fill="#282828"/>
<path d="M1.08314 1526.69L0.706055 1524.05L918.427 1393L918.803 1395.64L1.08314 1526.69Z" fill="#282828"/>
<path d="M1.20313 1653.63L0.585938 1651.03L918.457 1432.57L1749.84 1431.91V1434.57L918.772 1435.24L1.20313 1653.63Z" fill="#282828"/>
<path d="M1.31582 1780.55L0.473633 1778.01L918.193 1472.21L919.036 1474.75L1.31582 1780.55Z" fill="#282828"/>
<path d="M1.41966 1907.47L0.369141 1905.01L918.34 1511.73L1749.84 1511.07V1513.73L918.889 1514.4L1.41966 1907.47" fill="#282828"/>
<path d="M1.51335 2034.36L0.276367 2032L917.996 1551.45L919.234 1553.81L1.51335 2034.36Z" fill="#282828"/>
<path d="M1.59603 2161.27L0.192383 2159L918.234 1590.89L1749.84 1590.23V1592.89L918.994 1593.56L1.59603 2161.27Z" fill="#282828"/>
<path d="M1.66959 2288.17L0.120117 2286L918.187 1630.48L1749.84 1629.81V1632.48L919.043 1633.15L1.66959 2288.17Z" fill="#282828"/>
<path d="M1.73275 2415.08L0.0556641 2413.01L918.141 1670.05L1749.84 1669.39V1672.05L919.087 1672.72L1.73275 2415.08Z" fill="#282828"/>
<path d="M1.78907 2541.99L0 2540L918.1 1709.64L1749.84 1708.97V1711.64L919.129 1712.31L1.78907 2541.99Z" fill="#282828"/>
<path d="M2666.61 2668.23L1748.51 1750.44V918.666H1751.17V1749.33L2668.51 2666.35L2666.61 2668.23" fill="#282828"/>
<path d="M2540.68 2539.12H2538.01V129.44H2540.68V2539.12Z" fill="#282828"/>
<path d="M2419.57 2418.05H2416.91V250.493H2419.57V2418.05Z" fill="#282828"/>
<path d="M2320.59 2319.09H2317.92V349.453H2320.59V2319.09Z" fill="#282828"/>
<path d="M2238.16 2236.71H2235.49V431.853H2238.16V2236.71Z" fill="#282828"/>
<path d="M2168.45 2167.03H2165.79V501.52H2168.45V2167.03Z" fill="#282828"/>
<path d="M2108.75 2107.35H2106.08V561.213H2108.75V2107.35Z" fill="#282828"/>
<path d="M2057.03 2055.64H2054.36V612.907H2057.03V2055.64Z" fill="#282828"/>
<path d="M2011.8 2010.41H2009.13V658.134H2011.8V2010.41Z" fill="#282828"/>
<path d="M1971.89 1970.53H1969.23V698.013H1971.89V1970.53Z" fill="#282828"/>
<path d="M1936.44 1935.09H1933.77V733.453H1936.44V1935.09Z" fill="#282828"/>
<path d="M1904.73 1903.39H1902.07V765.16H1904.73V1903.39Z" fill="#282828"/>
<path d="M1876.2 1874.87H1873.53V793.68H1876.2V1874.87Z" fill="#282828"/>
<path d="M1850.39 1849.07H1847.72V819.493H1850.39V1849.07Z" fill="#282828"/>
<path d="M1826.92 1825.61H1824.25V842.933H1826.92V1825.61Z" fill="#282828"/>
<path d="M1805.51 1804.21H1802.84V864.347H1805.51V1804.21Z" fill="#282828"/>
<path d="M1785.88 1784.59H1783.21V883.96H1785.88V1784.59Z" fill="#282828"/>
<path d="M1767.83 1766.55H1765.16V902.013H1767.83V1766.55Z" fill="#282828"/>
<path d="M1750.73 959.24L1748.95 957.267L2666.67 127.24L2668.45 129.213L1750.73 959.24" fill="#282828"/>
<path d="M1750.68 998.867L1749 996.8L2666.72 254.133L2668.4 256.2L2419.08 457.973L1750.68 998.867" fill="#282828"/>
<path d="M1750.61 1038.49L1749.07 1036.32L2666.79 381.04L2668.33 383.213L1750.61 1038.49Z" fill="#282828"/>
<path d="M1750.55 1078.13L1749.13 1075.87L2666.85 507.96L2668.27 510.227L1750.55 1078.13" fill="#282828"/>
<path d="M1750.45 1117.75L1749.23 1115.39L2666.95 634.853L2668.17 637.214L1750.45 1117.75Z" fill="#282828"/>
<path d="M1750.36 1157.39L1749.32 1154.93L2667.04 761.76L2668.08 764.213L1750.36 1157.39" fill="#282828"/>
<path d="M918.616 1197.75L918.613 1195.08L1749.63 1194.41L2667.13 888.68L2667.99 891.214L1750.05 1197.08H1749.84L918.616 1197.75" fill="#282828"/>
<path d="M1750.15 1236.61L1749.53 1234.01L2667.25 1015.59L2667.87 1018.19L1750.15 1236.61Z" fill="#282828"/>
<path d="M918.616 1276.91L918.613 1274.24L1749.75 1273.57L2667.37 1142.53L2667.75 1145.17L1749.84 1276.24L918.616 1276.91" fill="#282828"/>
<path d="M918.616 1316.49L918.613 1313.83L1749.84 1313.16L2667.49 1269.47L2667.63 1272.13L1749.91 1315.83L918.616 1316.49" fill="#282828"/>
<path d="M2667.49 1399.09L1749.77 1355.4L1749.91 1352.73L2667.63 1396.43L2667.49 1399.09Z" fill="#282828"/>
<path d="M2667.37 1526.03L1749.75 1394.99L918.616 1395.65L918.613 1392.99L1749.93 1392.32L1766.68 1394.71L2667.75 1523.39L2667.37 1526.03Z" fill="#282828"/>
<path d="M2667.25 1652.96L1749.53 1434.53L1750.15 1431.93L2667.87 1650.36L2667.25 1652.96" fill="#282828"/>
<path d="M2667.13 1779.88L1749.63 1474.15L918.616 1474.81L918.613 1472.15L1750.05 1471.48L1935.53 1533.28L2667.99 1777.35L2667.13 1779.88Z" fill="#282828"/>
<path d="M2667.04 1906.8L1749.32 1513.63L1750.36 1511.17L2668.08 1904.35L2667.04 1906.8" fill="#282828"/>
<path d="M2666.95 2033.69L1749.52 1553.31L918.616 1553.97L918.613 1551.31L1750.17 1550.64L2108.03 1738.03L2668.17 2031.33L2666.95 2033.69" fill="#282828"/>
<path d="M2666.85 2160.6L1749.13 1592.69L1750.55 1590.43L2668.27 2158.33L2666.85 2160.6" fill="#282828"/>
<path d="M2666.79 2287.51L1749.07 1632.23L1750.61 1630.05L2668.33 2285.33L2666.79 2287.51Z" fill="#282828"/>
<path d="M2666.72 2414.41L2417.4 2212.64L1749 1671.75L1750.68 1669.68L2668.4 2412.35L2666.72 2414.41Z" fill="#282828"/>
<path d="M2666.67 2541.32L1748.95 1711.29L1750.73 1709.32L2668.45 2539.35L2666.67 2541.32Z" fill="#282828"/>
</g>
<defs>
<clipPath id="clip0_4_13640">
<rect width="2668.51" height="2668.55" fill="white"/>
</clipPath>
</defs>
</svg>
