<?xml version="1.0" encoding="UTF-8" standalone="no"?>
<svg
   xmlns:dc="http://purl.org/dc/elements/1.1/"
   xmlns:cc="http://creativecommons.org/ns#"
   xmlns:rdf="http://www.w3.org/1999/02/22-rdf-syntax-ns#"
   xmlns:svg="http://www.w3.org/2000/svg"
   xmlns="http://www.w3.org/2000/svg"
   xmlns:sodipodi="http://sodipodi.sourceforge.net/DTD/sodipodi-0.dtd"
   xmlns:inkscape="http://www.inkscape.org/namespaces/inkscape"
   version="1.1"
   id="svg2"
   xml:space="preserve"
   width="2668.5066"
   height="2668.5466"
   viewBox="0 0 2668.5066 2668.5466"
   sodipodi:docname="Grid_room.eps"><metadata
     id="metadata8"><rdf:RDF><cc:Work
         rdf:about=""><dc:format>image/svg+xml</dc:format><dc:type
           rdf:resource="http://purl.org/dc/dcmitype/StillImage" /></cc:Work></rdf:RDF></metadata><defs
     id="defs6" /><sodipodi:namedview
     pagecolor="#ffffff"
     bordercolor="#666666"
     borderopacity="1"
     objecttolerance="10"
     gridtolerance="10"
     guidetolerance="10"
     inkscape:pageopacity="0"
     inkscape:pageshadow="2"
     inkscape:window-width="640"
     inkscape:window-height="480"
     id="namedview4" /><g
     id="g10"
     inkscape:groupmode="layer"
     inkscape:label="ink_ext_XXXXXX"
     transform="matrix(1.3333333,0,0,-1.3333333,0,2668.5467)"><g
       id="g12"
       transform="scale(0.1)"><path
         d="M 20006.7,7 H 6.70703 V 20007 H 20006.7 V 7"
         style="fill:#ffffff;fill-opacity:1;fill-rule:nonzero;stroke:none"
         id="path14" /><path
         d="M 16.1797,0 2.03906,14.1016 5731.34,5745.3 6885.47,6899.9 h 6238.33 v -20 H 6893.75 L 16.1797,0"
         style="fill:#000000;fill-opacity:1;fill-rule:nonzero;stroke:none"
         id="path16" /><path
         d="M 19043,958.699 H 970.41 v 20 H 19043 v -20"
         style="fill:#000000;fill-opacity:1;fill-rule:nonzero;stroke:none"
         id="path18" /><path
         d="M 18135,1866.9 H 1878.38 v 20 H 18135 v -20"
         style="fill:#000000;fill-opacity:1;fill-rule:nonzero;stroke:none"
         id="path20" /><path
         d="M 17392.9,2609.4 H 2620.55 v 20 H 17392.9 v -20"
         style="fill:#000000;fill-opacity:1;fill-rule:nonzero;stroke:none"
         id="path22" /><path
         d="M 16774.9,3227.6 H 3238.53 v 20 H 16774.9 v -20"
         style="fill:#000000;fill-opacity:1;fill-rule:nonzero;stroke:none"
         id="path24" /><path
         d="M 16252.4,3750.3 H 3761.08 v 20 H 16252.4 v -20"
         style="fill:#000000;fill-opacity:1;fill-rule:nonzero;stroke:none"
         id="path26" /><path
         d="M 15804.7,4198.1 H 4208.73 v 20 H 15804.7 v -20"
         style="fill:#000000;fill-opacity:1;fill-rule:nonzero;stroke:none"
         id="path28" /><path
         d="M 15416.9,4586 H 4596.49 v 20 H 15416.9 v -20"
         style="fill:#000000;fill-opacity:1;fill-rule:nonzero;stroke:none"
         id="path30" /><path
         d="M 15077.8,4925.3 H 4935.64 v 20 H 15077.8 v -20"
         style="fill:#000000;fill-opacity:1;fill-rule:nonzero;stroke:none"
         id="path32" /><path
         d="M 14778.6,5224.5 H 5234.79 v 20 h 9543.81 v -20"
         style="fill:#000000;fill-opacity:1;fill-rule:nonzero;stroke:none"
         id="path34" /><path
         d="M 14512.8,5490.4 H 5500.6 v 20 h 9012.2 v -20"
         style="fill:#000000;fill-opacity:1;fill-rule:nonzero;stroke:none"
         id="path36" /><path
         d="M 14275.1,5728.3 H 5738.36 v 20 h 8536.74 v -20"
         style="fill:#000000;fill-opacity:1;fill-rule:nonzero;stroke:none"
         id="path38" /><path
         d="M 14061.1,5942.3 H 5952.29 v 20 h 8108.81 v -20"
         style="fill:#000000;fill-opacity:1;fill-rule:nonzero;stroke:none"
         id="path40" /><path
         d="M 13867.6,6135.9 H 6145.8 v 20 h 7721.8 v -20"
         style="fill:#000000;fill-opacity:1;fill-rule:nonzero;stroke:none"
         id="path42" /><path
         d="M 13691.7,6311.8 H 6321.68 v 20 h 7370.02 v -20"
         style="fill:#000000;fill-opacity:1;fill-rule:nonzero;stroke:none"
         id="path44" /><path
         d="M 13531.2,6472.4 H 6482.23 v 20 h 7048.97 v -20"
         style="fill:#000000;fill-opacity:1;fill-rule:nonzero;stroke:none"
         id="path46" /><path
         d="M 13384.1,6619.6 H 6629.38 v 20 h 6754.72 v -20"
         style="fill:#000000;fill-opacity:1;fill-rule:nonzero;stroke:none"
         id="path48" /><path
         d="M 13248.7,6755 H 6764.73 v 20 h 6483.97 v -20"
         style="fill:#000000;fill-opacity:1;fill-rule:nonzero;stroke:none"
         id="path50" /><path
         d="M 19044.7,0.300781 12819.5,6883.2 l 14.8,13.4 6225.2,-6882.9008 -14.8,-13.398419"
         style="fill:#000000;fill-opacity:1;fill-rule:nonzero;stroke:none"
         id="path52" /><path
         d="M 18092.2,0.699219 16578.9,1870.6 l -4056.7,5013 15.6,12.6 5570,-6882.8992 -15.6,-12.601581"
         style="fill:#000000;fill-opacity:1;fill-rule:nonzero;stroke:none"
         id="path54" /><path
         d="M 17139.7,1.19922 13047.5,5732.4 l -822.4,1151.7 16.2,11.6 4914.6,-6882.8992 -16.2,-11.60158"
         style="fill:#000000;fill-opacity:1;fill-rule:nonzero;stroke:none"
         id="path56" /><path
         d="M 16187.1,1.80078 11927.8,6884.7 l 17,10.5 4259.3,-6882.8992 -17,-10.50002"
         style="fill:#000000;fill-opacity:1;fill-rule:nonzero;stroke:none"
         id="path58" /><path
         d="M 15234.6,2.39844 11630.7,6885.3 l 17.7,9.3 3604,-6882.9008 -17.8,-9.30076"
         style="fill:#000000;fill-opacity:1;fill-rule:nonzero;stroke:none"
         id="path60" /><path
         d="M 14282.2,3.10156 11333.4,6886 l 18.4,7.9 L 14300.6,11 14282.2,3.10156"
         style="fill:#000000;fill-opacity:1;fill-rule:nonzero;stroke:none"
         id="path62" /><path
         d="M 13329.7,3.90234 11036.2,6886.8 l 19,6.3 2293.5,-6882.9008 -19,-6.29686"
         style="fill:#000000;fill-opacity:1;fill-rule:nonzero;stroke:none"
         id="path64" /><path
         d="M 12377.4,4.70313 10739.2,6887.6 l 19.4,4.6 1638.2,-6882.89922 -19.4,-4.59765"
         style="fill:#000000;fill-opacity:1;fill-rule:nonzero;stroke:none"
         id="path66" /><path
         d="M 11425,5.60156 10442.1,6888.5 l 19.8,2.8 L 11444.8,8.40234 11425,5.60156"
         style="fill:#000000;fill-opacity:1;fill-rule:nonzero;stroke:none"
         id="path68" /><path
         d="M 10472.8,6.60156 10145.1,6889.5 l 20,0.9 327.7,-6882.9 -20,-0.89844"
         style="fill:#000000;fill-opacity:1;fill-rule:nonzero;stroke:none"
         id="path70" /><path
         d="M 9540.6,6.60156 9520.62,7.5 l 327.7,6882.9 19.98,-0.9 L 9540.6,6.60156"
         style="fill:#000000;fill-opacity:1;fill-rule:nonzero;stroke:none"
         id="path72" /><path
         d="m 8588.41,5.60156 -19.8,2.80078 982.9,6882.89766 19.8,-2.8 L 8588.41,5.60156"
         style="fill:#000000;fill-opacity:1;fill-rule:nonzero;stroke:none"
         id="path74" /><path
         d="M 7636.04,4.70313 7616.58,9.30078 9254.78,6892.2 9274.23,6887.6 7636.04,4.70313"
         style="fill:#000000;fill-opacity:1;fill-rule:nonzero;stroke:none"
         id="path76" /><path
         d="M 6683.7,3.90234 6664.72,10.1992 8958.22,6893.1 8977.2,6886.8 6683.7,3.90234"
         style="fill:#000000;fill-opacity:1;fill-rule:nonzero;stroke:none"
         id="path78" /><path
         d="M 5731.2,3.10156 5712.82,11 8661.62,6893.9 8680,6886 5731.2,3.10156"
         style="fill:#000000;fill-opacity:1;fill-rule:nonzero;stroke:none"
         id="path80" /><path
         d="m 4778.76,2.39844 -17.71,9.30076 3604.1,6882.9008 17.72,-9.3 L 4778.76,2.39844"
         style="fill:#000000;fill-opacity:1;fill-rule:nonzero;stroke:none"
         id="path82" /><path
         d="M 3826.31,1.80078 3809.3,12.3008 8068.61,6895.2 l 17,-10.5 L 3826.31,1.80078"
         style="fill:#000000;fill-opacity:1;fill-rule:nonzero;stroke:none"
         id="path84" /><path
         d="M 2873.75,1.19922 2857.47,12.8008 7772.07,6895.7 7788.35,6884.1 2873.75,1.19922"
         style="fill:#000000;fill-opacity:1;fill-rule:nonzero;stroke:none"
         id="path86" /><path
         d="M 1921.18,0.699219 1905.63,13.3008 3418.94,1883.2 l 4056.69,5013 15.55,-12.6 -5570,-6882.900781"
         style="fill:#000000;fill-opacity:1;fill-rule:nonzero;stroke:none"
         id="path88" /><path
         d="M 968.727,0.300781 953.891,13.6992 7179.09,6896.6 7193.93,6883.2 968.727,0.300781"
         style="fill:#000000;fill-opacity:1;fill-rule:nonzero;stroke:none"
         id="path90" /><path
         d="M 13127.9,13114.1 H 6885.47 L 2.03906,20000 16.1797,20014.1 5745.48,14282.9 6893.75,13134.1 h 6225.95 l 6877.5,6880 14.2,-14.1 -6883.5,-6885.9"
         style="fill:#000000;fill-opacity:1;fill-rule:nonzero;stroke:none"
         id="path92" /><path
         d="m 970.41,19035.4 v 20 H 19043 v -20 H 970.41"
         style="fill:#000000;fill-opacity:1;fill-rule:nonzero;stroke:none"
         id="path94" /><path
         d="m 1878.38,18127.1 v 20 H 18135 v -20 H 1878.38"
         style="fill:#000000;fill-opacity:1;fill-rule:nonzero;stroke:none"
         id="path96" /><path
         d="M 17392.9,17384.7 H 2620.55 v 20 H 17392.9 v -20"
         style="fill:#000000;fill-opacity:1;fill-rule:nonzero;stroke:none"
         id="path98" /><path
         d="M 16774.9,16766.5 H 3238.53 v 20 H 16774.9 v -20"
         style="fill:#000000;fill-opacity:1;fill-rule:nonzero;stroke:none"
         id="path100" /><path
         d="m 3761.08,16243.8 v 20 H 16252.4 v -20 H 3761.08"
         style="fill:#000000;fill-opacity:1;fill-rule:nonzero;stroke:none"
         id="path102" /><path
         d="m 4208.73,15796 v 20 H 15804.7 v -20 H 4208.73"
         style="fill:#000000;fill-opacity:1;fill-rule:nonzero;stroke:none"
         id="path104" /><path
         d="m 4596.49,15408.1 v 20 H 15416.9 v -20 H 4596.49"
         style="fill:#000000;fill-opacity:1;fill-rule:nonzero;stroke:none"
         id="path106" /><path
         d="M 15077.8,15068.8 H 4935.64 v 20 H 15077.8 v -20"
         style="fill:#000000;fill-opacity:1;fill-rule:nonzero;stroke:none"
         id="path108" /><path
         d="m 5234.79,14769.5 v 20 h 9543.81 v -20 H 5234.79"
         style="fill:#000000;fill-opacity:1;fill-rule:nonzero;stroke:none"
         id="path110" /><path
         d="M 14512.8,14503.6 H 5500.6 v 20 h 9012.2 v -20"
         style="fill:#000000;fill-opacity:1;fill-rule:nonzero;stroke:none"
         id="path112" /><path
         d="M 14275.1,14265.8 H 5738.36 v 20 h 8536.74 v -20"
         style="fill:#000000;fill-opacity:1;fill-rule:nonzero;stroke:none"
         id="path114" /><path
         d="M 14061.1,14051.8 H 5952.29 v 20 h 8108.81 v -20"
         style="fill:#000000;fill-opacity:1;fill-rule:nonzero;stroke:none"
         id="path116" /><path
         d="m 6145.8,13858.2 v 20 h 7721.8 v -20 H 6145.8"
         style="fill:#000000;fill-opacity:1;fill-rule:nonzero;stroke:none"
         id="path118" /><path
         d="M 13691.7,13682.3 H 6321.68 v 20 h 7370.02 v -20"
         style="fill:#000000;fill-opacity:1;fill-rule:nonzero;stroke:none"
         id="path120" /><path
         d="M 13531.2,13521.6 H 6482.23 v 20 h 7048.97 v -20"
         style="fill:#000000;fill-opacity:1;fill-rule:nonzero;stroke:none"
         id="path122" /><path
         d="M 13384.1,13374.5 H 6629.38 v 20 h 6754.72 v -20"
         style="fill:#000000;fill-opacity:1;fill-rule:nonzero;stroke:none"
         id="path124" /><path
         d="M 13248.7,13239.1 H 6764.73 v 20 h 6483.97 v -20"
         style="fill:#000000;fill-opacity:1;fill-rule:nonzero;stroke:none"
         id="path126" /><path
         d="m 12836.9,6889.9 h -20 V 13128 l 2428.1,2684.6 3799.7,4201.1 14.8,-13.4 -6222.6,-6880 V 6889.9"
         style="fill:#000000;fill-opacity:1;fill-rule:nonzero;stroke:none"
         id="path128" /><path
         d="m 12540,6889.9 h -20 v 6237.8 l 4058.9,5015.7 1513.3,1869.9 15.6,-12.6 L 12540,13120.6 V 6889.9"
         style="fill:#000000;fill-opacity:1;fill-rule:nonzero;stroke:none"
         id="path130" /><path
         d="m 12243.2,6889.9 h -20 v 6237.4 l 2236.6,3132.2 373.2,522.8 971.6,1360.6 1335.1,1869.9 16.2,-11.6 -4912.7,-6880.3 v -6231"
         style="fill:#000000;fill-opacity:1;fill-rule:nonzero;stroke:none"
         id="path132" /><path
         d="m 11946.3,6889.9 h -20 V 13127 l 1211.1,1957.1 3049.7,4928.2 17,-10.5 -4257.8,-6880.5 V 6889.9"
         style="fill:#000000;fill-opacity:1;fill-rule:nonzero;stroke:none"
         id="path134" /><path
         d="m 11649.5,6889.9 h -20 v 6236.7 l 1913.7,3654.6 1691.4,3230.5 17.8,-9.3 -3602.9,-6880.7 V 6889.9"
         style="fill:#000000;fill-opacity:1;fill-rule:nonzero;stroke:none"
         id="path136" /><path
         d="m 11352.6,6889.9 h -20 v 6236.3 l 983.6,2295.8 1966,4589 18.4,-7.9 -2948,-6881 V 6889.9"
         style="fill:#000000;fill-opacity:1;fill-rule:nonzero;stroke:none"
         id="path138" /><path
         d="m 11055.7,6889.9 h -20 v 6235.9 l 189.8,569.6 2104.2,6314.8 19,-6.3 -1250.6,-3753.3 -1042.4,-3128.1 V 6889.9"
         style="fill:#000000;fill-opacity:1;fill-rule:nonzero;stroke:none"
         id="path140" /><path
         d="m 10758.9,6889.9 h -20 l 0.3,6236.5 1638.2,6882.9 19.4,-4.6 L 10758.9,13123 V 6889.9"
         style="fill:#000000;fill-opacity:1;fill-rule:nonzero;stroke:none"
         id="path142" /><path
         d="m 10462,6889.9 h -20 l 0.1,6235.6 982.9,6882.9 19.8,-2.8 -982.8,-6882.2 V 6889.9"
         style="fill:#000000;fill-opacity:1;fill-rule:nonzero;stroke:none"
         id="path144" /><path
         d="m 10165.1,6889.9 h -20 v 6234.2 l 327.7,6883.4 20,-0.9 -327.7,-6882.9 V 6889.9"
         style="fill:#000000;fill-opacity:1;fill-rule:nonzero;stroke:none"
         id="path146" /><path
         d="m 9868.31,6889.9 h -20 v 6234.2 l -327.69,6882.5 19.98,0.9 327.7,-6882.9 0.01,-6234.7"
         style="fill:#000000;fill-opacity:1;fill-rule:nonzero;stroke:none"
         id="path148" /><path
         d="m 9571.41,6889.9 h -20 v 6233.5 l -982.8,6882.2 19.8,2.8 983,-6884.3 V 6889.9"
         style="fill:#000000;fill-opacity:1;fill-rule:nonzero;stroke:none"
         id="path150" /><path
         d="m 9274.51,6889.9 h -20 V 13123 l -1637.93,6881.7 19.46,4.6 1638.47,-6884 V 6889.9"
         style="fill:#000000;fill-opacity:1;fill-rule:nonzero;stroke:none"
         id="path152" /><path
         d="m 8977.71,6889.9 h -20 v 6232.6 l -2292.99,6881.4 18.98,6.3 2294.01,-6884.4 V 6889.9"
         style="fill:#000000;fill-opacity:1;fill-rule:nonzero;stroke:none"
         id="path154" /><path
         d="m 8680.81,6889.9 h -20 v 6232.2 l -2948,6881 18.39,7.9 2949.61,-6884.8 V 6889.9"
         style="fill:#000000;fill-opacity:1;fill-rule:nonzero;stroke:none"
         id="path156" /><path
         d="m 8384.01,6889.9 h -20 v 6231.8 l -3602.96,6880.7 17.71,9.3 3605.25,-6885.1 V 6889.9"
         style="fill:#000000;fill-opacity:1;fill-rule:nonzero;stroke:none"
         id="path158" /><path
         d="m 8087.11,6889.9 h -20 v 6231.4 l -4257.8,6880.5 17,10.5 4260.8,-6885.3 V 6889.9"
         style="fill:#000000;fill-opacity:1;fill-rule:nonzero;stroke:none"
         id="path160" /><path
         d="m 7790.21,6889.9 h -20 v 6231 l -4912.74,6880.3 16.28,11.6 4916.46,-6885.5 V 6889.9"
         style="fill:#000000;fill-opacity:1;fill-rule:nonzero;stroke:none"
         id="path162" /><path
         d="m 7493.41,6889.9 h -20 v 6230.7 l -5567.78,6880.1 15.55,12.6 1513.3,-1869.9 4058.93,-5015.7 V 6889.9"
         style="fill:#000000;fill-opacity:1;fill-rule:nonzero;stroke:none"
         id="path164" /><path
         d="m 7196.51,6889.9 h -20 v 6230.4 l -6222.619,6880 14.836,13.4 L 7196.51,13128 V 6889.9"
         style="fill:#000000;fill-opacity:1;fill-rule:nonzero;stroke:none"
         id="path166" /><path
         d="m 6899.65,6890 h -20 v 6234.1 h 20 V 6890"
         style="fill:#000000;fill-opacity:1;fill-rule:nonzero;stroke:none"
         id="path168" /><path
         d="m 978.328,965.699 h -20 L 958.324,19038.3 h 20 L 978.328,965.699"
         style="fill:#000000;fill-opacity:1;fill-rule:nonzero;stroke:none"
         id="path170" /><path
         d="m 1886.62,1873.7 h -20 v 16256.7 h 20 V 1873.7"
         style="fill:#000000;fill-opacity:1;fill-rule:nonzero;stroke:none"
         id="path172" /><path
         d="m 2629.05,2615.9 h -20 l -0.01,14772.3 h 20 l 0.01,-14772.3"
         style="fill:#000000;fill-opacity:1;fill-rule:nonzero;stroke:none"
         id="path174" /><path
         d="m 3247.24,3233.8 h -20 v 13536.4 h 20 V 3233.8"
         style="fill:#000000;fill-opacity:1;fill-rule:nonzero;stroke:none"
         id="path176" /><path
         d="m 3769.98,3756.4 h -20 l -0.01,12491.3 h 20 l 0.01,-12491.3"
         style="fill:#000000;fill-opacity:1;fill-rule:nonzero;stroke:none"
         id="path178" /><path
         d="m 4217.78,4204 h -20 l -0.01,11596 h 20 l 0.01,-11596"
         style="fill:#000000;fill-opacity:1;fill-rule:nonzero;stroke:none"
         id="path180" /><path
         d="m 4605.68,4591.8 h -20 v 10820.5 h 20 V 4591.8"
         style="fill:#000000;fill-opacity:1;fill-rule:nonzero;stroke:none"
         id="path182" /><path
         d="m 4944.96,4931 h -20 l -0.01,10142.1 h 20 L 4944.96,4931"
         style="fill:#000000;fill-opacity:1;fill-rule:nonzero;stroke:none"
         id="path184" /><path
         d="m 5244.2,5230.1 h -20 V 14774 h 20 V 5230.1"
         style="fill:#000000;fill-opacity:1;fill-rule:nonzero;stroke:none"
         id="path186" /><path
         d="m 5510.11,5495.9 h -20 l -0.01,9012.3 h 20 l 0.01,-9012.3"
         style="fill:#000000;fill-opacity:1;fill-rule:nonzero;stroke:none"
         id="path188" /><path
         d="m 5747.95,5733.7 h -20 v 8536.7 h 20 V 5733.7"
         style="fill:#000000;fill-opacity:1;fill-rule:nonzero;stroke:none"
         id="path190" /><path
         d="m 5961.96,5947.6 h -20 l -0.01,8108.9 h 20 l 0.01,-8108.9"
         style="fill:#000000;fill-opacity:1;fill-rule:nonzero;stroke:none"
         id="path192" /><path
         d="m 6155.53,6141.1 h -20 v 7721.8 h 20 V 6141.1"
         style="fill:#000000;fill-opacity:1;fill-rule:nonzero;stroke:none"
         id="path194" /><path
         d="m 6331.47,6317 h -20 v 7370.1 h 20 V 6317"
         style="fill:#000000;fill-opacity:1;fill-rule:nonzero;stroke:none"
         id="path196" /><path
         d="m 6492.08,6477.5 h -20 v 7049 h 20 v -7049"
         style="fill:#000000;fill-opacity:1;fill-rule:nonzero;stroke:none"
         id="path198" /><path
         d="m 6639.28,6624.7 h -20 v 6754.7 h 20 V 6624.7"
         style="fill:#000000;fill-opacity:1;fill-rule:nonzero;stroke:none"
         id="path200" /><path
         d="m 6774.68,6760 h -20 v 6484 h 20 V 6760"
         style="fill:#000000;fill-opacity:1;fill-rule:nonzero;stroke:none"
         id="path202" /><path
         d="M 6885.76,12812.2 0,19040 l 13.418,14.8 6880.042,-6222.6 6230.34,5 v -20 l -6238.04,-5"
         style="fill:#000000;fill-opacity:1;fill-rule:nonzero;stroke:none"
         id="path204" /><path
         d="M 6886.07,12515.3 4928.62,14099.4 0.417969,18087.6 12.9961,18103.1 1882.9,16589.8 l 5010.24,-4054.5 6230.66,5 v -20 l -6237.73,-5"
         style="fill:#000000;fill-opacity:1;fill-rule:nonzero;stroke:none"
         id="path206" /><path
         d="M 6886.41,12218.5 4929.1,13616.1 0.898438,17135 12.5195,17151.3 6892.81,12238.5 l 6230.99,5 v -20 l -6237.39,-5"
         style="fill:#000000;fill-opacity:1;fill-rule:nonzero;stroke:none"
         id="path208" /><path
         d="M 6886.77,11921.6 1.44531,16182.4 l 10.52739,17 6880.4773,-4257.8 6231.35,5 v -20 l -6237.03,-5"
         style="fill:#000000;fill-opacity:1;fill-rule:nonzero;stroke:none"
         id="path210" /><path
         d="M 6887.15,11624.8 2.07031,15230 l 9.27739,17.7 6880.7223,-3602.9 6231.73,5 v -20 l -6236.65,-5"
         style="fill:#000000;fill-opacity:1;fill-rule:nonzero;stroke:none"
         id="path212" /><path
         d="m 6889.61,11327.9 h -2.05 l -3654.29,1565.6 -3230.50047,1384 7.87887,18.4 6881.0116,-2948 6232.14,5 v -20 l -6234.19,-5"
         style="fill:#000000;fill-opacity:1;fill-rule:nonzero;stroke:none"
         id="path214" /><path
         d="M 6886.45,11031.5 3.55078,13325 l 6.31641,19 6882.90281,-2293.5 -6.32,-19"
         style="fill:#000000;fill-opacity:1;fill-rule:nonzero;stroke:none"
         id="path216" /><path
         d="m 6889.61,10734.2 -2.32,0.3 -6882.89547,1638.2 4.62891,19.5 6881.75656,-1638 6233.02,5 v -20 l -6234.19,-5"
         style="fill:#000000;fill-opacity:1;fill-rule:nonzero;stroke:none"
         id="path218" /><path
         d="m 6888.2,10437.4 -6882.90312,982.9 2.82812,19.8 6882.895,-982.9 -2.82,-19.8"
         style="fill:#000000;fill-opacity:1;fill-rule:nonzero;stroke:none"
         id="path220" /><path
         d="m 6889.14,10140.4 -6882.90953,327.7 0.95312,20 6882.89641,-327.7 -0.94,-20"
         style="fill:#000000;fill-opacity:1;fill-rule:nonzero;stroke:none"
         id="path222" /><path
         d="m 7.1875,9515.9 -0.95312,20 6882.90562,327.7 6234.66,5 v -20 l -6234.19,-5 L 7.1875,9515.9"
         style="fill:#000000;fill-opacity:1;fill-rule:nonzero;stroke:none"
         id="path224" /><path
         d="M 8.125,8563.9 5.29688,8583.7 6888.2,9566.6 6891.02,9546.8 8.125,8563.9"
         style="fill:#000000;fill-opacity:1;fill-rule:nonzero;stroke:none"
         id="path226" /><path
         d="m 9.02344,7611.9 -4.62891,19.5 6884.03547,1638.4 6235.37,5 v -20 l -6233.01,-5 L 9.02344,7611.9"
         style="fill:#000000;fill-opacity:1;fill-rule:nonzero;stroke:none"
         id="path228" /><path
         d="m 9.86719,6660 -6.31641,19 6882.89922,2293.5 6.32,-19 L 9.86719,6660"
         style="fill:#000000;fill-opacity:1;fill-rule:nonzero;stroke:none"
         id="path230" /><path
         d="m 10.6484,5708.1 -7.87887,18.4 6884.78047,2949.6 6236.25,5 v -20 l -6232.13,-5 -6881.0216,-2948"
         style="fill:#000000;fill-opacity:1;fill-rule:nonzero;stroke:none"
         id="path232" /><path
         d="M 11.3477,4756.4 2.07031,4774.1 6884.97,8378.2 6894.25,8360.5 11.3477,4756.4"
         style="fill:#000000;fill-opacity:1;fill-rule:nonzero;stroke:none"
         id="path234" /><path
         d="m 11.9727,3804.6 -10.52739,17 6885.31469,4260.8 6237.04,5 v -20 l -6231.34,-5 L 11.9727,3804.6"
         style="fill:#000000;fill-opacity:1;fill-rule:nonzero;stroke:none"
         id="path236" /><path
         d="M 12.5195,2852.8 0.898438,2869.1 6886.4,7785.5 l 6237.4,5 v -20 l -6230.98,-5 L 12.5195,2852.8"
         style="fill:#000000;fill-opacity:1;fill-rule:nonzero;stroke:none"
         id="path238" /><path
         d="M 12.9961,1901 0.417969,1916.5 6886.06,7488.7 l 6237.74,5 v -20 l -6230.65,-5 L 12.9961,1901"
         style="fill:#000000;fill-opacity:1;fill-rule:nonzero;stroke:none"
         id="path240" /><path
         d="M 13.418,949.199 0,964.102 6885.75,7191.8 l 6238.05,5 v -20 l -6230.33,-5 L 13.418,949.199"
         style="fill:#000000;fill-opacity:1;fill-rule:nonzero;stroke:none"
         id="path242" /><path
         d="M 19999.6,2.39844 13113.8,6885.8 v 6238.3 h 20 v -6230 l 6880,-6877.6 -14.2,-14.10156"
         style="fill:#000000;fill-opacity:1;fill-rule:nonzero;stroke:none"
         id="path244" /><path
         d="m 19055.1,970.699 h -20 V 19043.3 h 20 V 970.699"
         style="fill:#000000;fill-opacity:1;fill-rule:nonzero;stroke:none"
         id="path246" /><path
         d="m 18146.8,1878.7 h -20 v 16256.7 h 20 V 1878.7"
         style="fill:#000000;fill-opacity:1;fill-rule:nonzero;stroke:none"
         id="path248" /><path
         d="m 17404.4,2620.9 h -20 v 14772.3 h 20 V 2620.9"
         style="fill:#000000;fill-opacity:1;fill-rule:nonzero;stroke:none"
         id="path250" /><path
         d="m 16786.2,3238.8 h -20 v 13536.4 h 20 V 3238.8"
         style="fill:#000000;fill-opacity:1;fill-rule:nonzero;stroke:none"
         id="path252" /><path
         d="m 16263.4,3761.4 h -20 v 12491.3 h 20 V 3761.4"
         style="fill:#000000;fill-opacity:1;fill-rule:nonzero;stroke:none"
         id="path254" /><path
         d="m 15815.6,4209 h -20 v 11596 h 20 V 4209"
         style="fill:#000000;fill-opacity:1;fill-rule:nonzero;stroke:none"
         id="path256" /><path
         d="m 15427.7,4596.8 h -20 v 10820.5 h 20 V 4596.8"
         style="fill:#000000;fill-opacity:1;fill-rule:nonzero;stroke:none"
         id="path258" /><path
         d="m 15088.5,4936 h -20 v 10142.1 h 20 V 4936"
         style="fill:#000000;fill-opacity:1;fill-rule:nonzero;stroke:none"
         id="path260" /><path
         d="m 14789.2,5235.1 h -20 V 14779 h 20 V 5235.1"
         style="fill:#000000;fill-opacity:1;fill-rule:nonzero;stroke:none"
         id="path262" /><path
         d="m 14523.3,5500.9 h -20 v 9012.3 h 20 V 5500.9"
         style="fill:#000000;fill-opacity:1;fill-rule:nonzero;stroke:none"
         id="path264" /><path
         d="m 14285.5,5738.7 h -20 v 8536.7 h 20 V 5738.7"
         style="fill:#000000;fill-opacity:1;fill-rule:nonzero;stroke:none"
         id="path266" /><path
         d="m 14071.5,5952.6 h -20 v 8108.9 h 20 V 5952.6"
         style="fill:#000000;fill-opacity:1;fill-rule:nonzero;stroke:none"
         id="path268" /><path
         d="m 13877.9,6146.1 h -20 v 7721.8 h 20 V 6146.1"
         style="fill:#000000;fill-opacity:1;fill-rule:nonzero;stroke:none"
         id="path270" /><path
         d="m 13701.9,6322 h -20 v 7370.1 h 20 V 6322"
         style="fill:#000000;fill-opacity:1;fill-rule:nonzero;stroke:none"
         id="path272" /><path
         d="m 13541.3,6482.5 h -20 v 7049 h 20 v -7049"
         style="fill:#000000;fill-opacity:1;fill-rule:nonzero;stroke:none"
         id="path274" /><path
         d="m 13394.1,6629.7 h -20 v 6754.7 h 20 V 6629.7"
         style="fill:#000000;fill-opacity:1;fill-rule:nonzero;stroke:none"
         id="path276" /><path
         d="m 13258.7,6765 h -20 v 6484 h 20 V 6765"
         style="fill:#000000;fill-opacity:1;fill-rule:nonzero;stroke:none"
         id="path278" /><path
         d="m 13130.5,12819.8 -13.4,14.8 6882.9,6225.2 13.4,-14.8 -6882.9,-6225.2"
         style="fill:#000000;fill-opacity:1;fill-rule:nonzero;stroke:none"
         id="path280" /><path
         d="m 13130.1,12522.6 -12.6,15.5 6882.9,5570 12.6,-15.5 -1869.9,-1513.3 -5013,-4056.7"
         style="fill:#000000;fill-opacity:1;fill-rule:nonzero;stroke:none"
         id="path282" /><path
         d="m 13129.6,12225.4 -11.6,16.3 6882.9,4914.6 11.6,-16.3 -6882.9,-4914.6"
         style="fill:#000000;fill-opacity:1;fill-rule:nonzero;stroke:none"
         id="path284" /><path
         d="m 13129.1,11928.1 -10.6,17 6882.9,4259.3 10.6,-17 -6882.9,-4259.3"
         style="fill:#000000;fill-opacity:1;fill-rule:nonzero;stroke:none"
         id="path286" /><path
         d="m 13128.4,11631 -9.2,17.7 6882.9,3604 9.2,-17.7 -6882.9,-3604"
         style="fill:#000000;fill-opacity:1;fill-rule:nonzero;stroke:none"
         id="path288" /><path
         d="m 13127.7,11333.7 -7.8,18.4 6882.9,2948.8 7.8,-18.4 -6882.9,-2948.8"
         style="fill:#000000;fill-opacity:1;fill-rule:nonzero;stroke:none"
         id="path290" /><path
         d="m 6889.62,11031 -0.02,20 6232.6,5 6881.3,2293 6.4,-19 -6884.5,-2294 h -1.6 l -6234.18,-5"
         style="fill:#000000;fill-opacity:1;fill-rule:nonzero;stroke:none"
         id="path292" /><path
         d="m 13126.1,10739.5 -4.6,19.5 6882.9,1638.2 4.6,-19.5 -6882.9,-1638.2"
         style="fill:#000000;fill-opacity:1;fill-rule:nonzero;stroke:none"
         id="path294" /><path
         d="m 6889.62,10437.3 -0.02,20 6233.5,5 6882.2,982.8 2.8,-19.8 -6884.3,-983 -6234.18,-5"
         style="fill:#000000;fill-opacity:1;fill-rule:nonzero;stroke:none"
         id="path296" /><path
         d="m 6889.62,10140.4 -0.02,20 6234.2,5 6882.4,327.7 1,-20 -6882.9,-327.7 -6234.68,-5"
         style="fill:#000000;fill-opacity:1;fill-rule:nonzero;stroke:none"
         id="path298" /><path
         d="m 20006.2,9520.9 -6882.9,327.7 1,20 6882.9,-327.7 -1,-20"
         style="fill:#000000;fill-opacity:1;fill-rule:nonzero;stroke:none"
         id="path300" /><path
         d="m 20005.3,8568.9 -6882.2,982.8 -6233.48,-5 -0.02,20 6234.9,5 125.6,-17.9 6758,-965.1 -2.8,-19.8"
         style="fill:#000000;fill-opacity:1;fill-rule:nonzero;stroke:none"
         id="path302" /><path
         d="m 20004.4,7616.9 -6882.9,1638.2 4.6,19.5 6882.9,-1638.2 -4.6,-19.5"
         style="fill:#000000;fill-opacity:1;fill-rule:nonzero;stroke:none"
         id="path304" /><path
         d="m 20003.5,6665 -6881.3,2293 -6232.58,-5 -0.02,20 6235.8,5 1391.1,-463.5 5493.4,-1830.5 -6.4,-19"
         style="fill:#000000;fill-opacity:1;fill-rule:nonzero;stroke:none"
         id="path306" /><path
         d="m 20002.8,5713.1 -6882.9,2948.8 7.8,18.4 6882.9,-2948.8 -7.8,-18.4"
         style="fill:#000000;fill-opacity:1;fill-rule:nonzero;stroke:none"
         id="path308" /><path
         d="m 20002.1,4761.4 -6880.7,3602.9 -6231.78,-5 -0.02,20 6236.7,5 2683.9,-1405.4 4201.1,-2199.8 -9.2,-17.7"
         style="fill:#000000;fill-opacity:1;fill-rule:nonzero;stroke:none"
         id="path310" /><path
         d="m 20001.4,3809.6 -6882.9,4259.3 10.6,17 6882.9,-4259.3 -10.6,-17"
         style="fill:#000000;fill-opacity:1;fill-rule:nonzero;stroke:none"
         id="path312" /><path
         d="m 20000.9,2857.8 -6882.9,4914.6 11.6,16.3 6882.9,-4914.6 -11.6,-16.3"
         style="fill:#000000;fill-opacity:1;fill-rule:nonzero;stroke:none"
         id="path314" /><path
         d="m 20000.4,1906 -1869.9,1513.3 -5013,4056.7 12.6,15.5 6882.9,-5570 -12.6,-15.5"
         style="fill:#000000;fill-opacity:1;fill-rule:nonzero;stroke:none"
         id="path316" /><path
         d="m 20000,954.199 -6882.9,6225.201 13.4,14.8 L 20013.4,969 20000,954.199"
         style="fill:#000000;fill-opacity:1;fill-rule:nonzero;stroke:none"
         id="path318" /></g></g></svg>
