<svg width="553" height="83" viewBox="0 0 553 83" fill="none" xmlns="http://www.w3.org/2000/svg">
<g filter="url(#filter0_d_12_14640)">
<path fill-rule="evenodd" clip-rule="evenodd" d="M46.54 21.7149H55.6751V58.2552H46.54V21.7149ZM109.883 20.6492C112.268 20.6492 114.311 21.0679 116.011 21.9052C117.711 22.7426 119.107 23.8464 120.198 25.2167C121.289 26.587 122.088 28.1602 122.596 29.9365C123.104 31.7128 123.357 33.5398 123.357 35.4175V58.2552H114.222V38.0058C114.222 36.94 114.146 35.8235 113.994 34.6563C113.842 33.489 113.512 32.436 113.004 31.4971C112.497 30.5582 111.799 29.7842 110.911 29.1752C110.023 28.5662 108.843 28.2617 107.371 28.2617C105.95 28.2617 104.732 28.5662 103.717 29.1752C102.702 29.7842 101.864 30.5709 101.205 31.5351C100.545 32.4994 100.063 33.5778 99.7583 34.7705C99.4538 35.9631 99.3016 37.143 99.3016 38.3103V58.2552H90.1665V36.1788C90.1665 33.895 89.6209 32.0046 88.5298 30.5074C87.4387 29.0103 85.7258 28.2617 83.3913 28.2617C82.021 28.2617 80.8284 28.5535 79.8134 29.1372C78.7984 29.7208 77.9737 30.4694 77.3393 31.3829C76.7049 32.2964 76.2228 33.3495 75.8929 34.5421C75.5631 35.7347 75.3981 36.94 75.3981 38.1581V58.2552H66.2631V21.7149H74.9414V27.5766H75.0936C75.4996 26.6631 76.0452 25.8003 76.7303 24.9883C77.4155 24.1763 78.2275 23.4404 79.1663 22.7807C80.1052 22.1209 81.1837 21.6007 82.4017 21.2201C83.6197 20.8395 84.9646 20.6492 86.4363 20.6492C89.2784 20.6492 91.6382 21.2835 93.516 22.5523C95.3938 23.8211 96.8402 25.4958 97.8552 27.5766C99.0732 25.3436 100.697 23.6308 102.727 22.4381C104.757 21.2455 107.142 20.6492 109.883 20.6492ZM177.108 20.6492C179.494 20.6492 181.536 21.0679 183.237 21.9052C184.937 22.7426 186.332 23.8464 187.423 25.2167C188.515 26.587 189.314 28.1602 189.821 29.9365C190.329 31.7128 190.583 33.5398 190.583 35.4175V58.2552H181.448V38.0058C181.448 36.94 181.371 35.8235 181.219 34.6563C181.067 33.489 180.737 32.436 180.23 31.4971C179.722 30.5582 179.024 29.7842 178.136 29.1752C177.248 28.5662 176.068 28.2617 174.596 28.2617C173.175 28.2617 171.957 28.5662 170.942 29.1752C169.927 29.7842 169.09 30.5709 168.43 31.5351C167.77 32.4994 167.288 33.5778 166.984 34.7705C166.679 35.9631 166.527 37.143 166.527 38.3103V58.2552H157.392V36.1788C157.392 33.895 156.846 32.0046 155.755 30.5074C154.664 29.0103 152.951 28.2617 150.617 28.2617C149.246 28.2617 148.054 28.5535 147.039 29.1372C146.024 29.7208 145.199 30.4694 144.565 31.3829C143.93 32.2964 143.448 33.3495 143.118 34.5421C142.788 35.7347 142.624 36.94 142.624 38.1581V58.2552H133.488V21.7149H142.167V27.5766H142.319C142.725 26.6631 143.271 25.8003 143.956 24.9883C144.641 24.1763 145.453 23.4404 146.392 22.7807C147.331 22.1209 148.409 21.6007 149.627 21.2201C150.845 20.8395 152.19 20.6492 153.662 20.6492C156.504 20.6492 158.864 21.2835 160.741 22.5523C162.619 23.8211 164.066 25.4958 165.081 27.5766C166.299 25.3436 167.923 23.6308 169.953 22.4381C171.983 21.2455 174.368 20.6492 177.108 20.6492ZM195.233 21.7149H205.357L215.558 48.2828H215.711L224.77 21.7149H234.285L217.005 66.0962C216.345 67.7709 215.634 69.2554 214.873 70.5495C214.112 71.8437 213.198 72.9348 212.133 73.8229C211.067 74.711 209.811 75.3835 208.364 75.8402C206.918 76.297 205.18 76.5254 203.15 76.5254C202.389 76.5254 201.615 76.4873 200.828 76.4112C200.041 76.3351 199.242 76.1955 198.43 75.9925L199.191 68.0754C199.8 68.2784 200.397 68.418 200.98 68.4941C201.564 68.5702 202.109 68.6083 202.617 68.6083C203.581 68.6083 204.393 68.4941 205.053 68.2657C205.713 68.0374 206.271 67.6821 206.728 67.2C207.185 66.7179 207.591 66.1215 207.946 65.411C208.301 64.7005 208.682 63.8631 209.088 62.8989L210.915 58.2552L195.233 21.7149Z" fill="#333333" stroke="black" stroke-width="1.0476" stroke-linecap="round" stroke-linejoin="round"/>
<path fill-rule="evenodd" clip-rule="evenodd" d="M205.657 21.2784L215.537 47.0105L224.459 21.2784H234.924L217.411 66.2561C216.742 67.9541 216.021 69.4588 215.249 70.7708C214.461 72.1103 213.515 73.239 212.412 74.1582C211.304 75.0813 209.999 75.7816 208.496 76.2565C207.013 76.7247 205.231 76.9618 203.15 76.9618C202.375 76.9618 201.587 76.9231 200.786 76.8456C199.861 76.7561 198.919 76.5814 197.96 76.3209L198.811 67.4737C199.573 67.7708 200.315 67.9671 201.037 68.0613C201.6 68.1348 202.127 68.1718 202.617 68.1718C203.524 68.1718 204.289 68.0682 204.91 67.8532C205.501 67.6487 206.002 67.3316 206.411 66.8998C206.841 66.4461 207.221 65.8841 207.555 65.2158C207.906 64.5138 208.282 63.6866 208.683 62.7342L210.443 58.2624L194.57 21.2784H205.657ZM56.1116 21.2784V58.6917H46.1035V21.2784H56.1116ZM86.4363 20.2126C89.3786 20.2126 91.8178 20.878 93.7604 22.1906C95.4824 23.3542 96.854 24.8476 97.8745 26.6714C99.0808 24.7021 100.626 23.1665 102.506 22.0617C103.7 21.3605 105.671 20.799 108.428 20.3984C109.388 20.2586 110.362 20.2478 111.325 20.3659C113.606 20.6455 115.23 21.0338 116.204 21.5136C117.965 22.381 119.409 23.5256 120.539 24.9448C121.666 26.3592 122.492 27.9829 123.016 29.8166C123.534 31.6317 123.794 33.4986 123.794 35.4175V58.6917H113.786V38.0058C113.786 36.958 113.711 35.8603 113.561 34.7127C113.416 33.6015 113.103 32.5985 112.62 31.7046C112.146 30.8273 111.494 30.1043 110.664 29.5352C109.838 28.9687 108.737 28.6982 107.371 28.6982C106.038 28.6982 104.894 28.9779 103.941 29.5495C102.981 30.1256 102.189 30.8695 101.565 31.7816C100.933 32.7045 100.473 33.737 100.181 34.8784C99.886 36.0347 99.738 37.1786 99.738 38.3103V58.6917H89.73V36.1788C89.73 34.0008 89.2187 32.1938 88.177 30.7645C87.1608 29.3701 85.5557 28.6982 83.3913 28.6982C82.1053 28.6982 80.9843 28.9674 80.031 29.5156C79.0742 30.0657 78.2959 30.7706 77.6978 31.6318C77.0901 32.5069 76.6296 33.5161 76.3136 34.6584C75.9944 35.8127 75.8346 36.9792 75.8346 38.158V58.6917H65.8265V21.2784H75.3778V26.0727C75.6928 25.6028 76.0248 25.1476 76.3967 24.7068C77.1052 23.8672 77.9444 23.1058 78.9154 22.4235C79.8894 21.7391 81.0077 21.1984 82.2715 20.8035C83.5288 20.4105 84.9169 20.2126 86.4363 20.2126ZM177.108 20.2126C179.57 20.2126 181.676 20.6499 183.429 21.5136C185.19 22.381 186.635 23.5256 187.765 24.9448C188.891 26.3592 189.717 27.9829 190.241 29.8166C190.76 31.6317 191.019 33.4986 191.019 35.4175V58.6917H181.011V38.0058C181.011 36.958 180.936 35.8603 180.786 34.7127C180.641 33.6015 180.329 32.5985 179.846 31.7046C179.371 30.8273 178.719 30.1043 177.889 29.5352C177.063 28.9687 175.962 28.6982 174.596 28.6982C173.264 28.6982 172.119 28.9779 171.167 29.5495C170.207 30.1256 169.414 30.8695 168.79 31.7816C168.159 32.7045 167.698 33.737 167.407 34.8784C167.111 36.0347 166.963 37.1786 166.963 38.3103V58.6917H156.955V36.1788C156.955 34.0008 156.444 32.1938 155.402 30.7645C154.386 29.3701 152.781 28.6982 150.617 28.6982C149.331 28.6982 148.21 28.9674 147.256 29.5156C146.3 30.0657 145.521 30.7706 144.923 31.6318C144.316 32.5069 143.855 33.5161 143.539 34.6584C143.22 35.8127 143.06 36.9792 143.06 38.158V58.6917H133.052V21.2784H142.603V26.0727C142.918 25.6028 143.25 25.1476 143.622 24.7068C144.331 23.8672 145.17 23.1058 146.141 22.4235C147.115 21.7391 148.233 21.1984 149.497 20.8035C150.754 20.4105 152.142 20.2126 153.662 20.2126C156.604 20.2126 159.043 20.878 160.986 22.1906C162.708 23.3542 164.079 24.8476 165.1 26.6714C166.306 24.7021 167.851 23.1665 169.731 22.0617C171.824 20.8323 174.282 20.2126 177.108 20.2126Z" fill="#101010" stroke="white" stroke-width="2.4" stroke-linecap="round" stroke-linejoin="round"/>
<path fill-rule="evenodd" clip-rule="evenodd" d="M37.0489 20.9453V57.4095L37.046 57.8067C37.0057 60.5966 37.0057 60.5966 36.4018 63.6518C35.7548 66.9252 35.7548 66.9252 34.0039 69.7418C32.253 72.5585 32.253 72.5585 29.0557 74.3855C25.8584 76.2125 25.8584 76.2125 20.8341 76.2125C14.2873 76.2125 14.2873 76.2125 10.3669 72.9391C6.44639 69.6657 6.44639 69.6657 5 64.3369L13.8306 61.8248L13.885 62.0281C14.586 64.5492 14.586 64.5492 16.3427 66.0497C18.1697 67.6103 18.1697 67.6103 20.6819 67.6103C22.7373 67.6103 22.7373 67.6103 24.0695 66.8491C25.4017 66.0878 25.4017 66.0878 26.1249 64.6795C26.8481 63.2712 26.8481 63.2712 27.1526 61.3299C27.4571 59.3887 27.4571 59.3887 27.4571 57.105V30.5134H7.0952V21.085H27.4571V20.9453H37.0489Z" fill="#101010" stroke="white" stroke-width="2.4" stroke-linecap="round" stroke-linejoin="round"/>
</g>
<g filter="url(#filter1_d_12_14640)">
<path fill-rule="evenodd" clip-rule="evenodd" d="M264.71 31.6336C263.897 30.5678 262.78 29.6416 261.359 28.855C259.937 28.0684 258.388 27.6751 256.712 27.6751C255.24 27.6751 253.894 27.9796 252.675 28.5886C251.457 29.1976 250.847 30.2126 250.847 31.6336C250.847 33.0546 251.52 34.0569 252.866 34.6406C254.211 35.2242 256.179 35.8205 258.769 36.4295C260.14 36.734 261.524 37.14 262.92 37.6475C264.316 38.155 265.586 38.8275 266.728 39.6649C267.871 40.5022 268.798 41.5426 269.509 42.786C270.219 44.0294 270.575 45.5392 270.575 47.3155C270.575 49.5485 270.156 51.4389 269.318 52.9868C268.48 54.5347 267.363 55.7908 265.967 56.7551C264.57 57.7193 262.945 58.4171 261.092 58.8485C259.238 59.2799 257.322 59.4956 255.341 59.4956C252.498 59.4956 249.73 58.9754 247.039 57.935C244.347 56.8946 242.113 55.4102 240.336 53.4816L246.353 47.8484C247.369 49.1679 248.689 50.259 250.314 51.1218C251.939 51.9845 253.742 52.4159 255.722 52.4159C256.382 52.4159 257.055 52.3398 257.741 52.1875C258.426 52.0353 259.061 51.7942 259.645 51.4643C260.229 51.1344 260.698 50.6904 261.054 50.1321C261.409 49.5739 261.587 48.8887 261.587 48.0767C261.587 46.5542 260.889 45.4631 259.492 44.8033C258.096 44.1436 256.001 43.4838 253.208 42.8241C251.837 42.5196 250.504 42.1262 249.21 41.6441C247.915 41.162 246.76 40.5276 245.744 39.741C244.728 38.9543 243.916 37.9774 243.307 36.8101C242.697 35.6429 242.392 34.1965 242.392 32.471C242.392 30.441 242.811 28.6901 243.649 27.2183C244.487 25.7465 245.592 24.5412 246.963 23.6023C248.334 22.6635 249.882 21.9656 251.609 21.5089C253.335 21.0521 255.113 20.8238 256.941 20.8238C259.581 20.8238 262.158 21.2805 264.672 22.194C267.185 23.1075 269.179 24.5032 270.651 26.3809L264.71 31.6336ZM278.122 21.8895H287.262V58.4298H278.122V21.8895ZM276.827 9.48104C276.827 8.00927 277.373 6.72784 278.465 5.6367C279.557 4.54556 280.94 4 282.616 4C284.292 4 285.701 4.52019 286.843 5.56057C287.986 6.60096 288.557 7.90777 288.557 9.48104C288.557 11.0543 287.986 12.3611 286.843 13.4015C285.701 14.4419 284.292 14.9621 282.616 14.9621C280.94 14.9621 279.557 14.4165 278.465 13.3254C277.373 12.2342 276.827 10.9528 276.827 9.48104ZM341.501 20.8238C343.888 20.8238 345.932 21.2424 347.633 22.0798C349.334 22.9172 350.73 24.021 351.822 25.3913C352.914 26.7616 353.713 28.3348 354.221 30.1111C354.729 31.8874 354.983 33.7144 354.983 35.5921V58.4298H345.843V38.1804C345.843 37.1146 345.766 35.9981 345.614 34.8309C345.462 33.6636 345.132 32.6105 344.624 31.6717C344.116 30.7328 343.418 29.9588 342.529 29.3498C341.641 28.7408 340.46 28.4363 338.987 28.4363C337.566 28.4363 336.347 28.7408 335.331 29.3498C334.316 29.9588 333.478 30.7455 332.818 31.7097C332.158 32.674 331.675 33.7524 331.371 34.9451C331.066 36.1377 330.914 37.3176 330.914 38.4849V58.4298H321.773V36.3534C321.773 34.0696 321.227 32.1792 320.136 30.682C319.044 29.1849 317.33 28.4363 314.994 28.4363C313.623 28.4363 312.43 28.7281 311.414 29.3118C310.399 29.8954 309.574 30.644 308.939 31.5575C308.304 32.471 307.822 33.524 307.492 34.7167C307.162 35.9093 306.997 37.1146 306.997 38.3327V58.4298H297.856V21.8895H306.54V27.7512H306.692C307.098 26.8377 307.644 25.9749 308.33 25.1629C309.015 24.3509 309.828 23.615 310.767 22.9553C311.706 22.2955 312.785 21.7753 314.004 21.3947C315.223 21.0141 316.568 20.8238 318.041 20.8238C320.885 20.8238 323.246 21.4581 325.125 22.7269C327.004 23.9957 328.451 25.6704 329.466 27.7512C330.685 25.5182 332.31 23.8054 334.341 22.6127C336.372 21.4201 338.759 20.8238 341.501 20.8238ZM408.765 20.8238C411.151 20.8238 413.195 21.2424 414.896 22.0798C416.597 22.9172 417.994 24.021 419.085 25.3913C420.177 26.7616 420.977 28.3348 421.485 30.1111C421.993 31.8874 422.246 33.7144 422.246 35.5921V58.4298H413.106V38.1804C413.106 37.1146 413.03 35.9981 412.878 34.8309C412.725 33.6636 412.395 32.6105 411.887 31.6717C411.38 30.7328 410.681 29.9588 409.793 29.3498C408.904 28.7408 407.724 28.4363 406.251 28.4363C404.829 28.4363 403.61 28.7408 402.595 29.3498C401.579 29.9588 400.741 30.7455 400.081 31.7097C399.421 32.674 398.939 33.7524 398.634 34.9451C398.329 36.1377 398.177 37.3176 398.177 38.4849V58.4298H389.037V36.3534C389.037 34.0696 388.491 32.1792 387.399 30.682C386.307 29.1849 384.594 28.4363 382.258 28.4363C380.887 28.4363 379.693 28.7281 378.678 29.3118C377.662 29.8954 376.837 30.644 376.202 31.5575C375.568 32.471 375.085 33.524 374.755 34.7167C374.425 35.9093 374.26 37.1146 374.26 38.3327V58.4298H365.12V21.8895H373.803V27.7512H373.955C374.362 26.8377 374.908 25.9749 375.593 25.1629C376.279 24.3509 377.091 23.615 378.03 22.9553C378.97 22.2955 380.049 21.7753 381.268 21.3947C382.486 21.0141 383.832 20.8238 385.305 20.8238C388.148 20.8238 390.509 21.4581 392.388 22.7269C394.267 23.9957 395.714 25.6704 396.73 27.7512C397.949 25.5182 399.573 23.8054 401.605 22.6127C403.636 21.4201 406.022 20.8238 408.765 20.8238ZM430.251 40.0074C430.251 37.1146 430.771 34.4883 431.812 32.1284C432.853 29.7685 434.262 27.7512 436.039 26.0764C437.817 24.4017 439.924 23.1075 442.361 22.194C444.799 21.2805 447.389 20.8238 450.131 20.8238C452.873 20.8238 455.462 21.2805 457.9 22.194C460.337 23.1075 462.445 24.4017 464.222 26.0764C465.999 27.7512 467.408 29.7685 468.449 32.1284C469.49 34.4883 470.011 37.1146 470.011 40.0074C470.011 42.9002 469.49 45.5392 468.449 47.9245C467.408 50.3098 465.999 52.3524 464.222 54.0526C462.445 55.7527 460.337 57.0849 457.9 58.0492C455.462 59.0134 452.873 59.4956 450.131 59.4956C447.389 59.4956 444.799 59.0134 442.361 58.0492C439.924 57.0849 437.817 55.7527 436.039 54.0526C434.262 52.3524 432.853 50.3098 431.812 47.9245C430.771 45.5392 430.251 42.9002 430.251 40.0074ZM439.543 40.0074C439.543 41.4284 439.759 42.8494 440.191 44.2705C440.622 45.6915 441.27 46.9602 442.133 48.0767C442.996 49.1932 444.088 50.1067 445.408 50.8173C446.728 51.5278 448.303 51.883 450.131 51.883C451.959 51.883 453.533 51.5278 454.853 50.8173C456.173 50.1067 457.265 49.1932 458.128 48.0767C458.992 46.9602 459.639 45.6915 460.071 44.2705C460.502 42.8494 460.718 41.4284 460.718 40.0074C460.718 38.5864 460.502 37.1781 460.071 35.7824C459.639 34.3868 458.992 33.1307 458.128 32.0142C457.265 30.8977 456.173 29.9969 454.853 29.3118C453.533 28.6266 451.959 28.2841 450.131 28.2841C448.303 28.2841 446.728 28.6266 445.408 29.3118C444.088 29.9969 442.996 30.8977 442.133 32.0142C441.27 33.1307 440.622 34.3868 440.191 35.7824C439.759 37.1781 439.543 38.5864 439.543 40.0074ZM478.32 21.8895H487.003V27.7512H487.155C487.968 25.9242 489.377 24.3129 491.383 22.9172C493.388 21.5216 495.762 20.8238 498.504 20.8238C500.891 20.8238 502.935 21.2424 504.636 22.0798C506.337 22.9172 507.733 24.021 508.825 25.3913C509.917 26.7616 510.717 28.3348 511.224 30.1111C511.732 31.8874 511.986 33.7144 511.986 35.5921V58.4298H502.846V38.1804C502.846 37.1146 502.77 35.9981 502.617 34.8309C502.465 33.6636 502.135 32.6105 501.627 31.6717C501.119 30.7328 500.421 29.9588 499.533 29.3498C498.644 28.7408 497.463 28.4363 495.991 28.4363C494.518 28.4363 493.249 28.7281 492.182 29.3118C491.116 29.8954 490.24 30.644 489.554 31.5575C488.869 32.471 488.348 33.524 487.993 34.7167C487.638 35.9093 487.46 37.1146 487.46 38.3327V58.4298H478.32V21.8895ZM542.155 31.6336C541.343 30.5678 540.226 29.6416 538.804 28.855C537.382 28.0684 535.833 27.6751 534.158 27.6751C532.685 27.6751 531.34 27.9796 530.121 28.5886C528.902 29.1976 528.293 30.2126 528.293 31.6336C528.293 33.0546 528.966 34.0569 530.311 34.6406C531.657 35.2242 533.625 35.8205 536.214 36.4295C537.585 36.734 538.969 37.14 540.366 37.6475C541.762 38.155 543.031 38.8275 544.174 39.6649C545.316 40.5022 546.243 41.5426 546.954 42.786C547.665 44.0294 548.02 45.5392 548.02 47.3155C548.02 49.5485 547.602 51.4389 546.764 52.9868C545.926 54.5347 544.809 55.7908 543.412 56.7551C542.016 57.7193 540.391 58.4171 538.537 58.8485C536.684 59.2799 534.767 59.4956 532.787 59.4956C529.943 59.4956 527.176 58.9754 524.484 57.935C521.793 56.8946 519.559 55.4102 517.781 53.4816L523.799 47.8484C524.814 49.1679 526.135 50.259 527.76 51.1218C529.385 51.9845 531.187 52.4159 533.168 52.4159C533.828 52.4159 534.501 52.3398 535.186 52.1875C535.872 52.0353 536.506 51.7942 537.09 51.4643C537.674 51.1344 538.144 50.6904 538.499 50.1321C538.855 49.5739 539.033 48.8887 539.033 48.0767C539.033 46.5542 538.334 45.4631 536.938 44.8033C535.541 44.1436 533.447 43.4838 530.654 42.8241C529.283 42.5196 527.95 42.1262 526.655 41.6441C525.36 41.162 524.205 40.5276 523.189 39.741C522.174 38.9543 521.361 37.9774 520.752 36.8101C520.143 35.6429 519.838 34.1965 519.838 32.471C519.838 30.441 520.257 28.6901 521.095 27.2183C521.933 25.7465 523.037 24.5412 524.408 23.6023C525.779 22.6635 527.328 21.9656 529.054 21.5089C530.781 21.0521 532.558 20.8238 534.386 20.8238C537.027 20.8238 539.604 21.2805 542.117 22.194C544.631 23.1075 546.624 24.5032 548.097 26.3809L542.155 31.6336Z" fill="white" stroke="black" stroke-width="1.746" stroke-linecap="round" stroke-linejoin="round"/>
<path fill-rule="evenodd" clip-rule="evenodd" d="M264.71 31.6336C263.897 30.5678 262.78 29.6416 261.359 28.855C259.937 28.0684 258.388 27.6751 256.712 27.6751C255.24 27.6751 253.894 27.9796 252.675 28.5886C251.457 29.1976 250.847 30.2126 250.847 31.6336C250.847 33.0546 251.52 34.0569 252.866 34.6406C254.211 35.2242 256.179 35.8205 258.769 36.4295C260.14 36.734 261.524 37.14 262.92 37.6475C264.316 38.155 265.586 38.8275 266.728 39.6649C267.871 40.5022 268.798 41.5426 269.509 42.786C270.219 44.0294 270.575 45.5392 270.575 47.3155C270.575 49.5485 270.156 51.4389 269.318 52.9868C268.48 54.5347 267.363 55.7908 265.967 56.7551C264.57 57.7193 262.945 58.4171 261.092 58.8485C259.238 59.2799 257.322 59.4956 255.341 59.4956C252.498 59.4956 249.73 58.9754 247.039 57.935C244.347 56.8946 242.113 55.4102 240.336 53.4816L246.353 47.8484C247.369 49.1679 248.689 50.259 250.314 51.1218C251.939 51.9845 253.742 52.4159 255.722 52.4159C256.382 52.4159 257.055 52.3398 257.741 52.1875C258.426 52.0353 259.061 51.7942 259.645 51.4643C260.229 51.1344 260.698 50.6904 261.054 50.1321C261.409 49.5739 261.587 48.8887 261.587 48.0767C261.587 46.5542 260.889 45.4631 259.492 44.8033C258.096 44.1436 256.001 43.4838 253.208 42.8241C251.837 42.5196 250.504 42.1262 249.21 41.6441C247.915 41.162 246.76 40.5276 245.744 39.741C244.728 38.9543 243.916 37.9774 243.307 36.8101C242.697 35.6429 242.392 34.1965 242.392 32.471C242.392 30.441 242.811 28.6901 243.649 27.2183C244.487 25.7465 245.592 24.5412 246.963 23.6023C248.334 22.6635 249.882 21.9656 251.609 21.5089C253.335 21.0521 255.113 20.8238 256.941 20.8238C259.581 20.8238 262.158 21.2805 264.672 22.194C267.185 23.1075 269.179 24.5032 270.651 26.3809L264.71 31.6336ZM278.122 21.8895H287.262V58.4298H278.122V21.8895ZM276.827 9.48104C276.827 8.00927 277.373 6.72784 278.465 5.6367C279.557 4.54556 280.94 4 282.616 4C284.292 4 285.701 4.52019 286.843 5.56057C287.986 6.60096 288.557 7.90777 288.557 9.48104C288.557 11.0543 287.986 12.3611 286.843 13.4015C285.701 14.4419 284.292 14.9621 282.616 14.9621C280.94 14.9621 279.557 14.4165 278.465 13.3254C277.373 12.2342 276.827 10.9528 276.827 9.48104ZM341.501 20.8238C343.888 20.8238 345.932 21.2424 347.633 22.0798C349.334 22.9172 350.73 24.021 351.822 25.3913C352.914 26.7616 353.713 28.3348 354.221 30.1111C354.729 31.8874 354.983 33.7144 354.983 35.5921V58.4298H345.843V38.1804C345.843 37.1146 345.766 35.9981 345.614 34.8309C345.462 33.6636 345.132 32.6105 344.624 31.6717C344.116 30.7328 343.418 29.9588 342.529 29.3498C341.641 28.7408 340.46 28.4363 338.987 28.4363C337.566 28.4363 336.347 28.7408 335.331 29.3498C334.316 29.9588 333.478 30.7455 332.818 31.7097C332.158 32.674 331.675 33.7524 331.371 34.9451C331.066 36.1377 330.914 37.3176 330.914 38.4849V58.4298H321.773V36.3534C321.773 34.0696 321.227 32.1792 320.136 30.682C319.044 29.1849 317.33 28.4363 314.994 28.4363C313.623 28.4363 312.43 28.7281 311.414 29.3118C310.399 29.8954 309.574 30.644 308.939 31.5575C308.304 32.471 307.822 33.524 307.492 34.7167C307.162 35.9093 306.997 37.1146 306.997 38.3327V58.4298H297.856V21.8895H306.54V27.7512H306.692C307.098 26.8377 307.644 25.9749 308.33 25.1629C309.015 24.3509 309.828 23.615 310.767 22.9553C311.706 22.2955 312.785 21.7753 314.004 21.3947C315.223 21.0141 316.568 20.8238 318.041 20.8238C320.885 20.8238 323.246 21.4581 325.125 22.7269C327.004 23.9957 328.451 25.6704 329.466 27.7512C330.685 25.5182 332.31 23.8054 334.341 22.6127C336.372 21.4201 338.759 20.8238 341.501 20.8238ZM408.765 20.8238C411.151 20.8238 413.195 21.2424 414.896 22.0798C416.597 22.9172 417.994 24.021 419.085 25.3913C420.177 26.7616 420.977 28.3348 421.485 30.1111C421.993 31.8874 422.246 33.7144 422.246 35.5921V58.4298H413.106V38.1804C413.106 37.1146 413.03 35.9981 412.878 34.8309C412.725 33.6636 412.395 32.6105 411.887 31.6717C411.38 30.7328 410.681 29.9588 409.793 29.3498C408.904 28.7408 407.724 28.4363 406.251 28.4363C404.829 28.4363 403.61 28.7408 402.595 29.3498C401.579 29.9588 400.741 30.7455 400.081 31.7097C399.421 32.674 398.939 33.7524 398.634 34.9451C398.329 36.1377 398.177 37.3176 398.177 38.4849V58.4298H389.037V36.3534C389.037 34.0696 388.491 32.1792 387.399 30.682C386.307 29.1849 384.594 28.4363 382.258 28.4363C380.887 28.4363 379.693 28.7281 378.678 29.3118C377.662 29.8954 376.837 30.644 376.202 31.5575C375.568 32.471 375.085 33.524 374.755 34.7167C374.425 35.9093 374.26 37.1146 374.26 38.3327V58.4298H365.12V21.8895H373.803V27.7512H373.955C374.362 26.8377 374.908 25.9749 375.593 25.1629C376.279 24.3509 377.091 23.615 378.03 22.9553C378.97 22.2955 380.049 21.7753 381.268 21.3947C382.486 21.0141 383.832 20.8238 385.305 20.8238C388.148 20.8238 390.509 21.4581 392.388 22.7269C394.267 23.9957 395.714 25.6704 396.73 27.7512C397.949 25.5182 399.573 23.8054 401.605 22.6127C403.636 21.4201 406.022 20.8238 408.765 20.8238ZM430.251 40.0074C430.251 37.1146 430.771 34.4883 431.812 32.1284C432.853 29.7685 434.262 27.7512 436.039 26.0764C437.817 24.4017 439.924 23.1075 442.361 22.194C444.799 21.2805 447.389 20.8238 450.131 20.8238C452.873 20.8238 455.462 21.2805 457.9 22.194C460.337 23.1075 462.445 24.4017 464.222 26.0764C465.999 27.7512 467.408 29.7685 468.449 32.1284C469.49 34.4883 470.011 37.1146 470.011 40.0074C470.011 42.9002 469.49 45.5392 468.449 47.9245C467.408 50.3098 465.999 52.3524 464.222 54.0526C462.445 55.7527 460.337 57.0849 457.9 58.0492C455.462 59.0134 452.873 59.4956 450.131 59.4956C447.389 59.4956 444.799 59.0134 442.361 58.0492C439.924 57.0849 437.817 55.7527 436.039 54.0526C434.262 52.3524 432.853 50.3098 431.812 47.9245C430.771 45.5392 430.251 42.9002 430.251 40.0074ZM439.543 40.0074C439.543 41.4284 439.759 42.8494 440.191 44.2705C440.622 45.6915 441.27 46.9602 442.133 48.0767C442.996 49.1932 444.088 50.1067 445.408 50.8173C446.728 51.5278 448.303 51.883 450.131 51.883C451.959 51.883 453.533 51.5278 454.853 50.8173C456.173 50.1067 457.265 49.1932 458.128 48.0767C458.992 46.9602 459.639 45.6915 460.071 44.2705C460.502 42.8494 460.718 41.4284 460.718 40.0074C460.718 38.5864 460.502 37.1781 460.071 35.7824C459.639 34.3868 458.992 33.1307 458.128 32.0142C457.265 30.8977 456.173 29.9969 454.853 29.3118C453.533 28.6266 451.959 28.2841 450.131 28.2841C448.303 28.2841 446.728 28.6266 445.408 29.3118C444.088 29.9969 442.996 30.8977 442.133 32.0142C441.27 33.1307 440.622 34.3868 440.191 35.7824C439.759 37.1781 439.543 38.5864 439.543 40.0074ZM478.32 21.8895H487.003V27.7512H487.155C487.968 25.9242 489.377 24.3129 491.383 22.9172C493.388 21.5216 495.762 20.8238 498.504 20.8238C500.891 20.8238 502.935 21.2424 504.636 22.0798C506.337 22.9172 507.733 24.021 508.825 25.3913C509.917 26.7616 510.717 28.3348 511.224 30.1111C511.732 31.8874 511.986 33.7144 511.986 35.5921V58.4298H502.846V38.1804C502.846 37.1146 502.77 35.9981 502.617 34.8309C502.465 33.6636 502.135 32.6105 501.627 31.6717C501.119 30.7328 500.421 29.9588 499.533 29.3498C498.644 28.7408 497.463 28.4363 495.991 28.4363C494.518 28.4363 493.249 28.7281 492.182 29.3118C491.116 29.8954 490.24 30.644 489.554 31.5575C488.869 32.471 488.348 33.524 487.993 34.7167C487.638 35.9093 487.46 37.1146 487.46 38.3327V58.4298H478.32V21.8895ZM542.155 31.6336C541.343 30.5678 540.226 29.6416 538.804 28.855C537.382 28.0684 535.833 27.6751 534.158 27.6751C532.685 27.6751 531.34 27.9796 530.121 28.5886C528.902 29.1976 528.293 30.2126 528.293 31.6336C528.293 33.0546 528.966 34.0569 530.311 34.6406C531.657 35.2242 533.625 35.8205 536.214 36.4295C537.585 36.734 538.969 37.14 540.366 37.6475C541.762 38.155 543.031 38.8275 544.174 39.6649C545.316 40.5022 546.243 41.5426 546.954 42.786C547.665 44.0294 548.02 45.5392 548.02 47.3155C548.02 49.5485 547.602 51.4389 546.764 52.9868C545.926 54.5347 544.809 55.7908 543.412 56.7551C542.016 57.7193 540.391 58.4171 538.537 58.8485C536.684 59.2799 534.767 59.4956 532.787 59.4956C529.943 59.4956 527.176 58.9754 524.484 57.935C521.793 56.8946 519.559 55.4102 517.781 53.4816L523.799 47.8484C524.814 49.1679 526.135 50.259 527.76 51.1218C529.385 51.9845 531.187 52.4159 533.168 52.4159C533.828 52.4159 534.501 52.3398 535.186 52.1875C535.872 52.0353 536.506 51.7942 537.09 51.4643C537.674 51.1344 538.144 50.6904 538.499 50.1321C538.855 49.5739 539.033 48.8887 539.033 48.0767C539.033 46.5542 538.334 45.4631 536.938 44.8033C535.541 44.1436 533.447 43.4838 530.654 42.8241C529.283 42.5196 527.95 42.1262 526.655 41.6441C525.36 41.162 524.205 40.5276 523.189 39.741C522.174 38.9543 521.361 37.9774 520.752 36.8101C520.143 35.6429 519.838 34.1965 519.838 32.471C519.838 30.441 520.257 28.6901 521.095 27.2183C521.933 25.7465 523.037 24.5412 524.408 23.6023C525.779 22.6635 527.328 21.9656 529.054 21.5089C530.781 21.0521 532.558 20.8238 534.386 20.8238C537.027 20.8238 539.604 21.2805 542.117 22.194C544.631 23.1075 546.624 24.5032 548.097 26.3809L542.155 31.6336Z" fill="white"/>
</g>
<defs>
<filter id="filter0_d_12_14640" x="0.307804" y="15.9572" width="239.308" height="66.1332" filterUnits="userSpaceOnUse" color-interpolation-filters="sRGB">
<feFlood flood-opacity="0" result="BackgroundImageFix"/>
<feColorMatrix in="SourceAlpha" type="matrix" values="0 0 0 0 0 0 0 0 0 0 0 0 0 0 0 0 0 0 127 0" result="hardAlpha"/>
<feOffset dy="0.4365"/>
<feGaussianBlur stdDeviation="1.746"/>
<feColorMatrix type="matrix" values="0 0 0 0 0 0 0 0 0 0 0 0 0 0 0 0 0 0 0.520462 0"/>
<feBlend mode="normal" in2="BackgroundImageFix" result="effect1_dropShadow_12_14640"/>
<feBlend mode="normal" in="SourceGraphic" in2="effect1_dropShadow_12_14640" result="shape"/>
</filter>
<filter id="filter1_d_12_14640" x="235.971" y="0.0714526" width="316.491" height="64.2257" filterUnits="userSpaceOnUse" color-interpolation-filters="sRGB">
<feFlood flood-opacity="0" result="BackgroundImageFix"/>
<feColorMatrix in="SourceAlpha" type="matrix" values="0 0 0 0 0 0 0 0 0 0 0 0 0 0 0 0 0 0 127 0" result="hardAlpha"/>
<feOffset dy="0.4365"/>
<feGaussianBlur stdDeviation="1.746"/>
<feColorMatrix type="matrix" values="0 0 0 0 0 0 0 0 0 0 0 0 0 0 0 0 0 0 0.520462 0"/>
<feBlend mode="normal" in2="BackgroundImageFix" result="effect1_dropShadow_12_14640"/>
<feBlend mode="normal" in="SourceGraphic" in2="effect1_dropShadow_12_14640" result="shape"/>
</filter>
</defs>
</svg>
