<svg width="1920" height="1080" viewBox="0 0 1920 1080" fill="none" xmlns="http://www.w3.org/2000/svg">
<g clip-path="url(#clip0_43_3)">
<path d="M1919.32 1079.62H0.643555V0.382821H1919.32V1079.62Z" fill="white"/>
<path d="M1.55188 1080L0.195312 1079.24L549.829 769.972L660.549 707.668H1259.02V708.747H661.343L1.55188 1080Z" fill="#E7E7E7"/>
<path d="M1826.87 1028.27H93.0947V1027.19H1826.87V1028.27Z" fill="#E7E7E7"/>
<path d="M1739.76 979.258H180.2V978.179H1739.76V979.258Z" fill="#E7E7E7"/>
<path d="M1668.57 939.191H251.399V938.113H1668.57V939.191Z" fill="#E7E7E7"/>
<path d="M1609.28 905.832H310.685V904.753H1609.28V905.832Z" fill="#E7E7E7"/>
<path d="M1559.15 877.627H360.814V876.548H1559.15V877.627Z" fill="#E7E7E7"/>
<path d="M1516.21 853.462H403.76V852.383H1516.21V853.462Z" fill="#E7E7E7"/>
<path d="M1479 832.53H440.959V831.451H1479V832.53Z" fill="#E7E7E7"/>
<path d="M1446.47 814.221H473.495V813.142H1446.47V814.221Z" fill="#E7E7E7"/>
<path d="M1417.77 798.076H502.193V796.997H1417.77V798.076" fill="#E7E7E7"/>
<path d="M1392.27 783.728H527.693V782.649H1392.27V783.728" fill="#E7E7E7"/>
<path d="M1369.46 770.89H550.503V769.81H1369.46V770.89" fill="#E7E7E7"/>
<path d="M1348.93 759.342H571.025V758.263H1348.93V759.342Z" fill="#E7E7E7"/>
<path d="M1330.37 748.895H589.59V747.816H1330.37V748.895Z" fill="#E7E7E7"/>
<path d="M1313.5 739.403H606.463V738.325H1313.5V739.403Z" fill="#E7E7E7"/>
<path d="M1298.1 730.736H621.865V729.657H1298.1V730.736Z" fill="#E7E7E7"/>
<path d="M1283.99 722.793H635.981V721.714H1283.99V722.793Z" fill="#E7E7E7"/>
<path d="M1271 715.487H648.967V714.408H1271V715.487Z" fill="#E7E7E7"/>
<path d="M1827.03 1079.98L1229.82 708.569L1231.24 707.846L1828.45 1079.26L1827.03 1079.98" fill="#E7E7E7"/>
<path d="M1735.65 1079.96L1590.48 979.058L1201.3 708.547L1202.8 707.867L1737.15 1079.28L1735.65 1079.96" fill="#E7E7E7"/>
<path d="M1644.28 1079.94L1251.7 770.669L1172.8 708.521L1174.35 707.895L1645.83 1079.31L1644.28 1079.94" fill="#E7E7E7"/>
<path d="M1552.89 1079.9L1144.28 708.488L1145.91 707.922L1554.52 1079.34L1552.89 1079.9" fill="#E7E7E7"/>
<path d="M1461.51 1079.87L1115.78 708.455L1117.48 707.953L1463.22 1079.37L1461.51 1079.87" fill="#E7E7E7"/>
<path d="M1370.15 1079.83L1087.26 708.417L1089.02 707.991L1371.91 1079.41L1370.15 1079.83Z" fill="#E7E7E7"/>
<path d="M1278.77 1079.79L1058.74 708.375L1060.57 708.035L1280.59 1079.45L1278.77 1079.79" fill="#E7E7E7"/>
<path d="M1187.41 1079.75L1030.25 708.331L1032.11 708.083L1189.27 1079.5L1187.41 1079.75" fill="#E7E7E7"/>
<path d="M1096.04 1079.7L1001.75 708.283L1003.65 708.132L1097.94 1079.55L1096.04 1079.7Z" fill="#E7E7E7"/>
<path d="M1004.7 1079.64L973.258 708.229L975.176 708.18L1006.61 1079.6L1004.7 1079.64" fill="#E7E7E7"/>
<path d="M915.266 1079.64L913.35 1079.6L944.787 708.18L946.704 708.229L915.266 1079.64Z" fill="#E7E7E7"/>
<path d="M823.919 1079.7L822.02 1079.55L916.313 708.132L918.212 708.283L823.919 1079.7Z" fill="#E7E7E7"/>
<path d="M732.554 1079.75L730.688 1079.5L887.846 708.083L889.712 708.331L732.554 1079.75Z" fill="#E7E7E7"/>
<path d="M641.193 1079.79L639.372 1079.45L859.396 708.035L861.217 708.375L641.193 1079.79Z" fill="#E7E7E7"/>
<path d="M549.816 1079.83L548.053 1079.41L830.942 707.991L832.706 708.417L549.816 1079.83Z" fill="#E7E7E7"/>
<path d="M458.445 1079.87L456.746 1079.37L802.501 707.953L804.201 708.455L458.445 1079.87Z" fill="#E7E7E7"/>
<path d="M367.072 1079.9L365.44 1079.34L774.052 707.922L775.683 708.488L367.072 1079.9Z" fill="#E7E7E7"/>
<path d="M275.69 1079.94L274.128 1079.31L745.604 707.895L747.166 708.521L275.69 1079.94Z" fill="#E7E7E7"/>
<path d="M184.306 1079.96L182.814 1079.28L327.992 978.378L717.166 707.867L718.658 708.547L184.306 1079.96" fill="#E7E7E7"/>
<path d="M92.934 1079.98L91.5107 1079.26L688.718 707.846L690.141 708.569L92.934 1079.98Z" fill="#E7E7E7"/>
<path d="M1259.41 372.338H660.549L0.195312 0.761218L1.55188 0.000375345L551.185 309.267L661.343 371.259H1258.62L1918.41 0.000375345L1919.77 0.761218L1259.41 372.338" fill="#E7E7E7"/>
<path d="M93.0947 52.8125V51.7337H1826.87V52.8125H93.0947Z" fill="#E7E7E7"/>
<path d="M180.2 101.826V100.747H1739.76V101.826H180.2Z" fill="#E7E7E7"/>
<path d="M1668.57 141.888H251.399V140.809H1668.57V141.888Z" fill="#E7E7E7"/>
<path d="M1609.28 175.247H310.685V174.168H1609.28V175.247Z" fill="#E7E7E7"/>
<path d="M360.814 203.453V202.374H1559.15V203.453H360.814Z" fill="#E7E7E7"/>
<path d="M403.76 227.617V226.538H1516.21V227.617H403.76Z" fill="#E7E7E7"/>
<path d="M440.959 248.549V247.47H1479V248.549H440.959Z" fill="#E7E7E7"/>
<path d="M1446.47 266.858H473.495V265.779H1446.47V266.858Z" fill="#E7E7E7"/>
<path d="M502.193 283.009V281.93H1417.77V283.009H502.193Z" fill="#E7E7E7"/>
<path d="M1392.27 297.357H527.693V296.278H1392.27V297.357" fill="#E7E7E7"/>
<path d="M1369.46 310.189H550.503V309.111H1369.46V310.189" fill="#E7E7E7"/>
<path d="M1348.93 321.737H571.025V320.658H1348.93V321.737Z" fill="#E7E7E7"/>
<path d="M589.59 332.185V331.105H1330.37V332.185H589.59Z" fill="#E7E7E7"/>
<path d="M1313.5 341.677H606.463V340.598H1313.5V341.677Z" fill="#E7E7E7"/>
<path d="M1298.1 350.348H621.865V349.269H1298.1V350.348Z" fill="#E7E7E7"/>
<path d="M1283.99 358.286H635.981V357.207H1283.99V358.286Z" fill="#E7E7E7"/>
<path d="M1271 365.593H648.967V364.513H1271V365.593Z" fill="#E7E7E7"/>
<path d="M1231.49 708.207H1229.57V371.587L1462.51 226.721L1827.03 0.0211893L1828.45 0.744195L1231.49 372.002V708.207Z" fill="#E7E7E7"/>
<path d="M1203.01 708.207H1201.09V371.603L1590.48 100.946L1735.65 0.0427387L1737.15 0.722744L1203.01 371.986V708.207Z" fill="#E7E7E7"/>
<path d="M1174.54 708.207H1172.62V371.625L1387.18 202.605L1422.99 174.394L1516.2 100.973L1644.28 0.0697685L1645.83 0.695811L1174.54 371.97V708.207" fill="#E7E7E7"/>
<path d="M1146.05 708.207H1144.14V371.641L1260.32 266.032L1552.89 0.0967495L1554.52 0.66335L1146.05 371.949V708.207Z" fill="#E7E7E7"/>
<path d="M1117.58 708.207H1115.66V371.663L1299.25 174.453L1461.51 0.129113L1463.22 0.630896L1117.58 371.927V708.207Z" fill="#E7E7E7"/>
<path d="M1089.1 708.207H1087.18V371.684L1181.54 247.798L1370.15 0.166893L1371.91 0.593214L1089.1 371.905V708.207Z" fill="#E7E7E7"/>
<path d="M1060.62 708.207H1058.7V371.706L1076.91 340.969L1278.77 0.210203L1280.59 0.5501L1160.62 203.086L1060.62 371.884V708.207Z" fill="#E7E7E7"/>
<path d="M1032.14 708.207H1030.22L1030.25 371.673L1187.41 0.258538L1189.27 0.506847L1032.14 371.857V708.207Z" fill="#E7E7E7"/>
<path d="M1003.66 708.208H1001.74L1001.75 371.723L1096.04 0.308101L1097.94 0.459237L1003.66 371.836V708.208Z" fill="#E7E7E7"/>
<path d="M975.176 708.207H973.258V371.797L1004.7 0.35576L1006.61 0.404347L975.176 371.819V708.207Z" fill="#E7E7E7"/>
<path d="M946.705 708.207H944.786V371.797L913.35 0.404347L915.266 0.35576L946.704 371.77L946.705 708.207" fill="#E7E7E7"/>
<path d="M918.222 708.208H916.303V371.836L822.02 0.459237L823.919 0.308101L918.222 371.798V708.208Z" fill="#E7E7E7"/>
<path d="M889.739 708.207H887.82V371.857L730.688 0.506847L732.554 0.258538L889.739 371.733V708.207Z" fill="#E7E7E7"/>
<path d="M861.266 708.207H859.347V371.884L639.372 0.5501L641.193 0.210203L861.266 371.706V708.207Z" fill="#E7E7E7"/>
<path d="M832.783 708.207H830.865V371.905L548.052 0.593214L549.816 0.166893L832.783 371.684V708.207Z" fill="#E7E7E7"/>
<path d="M804.31 708.207H802.392V371.927L456.746 0.630896L458.445 0.129113L804.31 371.663V708.207Z" fill="#E7E7E7"/>
<path d="M775.827 708.207H773.908V371.949L365.441 0.66335L367.072 0.0967495L775.827 371.641V708.207Z" fill="#E7E7E7"/>
<path d="M747.344 708.207H745.426V371.97L274.128 0.695811L275.69 0.0697685L747.344 371.625V708.207" fill="#E7E7E7"/>
<path d="M718.872 708.207H716.953V371.986L182.814 0.722744L184.306 0.0427387L329.483 100.946L718.872 371.603V708.207Z" fill="#E7E7E7"/>
<path d="M690.389 708.207H688.47V372.002L91.5107 0.744195L92.934 0.0211893L690.389 371.587V708.207Z" fill="#E7E7E7"/>
<path d="M661.91 708.202H659.991V371.798H661.91V708.202Z" fill="#E7E7E7"/>
<path d="M93.8546 1027.89H91.9359L91.9355 52.6558H93.8542L93.8546 1027.89Z" fill="#E7E7E7"/>
<path d="M180.991 978.892H179.072V101.648H180.991V978.892Z" fill="#E7E7E7"/>
<path d="M252.215 938.841H250.296L250.295 141.698H252.214L252.215 938.841" fill="#E7E7E7"/>
<path d="M311.52 905.498H309.602V175.047H311.52V905.498Z" fill="#E7E7E7"/>
<path d="M361.669 877.297H359.75L359.749 203.242H361.668L361.669 877.297" fill="#E7E7E7"/>
<path d="M404.628 853.144H402.709L402.708 227.401H404.627L404.628 853.144Z" fill="#E7E7E7"/>
<path d="M441.841 832.218H439.922V248.322H441.841V832.218Z" fill="#E7E7E7"/>
<path d="M474.388 813.913H472.47L472.469 266.626H474.387L474.388 813.913Z" fill="#E7E7E7"/>
<path d="M503.096 797.773H501.178V282.766H503.096V797.773Z" fill="#E7E7E7"/>
<path d="M528.606 783.431H526.687L526.687 297.109H528.605L528.606 783.431Z" fill="#E7E7E7"/>
<path d="M551.423 770.599H549.504V309.942H551.423V770.599Z" fill="#E7E7E7"/>
<path d="M571.954 759.056H570.035L570.034 321.484H571.953L571.954 759.056Z" fill="#E7E7E7"/>
<path d="M590.523 748.614H588.604V331.931H590.523V748.614Z" fill="#E7E7E7"/>
<path d="M607.402 739.122H605.483V341.417H607.402V739.122Z" fill="#E7E7E7"/>
<path d="M622.81 730.461H620.892V350.083H622.81V730.461Z" fill="#E7E7E7"/>
<path d="M636.931 722.519H635.013V358.022H636.931V722.519Z" fill="#E7E7E7"/>
<path d="M649.921 715.217H648.002V365.327H649.921V715.217Z" fill="#E7E7E7"/>
<path d="M660.577 388.629L0 52.5646L1.28724 51.766L661.316 387.55L1259.02 387.28V388.359L660.577 388.629" fill="#E7E7E7"/>
<path d="M660.607 404.65L472.821 319.169L0.0400391 103.958L1.24671 103.122L180.634 184.782L661.285 403.571L1259.02 403.301V404.381L660.607 404.65Z" fill="#E7E7E7"/>
<path d="M660.639 420.666L472.867 345.249L0.0859375 155.362L1.20079 154.482L661.253 419.587L1259.02 419.317V420.396L660.639 420.666" fill="#E7E7E7"/>
<path d="M660.674 436.688L0.138672 206.766L1.1486 205.849L661.219 435.608L1259.02 435.338V436.418L660.674 436.688" fill="#E7E7E7"/>
<path d="M660.71 452.703L0.198242 258.159L1.08826 257.204L661.182 451.624L1259.02 451.354V452.433L660.71 452.703" fill="#E7E7E7"/>
<path d="M660.947 468.725H660.75L310.18 384.242L0.265625 309.559L1.02148 308.566L661.143 467.645L1259.02 467.376V468.455L660.947 468.725Z" fill="#E7E7E7"/>
<path d="M660.644 484.719L0.34082 360.957L0.946778 359.932L661.25 483.693L660.644 484.719Z" fill="#E7E7E7"/>
<path d="M660.947 500.762L660.724 500.746L0.421875 412.345L0.865944 411.293L661.059 499.682L1259.02 499.413V500.492L660.947 500.762Z" fill="#E7E7E7"/>
<path d="M660.811 516.777L0.507812 463.738L0.779125 462.67L661.081 515.709L660.811 516.777" fill="#E7E7E7"/>
<path d="M660.901 532.805L0.597656 515.121L0.689093 514.042L660.992 531.725L660.901 532.805" fill="#E7E7E7"/>
<path d="M0.689093 566.503L0.597656 565.424L660.901 547.74L1259.02 547.471V548.55L660.946 548.82L0.689093 566.503Z" fill="#E7E7E7"/>
<path d="M0.779125 617.875L0.507812 616.807L660.811 563.767L661.081 564.836L0.779125 617.875Z" fill="#E7E7E7"/>
<path d="M0.865944 669.247L0.421875 668.195L660.834 579.784L1259.02 579.514V580.593L661.06 580.863L0.865944 669.247Z" fill="#E7E7E7"/>
<path d="M0.946778 720.613L0.34082 719.588L660.644 595.826L661.25 596.851L0.946778 720.613Z" fill="#E7E7E7"/>
<path d="M1.02148 771.979L0.265625 770.987L660.749 611.82L1259.02 611.551V612.63L661.144 612.9L1.02148 771.979" fill="#E7E7E7"/>
<path d="M1.08826 823.335L0.198242 822.38L660.501 627.896L661.391 628.851L1.08826 823.335Z" fill="#E7E7E7"/>
<path d="M1.1486 874.696L0.138672 873.779L660.673 643.858L1259.02 643.588V644.667L661.22 644.937L1.1486 874.696Z" fill="#E7E7E7"/>
<path d="M1.20079 926.058L0.0859375 925.178L660.638 659.879L1259.02 659.61V660.689L661.254 660.959L1.20079 926.058Z" fill="#E7E7E7"/>
<path d="M1.24671 977.418L0.0400391 976.582L660.606 675.895L1259.02 675.625V676.704L661.286 676.974L1.24671 977.418Z" fill="#E7E7E7"/>
<path d="M1.28724 1028.78L0 1027.98L660.576 691.916L1259.02 691.647V692.726L661.317 692.996L1.28724 1028.78Z" fill="#E7E7E7"/>
<path d="M1918.64 1079.87L1258.06 708.428V371.798H1259.98V707.98L1920 1079.11L1918.64 1079.87" fill="#E7E7E7"/>
<path d="M1828.03 1027.62H1826.11V52.3861H1828.03V1027.62Z" fill="#E7E7E7"/>
<path d="M1740.89 978.621H1738.97V101.378H1740.89V978.621Z" fill="#E7E7E7"/>
<path d="M1669.67 938.571H1667.75V141.429H1669.67V938.571Z" fill="#E7E7E7"/>
<path d="M1610.36 905.229H1608.45V174.778H1610.36V905.229Z" fill="#E7E7E7"/>
<path d="M1560.21 877.027H1558.29V202.972H1560.21V877.027Z" fill="#E7E7E7"/>
<path d="M1517.25 852.874H1515.33V227.131H1517.25V852.874Z" fill="#E7E7E7"/>
<path d="M1480.04 831.947H1478.12V248.052H1480.04V831.947Z" fill="#E7E7E7"/>
<path d="M1447.5 813.644H1445.58V266.356H1447.5V813.644Z" fill="#E7E7E7"/>
<path d="M1418.78 797.504H1416.87V282.496H1418.78V797.504Z" fill="#E7E7E7"/>
<path d="M1393.28 783.161H1391.36V296.84H1393.28V783.161Z" fill="#E7E7E7"/>
<path d="M1370.46 770.328H1368.54V309.671H1370.46V770.328Z" fill="#E7E7E7"/>
<path d="M1349.93 758.786H1348.01V321.214H1349.93V758.786Z" fill="#E7E7E7"/>
<path d="M1331.36 748.345H1329.44V331.661H1331.36V748.345Z" fill="#E7E7E7"/>
<path d="M1314.48 738.853H1312.56V341.147H1314.48V738.853Z" fill="#E7E7E7"/>
<path d="M1299.07 730.191H1297.15V349.814H1299.07V730.191Z" fill="#E7E7E7"/>
<path d="M1284.95 722.248H1283.03V357.751H1284.95V722.248Z" fill="#E7E7E7"/>
<path d="M1271.96 714.947H1270.04V365.058H1271.96V714.947Z" fill="#E7E7E7"/>
<path d="M1259.66 388.219L1258.37 387.42L1918.68 51.4961L1919.96 52.2948L1259.66 388.219" fill="#E7E7E7"/>
<path d="M1259.62 404.256L1258.41 403.419L1918.71 102.851L1919.92 103.688L1740.54 185.348L1259.62 404.256" fill="#E7E7E7"/>
<path d="M1259.57 420.294L1258.46 419.414L1918.76 154.213L1919.88 155.093L1259.57 420.294Z" fill="#E7E7E7"/>
<path d="M1259.52 436.336L1258.51 435.419L1918.81 205.578L1919.83 206.496L1259.52 436.336" fill="#E7E7E7"/>
<path d="M1259.46 452.368L1258.58 451.413L1918.88 256.934L1919.76 257.889L1259.46 452.368Z" fill="#E7E7E7"/>
<path d="M1259.39 468.411L1258.64 467.418L1918.94 308.295L1919.69 309.288L1259.39 468.411" fill="#E7E7E7"/>
<path d="M660.947 484.746L660.945 483.667L1258.86 483.397L1919.01 359.662L1919.63 360.688L1259.17 484.476H1259.02L660.947 484.746" fill="#E7E7E7"/>
<path d="M1259.24 500.476L1258.79 499.423L1919.1 411.023L1919.54 412.075L1259.24 500.476Z" fill="#E7E7E7"/>
<path d="M660.947 516.783L660.945 515.704L1258.95 515.434L1919.18 462.4L1919.45 463.469L1259.02 516.513L660.947 516.783" fill="#E7E7E7"/>
<path d="M660.947 532.805L660.945 531.725L1259.02 531.456L1919.27 513.772L1919.37 514.852L1259.06 532.535L660.947 532.805" fill="#E7E7E7"/>
<path d="M1919.27 566.233L1258.97 548.55L1259.06 547.471L1919.37 565.154L1919.27 566.233Z" fill="#E7E7E7"/>
<path d="M1919.18 617.605L1258.95 564.572L660.947 564.842L660.945 563.762L1259.08 563.493L1271.13 564.458L1919.45 616.537L1919.18 617.605Z" fill="#E7E7E7"/>
<path d="M1919.1 668.978L1258.79 580.577L1259.24 579.525L1919.54 667.925L1919.1 668.978" fill="#E7E7E7"/>
<path d="M1919.01 720.344L1258.86 596.609L660.947 596.879L660.945 595.8L1259.17 595.53L1392.62 620.541L1919.63 719.318L1919.01 720.344Z" fill="#E7E7E7"/>
<path d="M1918.94 771.71L1258.64 612.587L1259.39 611.594L1919.69 770.717L1918.94 771.71" fill="#E7E7E7"/>
<path d="M1918.88 823.065L1258.79 628.646L660.947 628.916L660.945 627.837L1259.26 627.567L1516.73 703.405L1919.76 822.11L1918.88 823.065" fill="#E7E7E7"/>
<path d="M1918.81 874.427L1258.51 644.587L1259.52 643.669L1919.83 873.509L1918.81 874.427" fill="#E7E7E7"/>
<path d="M1918.76 925.787L1258.46 660.586L1259.57 659.706L1919.88 924.908L1918.76 925.787Z" fill="#E7E7E7"/>
<path d="M1918.71 977.148L1739.33 895.488L1258.41 676.58L1259.62 675.744L1919.92 976.312L1918.71 977.148Z" fill="#E7E7E7"/>
<path d="M1918.68 1028.51L1258.37 692.586L1259.66 691.787L1919.96 1027.71L1918.68 1028.51Z" fill="#E7E7E7"/>
</g>
<defs>
<clipPath id="clip0_43_3">
<rect width="1920" height="1080" fill="white"/>
</clipPath>
</defs>
</svg>
