<svg width="467" height="467" viewBox="0 0 467 467" fill="none" xmlns="http://www.w3.org/2000/svg">
<path fill-rule="evenodd" clip-rule="evenodd" d="M0 233.33C0 104.76 104.77 0 233.33 0C361.89 0 466.66 104.77 466.66 233.33C466.66 361.89 361.89 466.66 233.33 466.66C104.77 466.66 0 361.89 0 233.33V233.33ZM35 233.33C35 342.76 123.898 431.66 233.33 431.66C342.762 431.66 431.66 342.762 431.66 233.33C431.66 123.898 342.762 35 233.33 35C123.898 35 35 123.898 35 233.33V233.33Z" fill="white"/>
<rect x="216" y="181" width="35" height="168" rx="17.5" fill="white"/>
<rect x="216" y="117" width="35" height="35" rx="17.5" fill="white"/>
</svg>
