<svg width="467" height="467" viewBox="0 0 467 467" fill="none" xmlns="http://www.w3.org/2000/svg">
<path fill-rule="evenodd" clip-rule="evenodd" d="M182.7 130.43C188.536 127.395 195.302 127.629 200.669 131.364L331.799 218.864C336.467 222.129 339.498 227.496 339.498 233.329C339.498 239.161 336.697 244.528 331.799 247.794L200.669 335.294C197.634 337.395 194.368 338.329 190.868 338.329C188.067 338.329 185.267 337.63 182.7 336.227C176.868 333.196 173.368 327.364 173.368 320.829V145.829C173.368 139.298 177.103 133.462 182.7 130.431L182.7 130.43ZM290.74 233.33L208.607 178.498V288.158L290.74 233.33Z" fill="white"/>
<path fill-rule="evenodd" clip-rule="evenodd" d="M0 233.33C0 104.76 104.77 0 233.33 0C361.89 0 466.66 104.77 466.66 233.33C466.66 361.89 361.89 466.66 233.33 466.66C104.77 466.66 0 361.89 0 233.33V233.33ZM35 233.33C35 342.76 123.898 431.66 233.33 431.66C342.762 431.66 431.66 342.762 431.66 233.33C431.66 123.898 342.762 35 233.33 35C123.898 35 35 123.898 35 233.33V233.33Z" fill="white"/>
</svg>
