<svg width="210" height="211" viewBox="0 0 210 211" fill="none" xmlns="http://www.w3.org/2000/svg">
<circle cx="105" cy="106" r="13" fill="white" fill-opacity="0.5" stroke="white" stroke-width="4"/>
<mask id="path-2-outside-1_315_405" maskUnits="userSpaceOnUse" x="19.5589" y="19.8222" width="171" height="147" fill="black">
<rect fill="white" x="19.5589" y="19.8222" width="171" height="147"/>
<path d="M44.0744 164.959L43.4996 164.354L51.6812 156.572L52.256 157.176L44.0744 164.959Z"/>
<path d="M35.2056 144.639C35.0453 144.348 34.8657 144.113 34.667 143.935C34.4663 143.754 34.2561 143.625 34.0364 143.55C33.8113 143.473 33.5812 143.449 33.3461 143.478C33.1109 143.507 32.8778 143.586 32.6466 143.713C32.1667 143.978 31.874 144.334 31.7685 144.78C31.6611 145.223 31.7735 145.746 32.1058 146.348L32.7722 147.557L35.8721 145.847L35.2056 144.639ZM31.3019 146.791C31.0392 146.315 30.8673 145.871 30.7862 145.459C30.6997 145.045 30.6943 144.667 30.7699 144.324C30.8456 143.98 30.9961 143.673 31.2215 143.403C31.445 143.129 31.7336 142.894 32.0873 142.699C32.4376 142.506 32.7919 142.391 33.1502 142.353C33.5086 142.315 33.8585 142.357 34.2 142.48C34.5396 142.598 34.8655 142.8 35.1778 143.085C35.4846 143.368 35.7636 143.737 36.0147 144.192L36.6812 145.401L39.4973 143.848L40.0565 144.862L32.5276 149.014L31.3019 146.791Z"/>
<path d="M29.4898 132.76C29.3786 132.443 29.2429 132.177 29.0827 131.962C28.9174 131.744 28.7364 131.579 28.5398 131.466C28.3381 131.35 28.1246 131.285 27.8992 131.271C27.6738 131.256 27.4422 131.291 27.2044 131.374C26.7213 131.544 26.4126 131.83 26.2785 132.233C26.1443 132.636 26.1885 133.155 26.4109 133.789L26.8319 134.99L29.895 133.915L29.4898 132.76ZM32.3593 127.544L32.7009 128.518C32.771 128.718 32.7453 128.893 32.6236 129.041L30.4635 132.164C30.3954 132.26 30.3558 132.353 30.3445 132.441C30.3281 132.528 30.3471 132.648 30.4014 132.803L30.6933 133.635L34.0791 132.448L34.4623 133.54L26.3489 136.386L25.5446 134.093C25.3646 133.58 25.2619 133.118 25.2365 132.707C25.2073 132.297 25.2485 131.938 25.3601 131.627C25.4703 131.313 25.6446 131.048 25.8828 130.833C26.1173 130.62 26.4063 130.453 26.7498 130.332C27.0367 130.232 27.3206 130.183 27.6014 130.186C27.8823 130.189 28.1533 130.243 28.4142 130.346C28.6701 130.447 28.9115 130.598 29.1386 130.798C29.3643 130.994 29.5679 131.236 29.7495 131.525C29.7798 131.357 29.8526 131.196 29.9678 131.041L32.3593 127.544Z"/>
<path d="M28.9706 116.377L29.9048 116.216L30.8381 121.431L22.3746 122.946L21.4413 117.731L22.3745 117.564L23.1027 121.633L25.914 121.13L25.3243 117.834L26.222 117.673L26.8118 120.969L29.6999 120.452L28.9706 116.377Z"/>
<path d="M21.9516 105.648C22.0124 105.683 22.0593 105.722 22.0924 105.765C22.1213 105.804 22.1364 105.854 22.1378 105.914C22.1394 105.982 22.1073 106.063 22.0414 106.156C21.9756 106.25 21.9043 106.367 21.8276 106.509C21.7468 106.647 21.6746 106.815 21.6112 107.012C21.5477 107.206 21.5191 107.441 21.5256 107.717C21.5316 107.976 21.5729 108.206 21.6496 108.404C21.7221 108.598 21.8199 108.762 21.9431 108.895C22.0661 109.024 22.2104 109.121 22.3759 109.185C22.5374 109.249 22.7122 109.279 22.9001 109.275C23.1401 109.269 23.3387 109.207 23.4959 109.087C23.6491 108.964 23.7794 108.804 23.887 108.61C23.9944 108.411 24.0872 108.189 24.1655 107.943C24.2398 107.693 24.3179 107.44 24.3999 107.182C24.4818 106.92 24.576 106.665 24.6823 106.419C24.7845 106.168 24.9173 105.945 25.0808 105.749C25.2442 105.55 25.4465 105.389 25.6878 105.267C25.9289 105.142 26.2274 105.075 26.5833 105.066C26.9592 105.058 27.3146 105.113 27.6495 105.234C27.9804 105.354 28.2707 105.535 28.5204 105.777C28.77 106.016 28.969 106.313 29.1173 106.67C29.2655 107.022 29.3449 107.427 29.3555 107.883C29.3685 108.442 29.2804 108.953 29.091 109.413C28.8977 109.874 28.6328 110.27 28.2964 110.602L27.7368 110.279C27.692 110.248 27.6552 110.211 27.6262 110.167C27.593 110.12 27.5758 110.069 27.5745 110.013C27.5733 109.961 27.594 109.902 27.6365 109.837C27.6749 109.768 27.7251 109.691 27.7871 109.606C27.8492 109.52 27.9169 109.422 27.9904 109.313C28.0639 109.203 28.131 109.079 28.1918 108.942C28.2526 108.801 28.3029 108.641 28.3428 108.464C28.3787 108.287 28.3941 108.089 28.389 107.869C28.3825 107.593 28.3388 107.348 28.2578 107.134C28.1768 106.92 28.0666 106.74 27.9272 106.595C27.7837 106.447 27.6151 106.335 27.4213 106.259C27.2275 106.184 27.0126 106.149 26.7767 106.154C26.5167 106.16 26.3062 106.225 26.145 106.349C25.9798 106.469 25.8434 106.626 25.7359 106.82C25.6284 107.015 25.5395 107.237 25.4693 107.487C25.3951 107.737 25.3209 107.99 25.2469 108.248C25.1689 108.506 25.0788 108.76 24.9766 109.011C24.8744 109.261 24.7395 109.484 24.572 109.68C24.4045 109.876 24.1942 110.037 23.9411 110.163C23.6838 110.285 23.3653 110.35 22.9854 110.359C22.6814 110.366 22.3862 110.315 22.0996 110.206C21.8128 110.093 21.5569 109.926 21.3318 109.708C21.1065 109.485 20.9241 109.211 20.7845 108.886C20.6449 108.557 20.57 108.179 20.5601 107.751C20.5489 107.271 20.6148 106.833 20.7576 106.438C20.9004 106.039 21.1123 105.686 21.3932 105.379L21.9516 105.648Z"/>
<path d="M22.9429 92.918C22.9977 92.9615 23.0381 93.0071 23.0641 93.0549C23.0866 93.0982 23.094 93.1496 23.0862 93.2091C23.0773 93.2765 23.0332 93.3514 22.9538 93.4338C22.8744 93.5162 22.7859 93.6215 22.6884 93.7499C22.5874 93.8738 22.4904 94.0285 22.3974 94.214C22.305 94.3955 22.2408 94.6231 22.2049 94.8967C22.171 95.1545 22.1768 95.3872 22.2221 95.5949C22.264 95.7981 22.3356 95.9749 22.4368 96.1254C22.5386 96.2719 22.6664 96.3895 22.8201 96.4783C22.9699 96.5666 23.138 96.6229 23.3244 96.6474C23.5624 96.6787 23.7682 96.6472 23.942 96.5531C24.1123 96.4544 24.2654 96.3172 24.4015 96.1414C24.5381 95.9617 24.6639 95.7563 24.7789 95.5253C24.8906 95.2898 25.0067 95.0509 25.1273 94.8086C25.2484 94.5622 25.3803 94.3254 25.5232 94.0981C25.6625 93.8663 25.828 93.6661 26.0196 93.4976C26.2117 93.3252 26.4362 93.1973 26.6933 93.1141C26.9508 93.0269 27.2561 93.0065 27.6091 93.0528C27.9819 93.1018 28.3245 93.2114 28.637 93.3815C28.9455 93.5511 29.2046 93.7748 29.4142 94.0524C29.6244 94.3261 29.7754 94.6506 29.8673 95.0257C29.9598 95.3969 29.9763 95.8086 29.9169 96.2607C29.844 96.8159 29.6787 97.3066 29.421 97.7327C29.1594 98.1582 28.8369 98.5092 28.4536 98.7856L27.9501 98.3806C27.9106 98.3432 27.8799 98.3008 27.8579 98.2535C27.8324 98.2018 27.8233 98.1481 27.8306 98.0926C27.8374 98.041 27.8667 97.9864 27.9187 97.9287C27.9672 97.8665 28.0287 97.7979 28.103 97.7229C28.1774 97.648 28.2593 97.5619 28.3488 97.4647C28.4382 97.3676 28.5235 97.2557 28.6046 97.1292C28.6863 96.9987 28.7605 96.8491 28.827 96.6803C28.8896 96.5111 28.9352 96.3173 28.9638 96.0992C28.9998 95.8256 28.9942 95.5767 28.9469 95.3527C28.8997 95.1286 28.8183 94.9343 28.7027 94.7699C28.5837 94.601 28.4343 94.4643 28.2543 94.36C28.0744 94.2557 27.8674 94.1881 27.6334 94.1574C27.3756 94.1235 27.1576 94.1554 26.9794 94.253C26.7977 94.3462 26.6388 94.4806 26.5028 94.6564C26.3667 94.8322 26.2449 95.0381 26.1372 95.2741C26.0256 95.5095 25.9135 95.749 25.8008 95.9924C25.6842 96.2353 25.5562 96.4726 25.4168 96.7044C25.2774 96.9362 25.11 97.1361 24.9144 97.3041C24.7189 97.4721 24.4864 97.5989 24.217 97.6845C23.9441 97.7657 23.6192 97.7815 23.2425 97.732C22.9411 97.6924 22.6571 97.5966 22.3906 97.4446C22.1247 97.2886 21.8972 97.0853 21.7083 96.8345C21.5199 96.5798 21.3816 96.2813 21.2934 95.9389C21.2058 95.5925 21.1898 95.2072 21.2456 94.7828C21.3081 94.3069 21.4402 93.8845 21.642 93.5156C21.8442 93.1428 22.1077 92.8264 22.4323 92.5665L22.9429 92.918Z"/>
<path d="M31.0695 75.083C31.1046 75.5613 31.2254 75.9635 31.432 76.2897C31.6401 76.6122 31.9163 76.8489 32.2608 76.9997C32.499 77.104 32.7289 77.1522 32.9506 77.1445C33.1687 77.1352 33.3713 77.0863 33.5584 76.998C33.7456 76.9096 33.9122 76.7882 34.0584 76.6339C34.2009 76.478 34.3138 76.3047 34.3973 76.1142C34.5769 75.7038 34.663 75.3027 34.6556 74.9108C34.6497 74.5152 34.5741 74.1393 34.4288 73.7831L31.0695 75.083ZM37.1733 71.7032L36.757 72.6541C36.7105 72.7604 36.6599 72.8409 36.6054 72.8956C36.5509 72.9503 36.4665 72.9985 36.3522 73.0402L35.2008 73.4858C35.3835 73.9762 35.4751 74.4901 35.4756 75.0274C35.4741 75.5595 35.3554 76.0948 35.1196 76.6335C34.9913 76.9266 34.8159 77.1926 34.5934 77.4314C34.3726 77.6666 34.1198 77.855 33.8351 77.9967C33.5467 78.1369 33.2372 78.2153 32.9067 78.2322C32.5762 78.2491 32.2406 78.1829 31.8998 78.0337C31.6433 77.9214 31.4199 77.7734 31.2296 77.5897C31.0373 77.4007 30.8777 77.1867 30.7509 76.9478C30.624 76.7089 30.5294 76.4513 30.4669 76.1751C30.4045 75.8988 30.3728 75.6121 30.372 75.3148C29.9883 75.4132 29.6413 75.4577 29.331 75.4485C29.0169 75.4376 28.717 75.3697 28.4312 75.2445C28.1637 75.1274 27.9336 74.9699 27.7408 74.772C27.5496 74.5704 27.408 74.3403 27.316 74.0817C27.2203 73.8214 27.1799 73.5396 27.1949 73.2361C27.2078 72.9274 27.2856 72.61 27.4284 72.2838C27.5552 71.9944 27.7183 71.7514 27.9178 71.5549C28.1137 71.3569 28.3263 71.2054 28.5556 71.1006C28.7849 70.9957 29.0238 70.9387 29.2723 70.9296C29.5187 70.9153 29.7551 70.9489 29.9814 71.0305L29.8352 71.6935C29.8116 71.8273 29.7155 71.8922 29.5469 71.8882C29.4404 71.8722 29.323 71.871 29.1948 71.8847C29.0681 71.8948 28.9426 71.9271 28.8182 71.9819C28.6954 72.0329 28.5785 72.1105 28.4674 72.2147C28.3579 72.3152 28.2662 72.4498 28.1924 72.6183C28.1122 72.8015 28.0685 72.9811 28.0614 73.157C28.0558 73.3292 28.0829 73.4917 28.1427 73.6445C28.2004 73.792 28.2886 73.9245 28.4075 74.0421C28.5227 74.158 28.6627 74.252 28.8276 74.3242C28.9558 74.3804 29.085 74.4195 29.2151 74.4415C29.3452 74.4635 29.4843 74.4698 29.6325 74.4605C29.7823 74.4475 29.9411 74.4188 30.109 74.3744C30.2769 74.33 30.461 74.2686 30.6612 74.1904L33.9555 72.9341C33.7673 72.6858 33.5579 72.4609 33.3273 72.2595C33.0931 72.0565 32.8478 71.8837 32.5916 71.7409C32.5251 71.7031 32.4798 71.6571 32.4555 71.6028C32.4313 71.5485 32.4336 71.4884 32.4625 71.4224L32.7247 70.8233C33.1445 71.0115 33.5297 71.2587 33.8803 71.565C34.2272 71.8697 34.5254 72.2208 34.775 72.6182L37.1733 71.7032Z"/>
<path d="M43.2489 48.1326L49.7472 53.7627L48.985 54.6425L46.0284 52.0808L42.9913 55.5862L45.948 58.1478L45.1857 59.0275L38.6875 53.3974L39.4497 52.5177L42.3474 55.0283L45.3844 51.5229L42.4867 49.0123L43.2489 48.1326Z"/>
<path d="M58.8159 40.1697C59.213 40.6766 59.4978 41.2056 59.6703 41.7565C59.8402 42.3042 59.8984 42.8455 59.8449 43.3803C59.7913 43.9152 59.6249 44.4292 59.3456 44.9224C59.067 45.41 58.679 45.8486 58.1815 46.2384C57.684 46.6281 57.1652 46.8999 56.6251 47.0537C56.0825 47.2044 55.5452 47.2417 55.0131 47.1657C54.481 47.0896 53.9693 46.9036 53.4782 46.6074C52.9846 46.3082 52.5392 45.9051 52.142 45.3981C51.7449 44.8911 51.4613 44.3638 51.2914 43.816C51.1189 43.2652 51.0595 42.7223 51.113 42.1874C51.1641 41.6494 51.3277 41.1351 51.6039 40.6444C51.88 40.1537 52.2668 39.7134 52.7643 39.3237C53.2618 38.9339 53.7819 38.6637 54.3244 38.513C54.8701 38.3599 55.4103 38.3229 55.9448 38.4021C56.477 38.4781 56.9898 38.6658 57.4834 38.9651C57.9746 39.2612 58.4187 39.6627 58.8159 40.1697ZM57.876 40.906C57.5503 40.4904 57.2014 40.1617 56.829 39.9198C56.4566 39.678 56.0777 39.5252 55.6923 39.4613C55.3044 39.3942 54.9143 39.4152 54.5221 39.5243C54.13 39.6334 53.7512 39.831 53.386 40.1171C53.0239 40.4008 52.7429 40.72 52.5431 41.0747C52.3434 41.4294 52.228 41.8043 52.1971 42.1994C52.1669 42.589 52.2246 42.9934 52.3703 43.4129C52.516 43.8323 52.7516 44.2498 53.0772 44.6655C53.4028 45.0811 53.7518 45.4098 54.1242 45.6516C54.4941 45.8903 54.873 46.0432 55.2609 46.1102C55.6495 46.1716 56.0399 46.1478 56.4321 46.0387C56.8218 45.9265 57.1977 45.7286 57.5598 45.4449C57.9251 45.1587 58.2088 44.8399 58.4111 44.4884C58.6109 44.1337 58.7259 43.7616 58.7561 43.372C58.7838 42.9794 58.7261 42.5749 58.5829 42.1586C58.4372 41.7392 58.2016 41.3217 57.876 40.906Z"/>
<path d="M70.9791 36.8546L71.4407 37.7168L67.14 40.0189L63.0824 32.4385L64.1034 31.8921L67.6994 38.6102L70.9791 36.8546Z"/>
<path d="M83.3277 28.532C83.5293 29.1436 83.6158 29.7321 83.5874 30.2974C83.5589 30.8627 83.4269 31.3822 83.1913 31.8557C82.9557 32.3293 82.6216 32.7468 82.1891 33.1084C81.7591 33.4649 81.244 33.7421 80.6437 33.94L77.5951 34.9448L74.9035 26.779L77.9522 25.7741C78.5524 25.5763 79.132 25.4947 79.691 25.5295C80.2525 25.5592 80.7694 25.6963 81.2417 25.9407C81.7127 26.1814 82.1277 26.5205 82.4867 26.9581C82.8458 27.3957 83.1261 27.9203 83.3277 28.532ZM82.1937 28.9057C82.0284 28.4043 81.8123 27.9785 81.5453 27.6285C81.2783 27.2785 80.9744 27.0081 80.6335 26.8172C80.2926 26.6263 79.9198 26.5175 79.5151 26.4909C79.1104 26.4642 78.6877 26.5235 78.2471 26.6688L76.3039 27.3092L78.4057 33.6858L80.3488 33.0453C80.7895 32.9001 81.1646 32.6964 81.4741 32.4343C81.7836 32.1723 82.0193 31.8651 82.1811 31.5127C82.3417 31.1565 82.4253 30.7584 82.4318 30.3182C82.4384 29.878 82.359 29.4072 82.1937 28.9057Z"/>
<path d="M99.9395 20.8632L100.772 20.8222L101.327 32.1006L100.494 32.1415L99.9395 20.8632Z"/>
<path d="M109.742 20.8414L110.574 20.8966L109.827 32.1638L108.995 32.1086L109.742 20.8414Z"/>
<path d="M130.03 29.7827C130.345 29.888 130.636 29.9388 130.903 29.9353C131.174 29.933 131.415 29.8851 131.628 29.7917C131.846 29.6958 132.031 29.5574 132.184 29.3767C132.337 29.1959 132.456 28.9803 132.54 28.73C132.713 28.2102 132.688 27.7504 132.463 27.3505C132.242 26.9519 131.805 26.6435 131.153 26.4253L129.844 25.9878L128.722 29.3452L130.03 29.7827ZM131.444 25.5547C131.96 25.7272 132.387 25.9375 132.726 26.1858C133.07 26.4315 133.33 26.7062 133.507 27.0099C133.684 27.3136 133.781 27.6413 133.798 27.993C133.819 28.3459 133.766 28.714 133.638 29.0971C133.511 29.4765 133.329 29.8014 133.091 30.0719C132.852 30.3424 132.566 30.5483 132.232 30.6897C131.902 30.8323 131.526 30.9047 131.103 30.9069C130.686 30.9065 130.231 30.8239 129.737 30.659L128.429 30.2215L127.409 33.2715L126.311 32.9044L129.037 24.75L131.444 25.5547Z"/>
<path d="M142.281 34.6496C142.578 34.8075 142.858 34.9113 143.121 34.961C143.39 35.0091 143.635 35.0082 143.857 34.9584C144.084 34.907 144.285 34.8101 144.46 34.6679C144.636 34.5256 144.782 34.3433 144.901 34.1209C145.142 33.669 145.175 33.2493 145 32.8619C144.826 32.4745 144.442 32.1228 143.849 31.807L142.726 31.2091L141.201 34.0743L142.281 34.6496ZM143.703 40.4301L142.792 39.9451C142.605 39.8455 142.506 39.6998 142.495 39.508L141.968 35.7474C141.953 35.6307 141.92 35.5359 141.868 35.463C141.822 35.3884 141.726 35.3126 141.582 35.2355L140.803 34.821L139.117 37.988L138.095 37.4437L142.136 29.8546L144.28 30.9967C144.761 31.2524 145.149 31.5227 145.446 31.8077C145.745 32.0892 145.958 32.3818 146.087 32.6857C146.218 32.9915 146.269 33.3042 146.24 33.6238C146.212 33.9398 146.112 34.2584 145.941 34.5797C145.798 34.8481 145.623 35.0762 145.414 35.2641C145.205 35.452 144.97 35.5963 144.707 35.6969C144.451 35.7959 144.171 35.8487 143.869 35.8552C143.57 35.8636 143.256 35.8234 142.927 35.7344C143.018 35.8781 143.074 36.046 143.094 36.238L143.703 40.4301Z"/>
<path d="M153.76 46.3502L153.182 47.1016L148.963 43.8972L154.163 37.0501L158.382 40.2545L157.809 41.0094L154.517 38.5091L152.789 40.7835L155.456 42.8084L154.904 43.5347L152.238 41.5097L150.463 43.8462L153.76 46.3502Z"/>
<path d="M166.191 49.4888C166.123 49.5045 166.062 49.5076 166.008 49.4982C165.96 49.4888 165.916 49.4626 165.874 49.4194C165.827 49.3705 165.796 49.2893 165.781 49.1758C165.766 49.0624 165.739 48.9276 165.699 48.7713C165.665 48.6151 165.604 48.4428 165.517 48.2545C165.433 48.0692 165.295 47.8771 165.103 47.6785C164.923 47.4914 164.737 47.3508 164.547 47.2569C164.362 47.163 164.179 47.1088 163.998 47.0942C163.82 47.0825 163.648 47.1091 163.483 47.1741C163.321 47.2362 163.172 47.3325 163.036 47.4631C162.864 47.6297 162.76 47.8103 162.725 48.0048C162.696 48.1995 162.708 48.4048 162.761 48.6208C162.816 48.8396 162.899 49.066 163.008 49.2999C163.122 49.5339 163.237 49.7736 163.351 50.019C163.468 50.2672 163.571 50.518 163.66 50.7714C163.755 51.0248 163.808 51.279 163.82 51.5338C163.836 51.7915 163.796 52.0468 163.7 52.2997C163.608 52.5554 163.434 52.8069 163.178 53.0541C162.907 53.3151 162.608 53.5148 162.28 53.6532C161.955 53.7888 161.619 53.852 161.271 53.8429C160.926 53.8367 160.578 53.7527 160.227 53.5908C159.879 53.4317 159.547 53.1881 159.231 52.8599C158.842 52.4569 158.561 52.0219 158.389 51.5548C158.219 51.085 158.145 50.6141 158.168 50.1421L158.798 50.0006C158.852 49.9931 158.905 49.9955 158.955 50.0077C159.012 50.02 159.059 50.0464 159.098 50.0867C159.134 50.1241 159.159 50.1811 159.171 50.2577C159.19 50.3344 159.205 50.4252 159.217 50.5301C159.23 50.635 159.246 50.7527 159.266 50.8832C159.287 51.0137 159.321 51.1501 159.369 51.2924C159.42 51.4376 159.491 51.5888 159.582 51.746C159.675 51.9005 159.798 52.0569 159.951 52.2152C160.143 52.4138 160.341 52.5645 160.545 52.6672C160.75 52.7699 160.953 52.8273 161.153 52.8394C161.36 52.8516 161.56 52.8198 161.753 52.7441C161.947 52.6684 162.129 52.5486 162.299 52.3848C162.486 52.2043 162.597 52.0139 162.631 51.8137C162.672 51.6135 162.666 51.4055 162.613 51.1896C162.56 50.9736 162.475 50.75 162.358 50.5188C162.243 50.2847 162.126 50.0478 162.006 49.808C161.888 49.5655 161.782 49.3174 161.688 49.064C161.594 48.8105 161.542 48.555 161.532 48.2974C161.523 48.0398 161.568 47.7789 161.669 47.5148C161.776 47.2508 161.966 46.9869 162.239 46.7231C162.458 46.512 162.71 46.3497 162.995 46.236C163.283 46.1252 163.583 46.074 163.897 46.0825C164.214 46.0939 164.534 46.1717 164.856 46.3162C165.182 46.4635 165.493 46.6912 165.79 46.9992C166.124 47.3447 166.372 47.7112 166.534 48.0989C166.7 48.4894 166.783 48.8926 166.784 49.3085L166.191 49.4888Z"/>
<path d="M174.085 59.5252C174.015 59.5303 173.954 59.5241 173.903 59.5065C173.857 59.49 173.816 59.4571 173.782 59.4081C173.743 59.3525 173.724 59.2675 173.727 59.1531C173.73 59.0388 173.723 58.9013 173.708 58.7408C173.699 58.5812 173.665 58.4017 173.608 58.2023C173.553 58.0062 173.446 57.7953 173.287 57.5696C173.137 57.3571 172.976 57.1897 172.802 57.0677C172.633 56.9466 172.461 56.865 172.284 56.8229C172.11 56.784 171.936 56.784 171.763 56.8229C171.593 56.8594 171.431 56.9318 171.278 57.04C171.081 57.1782 170.951 57.3408 170.887 57.5278C170.829 57.7157 170.809 57.9204 170.828 58.1419C170.849 58.3666 170.896 58.6029 170.968 58.8508C171.045 59.0996 171.121 59.354 171.197 59.614C171.275 59.8772 171.338 60.1408 171.387 60.4048C171.441 60.6698 171.455 60.9291 171.428 61.1828C171.404 61.4398 171.325 61.6859 171.193 61.9213C171.062 62.1599 170.852 62.3817 170.56 62.5866C170.253 62.8031 169.927 62.9546 169.582 63.0411C169.24 63.1253 168.898 63.1363 168.555 63.074C168.215 63.015 167.884 62.8786 167.563 62.6649C167.243 62.4544 166.952 62.1628 166.69 61.79C166.367 61.3321 166.157 60.8592 166.058 60.3712C165.962 59.8809 165.961 59.4043 166.056 58.9413L166.701 58.8982C166.755 58.899 166.806 58.9094 166.855 58.9292C166.909 58.95 166.952 58.9833 166.984 59.0291C167.014 59.0716 167.029 59.1317 167.03 59.2094C167.036 59.288 167.038 59.3801 167.034 59.4856C167.03 59.5912 167.028 59.71 167.028 59.842C167.028 59.9741 167.041 60.1141 167.067 60.2622C167.095 60.4135 167.142 60.5738 167.207 60.743C167.276 60.9099 167.374 61.0833 167.5 61.2632C167.659 61.4889 167.832 61.6681 168.018 61.801C168.205 61.9338 168.396 62.0216 168.593 62.0643C168.795 62.1079 168.997 62.1072 169.2 62.0621C169.403 62.0169 169.601 61.9264 169.794 61.7905C170.007 61.6408 170.146 61.4697 170.211 61.2772C170.281 61.0856 170.307 60.8791 170.288 60.6576C170.269 60.4361 170.219 60.2021 170.139 59.9556C170.061 59.7068 169.982 59.4547 169.9 59.1993C169.821 58.9417 169.754 58.6803 169.7 58.4154C169.645 58.1504 169.633 57.89 169.663 57.6339C169.693 57.3779 169.778 57.1272 169.919 56.8817C170.064 56.6371 170.293 56.4054 170.603 56.1866C170.852 56.0116 171.126 55.8898 171.425 55.8211C171.726 55.7557 172.031 55.7512 172.34 55.8077C172.651 55.8674 172.955 55.9934 173.252 56.1856C173.551 56.381 173.824 56.6537 174.07 57.0036C174.346 57.3961 174.535 57.7963 174.637 58.2043C174.74 58.6156 174.761 59.0268 174.698 59.4379L174.085 59.5252Z"/>
<path d="M180.187 78.1502C179.837 77.8222 179.476 77.6081 179.103 77.508C178.731 77.4117 178.368 77.4248 178.012 77.5471C177.766 77.6318 177.564 77.752 177.406 77.9079C177.252 78.0624 177.136 78.2356 177.059 78.4274C176.981 78.6191 176.94 78.8213 176.937 79.0338C176.938 79.2451 176.972 79.449 177.04 79.6457C177.186 80.0693 177.394 80.4227 177.665 80.706C177.937 80.993 178.248 81.2183 178.596 81.3819L180.187 78.1502ZM177.986 84.771L177.648 83.7895C177.61 83.6798 177.593 83.5864 177.596 83.5092C177.599 83.432 177.628 83.3394 177.684 83.2313L178.229 82.1236C177.763 81.8865 177.347 81.5705 176.983 81.1756C176.624 80.7832 176.348 80.309 176.157 79.753C176.053 79.4504 176.002 79.1359 176.003 78.8096C176.007 78.487 176.065 78.1771 176.178 77.88C176.296 77.5816 176.47 77.3142 176.702 77.078C176.934 76.8417 177.225 76.663 177.577 76.5419C177.842 76.4508 178.107 76.4084 178.371 76.4147C178.64 76.4234 178.903 76.4727 179.158 76.5626C179.413 76.6524 179.657 76.7778 179.89 76.9387C180.123 77.0996 180.341 77.2892 180.543 77.5073C180.758 77.175 180.983 76.9072 181.218 76.7038C181.456 76.4991 181.723 76.3459 182.018 76.2444C182.294 76.1493 182.57 76.1093 182.846 76.1244C183.123 76.1432 183.383 76.2165 183.626 76.3444C183.873 76.4711 184.093 76.6511 184.288 76.8845C184.488 77.1203 184.645 77.4066 184.761 77.7432C184.864 78.042 184.909 78.3312 184.895 78.6109C184.885 78.8893 184.831 79.1447 184.734 79.3772C184.636 79.6096 184.499 79.8133 184.322 79.9884C184.15 80.1659 183.954 80.3012 183.732 80.3945L183.391 79.8077C183.317 79.6933 183.344 79.5805 183.471 79.4692C183.56 79.4089 183.647 79.3302 183.732 79.2332C183.819 79.1401 183.889 79.0312 183.943 78.9067C183.999 78.786 184.033 78.6497 184.044 78.4978C184.056 78.3497 184.033 78.1886 183.973 78.0146C183.908 77.8255 183.818 77.6638 183.704 77.5296C183.592 77.3991 183.462 77.2979 183.314 77.226C183.172 77.1566 183.017 77.1189 182.85 77.1129C182.687 77.1056 182.52 77.1313 182.35 77.1899C182.218 77.2354 182.096 77.2942 181.985 77.3661C181.875 77.438 181.768 77.5276 181.665 77.6349C181.564 77.7459 181.467 77.8746 181.373 78.021C181.28 78.1674 181.186 78.3372 181.092 78.5304L179.519 81.686C179.826 81.7412 180.132 81.7648 180.438 81.7567C180.748 81.7474 181.045 81.7084 181.331 81.6399C181.405 81.6227 181.47 81.6259 181.524 81.6494C181.579 81.6729 181.618 81.7186 181.641 81.7867L181.854 82.4051C181.418 82.5511 180.967 82.6301 180.502 82.6422C180.04 82.653 179.583 82.5968 179.13 82.4734L177.986 84.771Z"/>
<path d="M189.482 106.226L180.888 106.486L180.852 105.323L184.763 105.204L184.622 100.569L180.712 100.687L180.677 99.5233L189.271 99.2635L189.306 100.427L185.474 100.543L185.614 105.179L189.446 105.063L189.482 106.226Z"/>
<path d="M183.423 122.629C182.788 122.525 182.22 122.329 181.72 122.04C181.224 121.752 180.815 121.393 180.492 120.964C180.169 120.534 179.943 120.043 179.814 119.491C179.689 118.944 179.677 118.358 179.779 117.734C179.881 117.111 180.079 116.559 180.372 116.08C180.669 115.602 181.039 115.211 181.482 114.906C181.925 114.602 182.428 114.392 182.989 114.277C183.555 114.163 184.156 114.158 184.792 114.262C185.427 114.366 185.993 114.562 186.489 114.849C186.989 115.138 187.4 115.497 187.723 115.927C188.05 116.357 188.278 116.846 188.407 117.394C188.537 117.942 188.55 118.528 188.448 119.152C188.346 119.776 188.147 120.327 187.85 120.805C187.552 121.287 187.18 121.68 186.733 121.984C186.29 122.289 185.785 122.498 185.22 122.612C184.658 122.727 184.059 122.733 183.423 122.629ZM183.616 121.45C184.137 121.535 184.617 121.541 185.054 121.467C185.492 121.392 185.874 121.248 186.201 121.034C186.532 120.821 186.805 120.541 187.019 120.195C187.234 119.849 187.379 119.447 187.454 118.989C187.528 118.535 187.518 118.11 187.425 117.714C187.332 117.318 187.163 116.964 186.918 116.652C186.676 116.345 186.36 116.087 185.968 115.877C185.577 115.667 185.121 115.519 184.6 115.434C184.079 115.349 183.599 115.344 183.162 115.418C182.728 115.493 182.346 115.637 182.015 115.85C181.687 116.068 181.416 116.35 181.202 116.696C180.991 117.043 180.848 117.443 180.774 117.897C180.699 118.355 180.707 118.782 180.796 119.177C180.889 119.574 181.057 119.925 181.298 120.232C181.544 120.54 181.86 120.798 182.248 121.008C182.639 121.218 183.095 121.365 183.616 121.45Z"/>
<path d="M176.721 133.306L175.797 132.985L177.402 128.378L185.521 131.206L185.14 132.3L177.944 129.793L176.721 133.306Z"/>
<path d="M173.274 147.793C172.711 147.48 172.249 147.105 171.887 146.67C171.525 146.235 171.27 145.764 171.123 145.256C170.975 144.748 170.938 144.214 171.012 143.655C171.086 143.102 171.278 142.549 171.585 141.997L173.147 139.192L180.659 143.377L179.096 146.181C178.789 146.733 178.418 147.186 177.983 147.539C177.55 147.897 177.077 148.146 176.564 148.286C176.054 148.428 175.519 148.46 174.959 148.381C174.398 148.303 173.836 148.107 173.274 147.793ZM173.855 146.75C174.316 147.007 174.764 147.174 175.197 147.25C175.631 147.327 176.037 147.32 176.417 147.23C176.797 147.139 177.145 146.967 177.461 146.712C177.777 146.458 178.048 146.128 178.273 145.722L179.269 143.935L173.404 140.668L172.408 142.455C172.182 142.86 172.044 143.264 171.994 143.667C171.944 144.069 171.979 144.455 172.098 144.824C172.221 145.195 172.43 145.544 172.723 145.872C173.016 146.201 173.394 146.493 173.855 146.75Z"/>
<path d="M166.248 164.687L165.663 165.281L157.615 157.36L158.2 156.766L166.248 164.687Z"/>
</mask>
<path d="M44.0744 164.959L43.4996 164.354L51.6812 156.572L52.256 157.176L44.0744 164.959Z" fill="white"/>
<path d="M35.2056 144.639C35.0453 144.348 34.8657 144.113 34.667 143.935C34.4663 143.754 34.2561 143.625 34.0364 143.55C33.8113 143.473 33.5812 143.449 33.3461 143.478C33.1109 143.507 32.8778 143.586 32.6466 143.713C32.1667 143.978 31.874 144.334 31.7685 144.78C31.6611 145.223 31.7735 145.746 32.1058 146.348L32.7722 147.557L35.8721 145.847L35.2056 144.639ZM31.3019 146.791C31.0392 146.315 30.8673 145.871 30.7862 145.459C30.6997 145.045 30.6943 144.667 30.7699 144.324C30.8456 143.98 30.9961 143.673 31.2215 143.403C31.445 143.129 31.7336 142.894 32.0873 142.699C32.4376 142.506 32.7919 142.391 33.1502 142.353C33.5086 142.315 33.8585 142.357 34.2 142.48C34.5396 142.598 34.8655 142.8 35.1778 143.085C35.4846 143.368 35.7636 143.737 36.0147 144.192L36.6812 145.401L39.4973 143.848L40.0565 144.862L32.5276 149.014L31.3019 146.791Z" fill="white"/>
<path d="M29.4898 132.76C29.3786 132.443 29.2429 132.177 29.0827 131.962C28.9174 131.744 28.7364 131.579 28.5398 131.466C28.3381 131.35 28.1246 131.285 27.8992 131.271C27.6738 131.256 27.4422 131.291 27.2044 131.374C26.7213 131.544 26.4126 131.83 26.2785 132.233C26.1443 132.636 26.1885 133.155 26.4109 133.789L26.8319 134.99L29.895 133.915L29.4898 132.76ZM32.3593 127.544L32.7009 128.518C32.771 128.718 32.7453 128.893 32.6236 129.041L30.4635 132.164C30.3954 132.26 30.3558 132.353 30.3445 132.441C30.3281 132.528 30.3471 132.648 30.4014 132.803L30.6933 133.635L34.0791 132.448L34.4623 133.54L26.3489 136.386L25.5446 134.093C25.3646 133.58 25.2619 133.118 25.2365 132.707C25.2073 132.297 25.2485 131.938 25.3601 131.627C25.4703 131.313 25.6446 131.048 25.8828 130.833C26.1173 130.62 26.4063 130.453 26.7498 130.332C27.0367 130.232 27.3206 130.183 27.6014 130.186C27.8823 130.189 28.1533 130.243 28.4142 130.346C28.6701 130.447 28.9115 130.598 29.1386 130.798C29.3643 130.994 29.5679 131.236 29.7495 131.525C29.7798 131.357 29.8526 131.196 29.9678 131.041L32.3593 127.544Z" fill="white"/>
<path d="M28.9706 116.377L29.9048 116.216L30.8381 121.431L22.3746 122.946L21.4413 117.731L22.3745 117.564L23.1027 121.633L25.914 121.13L25.3243 117.834L26.222 117.673L26.8118 120.969L29.6999 120.452L28.9706 116.377Z" fill="white"/>
<path d="M21.9516 105.648C22.0124 105.683 22.0593 105.722 22.0924 105.765C22.1213 105.804 22.1364 105.854 22.1378 105.914C22.1394 105.982 22.1073 106.063 22.0414 106.156C21.9756 106.25 21.9043 106.367 21.8276 106.509C21.7468 106.647 21.6746 106.815 21.6112 107.012C21.5477 107.206 21.5191 107.441 21.5256 107.717C21.5316 107.976 21.5729 108.206 21.6496 108.404C21.7221 108.598 21.8199 108.762 21.9431 108.895C22.0661 109.024 22.2104 109.121 22.3759 109.185C22.5374 109.249 22.7122 109.279 22.9001 109.275C23.1401 109.269 23.3387 109.207 23.4959 109.087C23.6491 108.964 23.7794 108.804 23.887 108.61C23.9944 108.411 24.0872 108.189 24.1655 107.943C24.2398 107.693 24.3179 107.44 24.3999 107.182C24.4818 106.92 24.576 106.665 24.6823 106.419C24.7845 106.168 24.9173 105.945 25.0808 105.749C25.2442 105.55 25.4465 105.389 25.6878 105.267C25.9289 105.142 26.2274 105.075 26.5833 105.066C26.9592 105.058 27.3146 105.113 27.6495 105.234C27.9804 105.354 28.2707 105.535 28.5204 105.777C28.77 106.016 28.969 106.313 29.1173 106.67C29.2655 107.022 29.3449 107.427 29.3555 107.883C29.3685 108.442 29.2804 108.953 29.091 109.413C28.8977 109.874 28.6328 110.27 28.2964 110.602L27.7368 110.279C27.692 110.248 27.6552 110.211 27.6262 110.167C27.593 110.12 27.5758 110.069 27.5745 110.013C27.5733 109.961 27.594 109.902 27.6365 109.837C27.6749 109.768 27.7251 109.691 27.7871 109.606C27.8492 109.52 27.9169 109.422 27.9904 109.313C28.0639 109.203 28.131 109.079 28.1918 108.942C28.2526 108.801 28.3029 108.641 28.3428 108.464C28.3787 108.287 28.3941 108.089 28.389 107.869C28.3825 107.593 28.3388 107.348 28.2578 107.134C28.1768 106.92 28.0666 106.74 27.9272 106.595C27.7837 106.447 27.6151 106.335 27.4213 106.259C27.2275 106.184 27.0126 106.149 26.7767 106.154C26.5167 106.16 26.3062 106.225 26.145 106.349C25.9798 106.469 25.8434 106.626 25.7359 106.82C25.6284 107.015 25.5395 107.237 25.4693 107.487C25.3951 107.737 25.3209 107.99 25.2469 108.248C25.1689 108.506 25.0788 108.76 24.9766 109.011C24.8744 109.261 24.7395 109.484 24.572 109.68C24.4045 109.876 24.1942 110.037 23.9411 110.163C23.6838 110.285 23.3653 110.35 22.9854 110.359C22.6814 110.366 22.3862 110.315 22.0996 110.206C21.8128 110.093 21.5569 109.926 21.3318 109.708C21.1065 109.485 20.9241 109.211 20.7845 108.886C20.6449 108.557 20.57 108.179 20.5601 107.751C20.5489 107.271 20.6148 106.833 20.7576 106.438C20.9004 106.039 21.1123 105.686 21.3932 105.379L21.9516 105.648Z" fill="white"/>
<path d="M22.9429 92.918C22.9977 92.9615 23.0381 93.0071 23.0641 93.0549C23.0866 93.0982 23.094 93.1496 23.0862 93.2091C23.0773 93.2765 23.0332 93.3514 22.9538 93.4338C22.8744 93.5162 22.7859 93.6215 22.6884 93.7499C22.5874 93.8738 22.4904 94.0285 22.3974 94.214C22.305 94.3955 22.2408 94.6231 22.2049 94.8967C22.171 95.1545 22.1768 95.3872 22.2221 95.5949C22.264 95.7981 22.3356 95.9749 22.4368 96.1254C22.5386 96.2719 22.6664 96.3895 22.8201 96.4783C22.9699 96.5666 23.138 96.6229 23.3244 96.6474C23.5624 96.6787 23.7682 96.6472 23.942 96.5531C24.1123 96.4544 24.2654 96.3172 24.4015 96.1414C24.5381 95.9617 24.6639 95.7563 24.7789 95.5253C24.8906 95.2898 25.0067 95.0509 25.1273 94.8086C25.2484 94.5622 25.3803 94.3254 25.5232 94.0981C25.6625 93.8663 25.828 93.6661 26.0196 93.4976C26.2117 93.3252 26.4362 93.1973 26.6933 93.1141C26.9508 93.0269 27.2561 93.0065 27.6091 93.0528C27.9819 93.1018 28.3245 93.2114 28.637 93.3815C28.9455 93.5511 29.2046 93.7748 29.4142 94.0524C29.6244 94.3261 29.7754 94.6506 29.8673 95.0257C29.9598 95.3969 29.9763 95.8086 29.9169 96.2607C29.844 96.8159 29.6787 97.3066 29.421 97.7327C29.1594 98.1582 28.8369 98.5092 28.4536 98.7856L27.9501 98.3806C27.9106 98.3432 27.8799 98.3008 27.8579 98.2535C27.8324 98.2018 27.8233 98.1481 27.8306 98.0926C27.8374 98.041 27.8667 97.9864 27.9187 97.9287C27.9672 97.8665 28.0287 97.7979 28.103 97.7229C28.1774 97.648 28.2593 97.5619 28.3488 97.4647C28.4382 97.3676 28.5235 97.2557 28.6046 97.1292C28.6863 96.9987 28.7605 96.8491 28.827 96.6803C28.8896 96.5111 28.9352 96.3173 28.9638 96.0992C28.9998 95.8256 28.9942 95.5767 28.9469 95.3527C28.8997 95.1286 28.8183 94.9343 28.7027 94.7699C28.5837 94.601 28.4343 94.4643 28.2543 94.36C28.0744 94.2557 27.8674 94.1881 27.6334 94.1574C27.3756 94.1235 27.1576 94.1554 26.9794 94.253C26.7977 94.3462 26.6388 94.4806 26.5028 94.6564C26.3667 94.8322 26.2449 95.0381 26.1372 95.2741C26.0256 95.5095 25.9135 95.749 25.8008 95.9924C25.6842 96.2353 25.5562 96.4726 25.4168 96.7044C25.2774 96.9362 25.11 97.1361 24.9144 97.3041C24.7189 97.4721 24.4864 97.5989 24.217 97.6845C23.9441 97.7657 23.6192 97.7815 23.2425 97.732C22.9411 97.6924 22.6571 97.5966 22.3906 97.4446C22.1247 97.2886 21.8972 97.0853 21.7083 96.8345C21.5199 96.5798 21.3816 96.2813 21.2934 95.9389C21.2058 95.5925 21.1898 95.2072 21.2456 94.7828C21.3081 94.3069 21.4402 93.8845 21.642 93.5156C21.8442 93.1428 22.1077 92.8264 22.4323 92.5665L22.9429 92.918Z" fill="white"/>
<path d="M31.0695 75.083C31.1046 75.5613 31.2254 75.9635 31.432 76.2897C31.6401 76.6122 31.9163 76.8489 32.2608 76.9997C32.499 77.104 32.7289 77.1522 32.9506 77.1445C33.1687 77.1352 33.3713 77.0863 33.5584 76.998C33.7456 76.9096 33.9122 76.7882 34.0584 76.6339C34.2009 76.478 34.3138 76.3047 34.3973 76.1142C34.5769 75.7038 34.663 75.3027 34.6556 74.9108C34.6497 74.5152 34.5741 74.1393 34.4288 73.7831L31.0695 75.083ZM37.1733 71.7032L36.757 72.6541C36.7105 72.7604 36.6599 72.8409 36.6054 72.8956C36.5509 72.9503 36.4665 72.9985 36.3522 73.0402L35.2008 73.4858C35.3835 73.9762 35.4751 74.4901 35.4756 75.0274C35.4741 75.5595 35.3554 76.0948 35.1196 76.6335C34.9913 76.9266 34.8159 77.1926 34.5934 77.4314C34.3726 77.6666 34.1198 77.855 33.8351 77.9967C33.5467 78.1369 33.2372 78.2153 32.9067 78.2322C32.5762 78.2491 32.2406 78.1829 31.8998 78.0337C31.6433 77.9214 31.4199 77.7734 31.2296 77.5897C31.0373 77.4007 30.8777 77.1867 30.7509 76.9478C30.624 76.7089 30.5294 76.4513 30.4669 76.1751C30.4045 75.8988 30.3728 75.6121 30.372 75.3148C29.9883 75.4132 29.6413 75.4577 29.331 75.4485C29.0169 75.4376 28.717 75.3697 28.4312 75.2445C28.1637 75.1274 27.9336 74.9699 27.7408 74.772C27.5496 74.5704 27.408 74.3403 27.316 74.0817C27.2203 73.8214 27.1799 73.5396 27.1949 73.2361C27.2078 72.9274 27.2856 72.61 27.4284 72.2838C27.5552 71.9944 27.7183 71.7514 27.9178 71.5549C28.1137 71.3569 28.3263 71.2054 28.5556 71.1006C28.7849 70.9957 29.0238 70.9387 29.2723 70.9296C29.5187 70.9153 29.7551 70.9489 29.9814 71.0305L29.8352 71.6935C29.8116 71.8273 29.7155 71.8922 29.5469 71.8882C29.4404 71.8722 29.323 71.871 29.1948 71.8847C29.0681 71.8948 28.9426 71.9271 28.8182 71.9819C28.6954 72.0329 28.5785 72.1105 28.4674 72.2147C28.3579 72.3152 28.2662 72.4498 28.1924 72.6183C28.1122 72.8015 28.0685 72.9811 28.0614 73.157C28.0558 73.3292 28.0829 73.4917 28.1427 73.6445C28.2004 73.792 28.2886 73.9245 28.4075 74.0421C28.5227 74.158 28.6627 74.252 28.8276 74.3242C28.9558 74.3804 29.085 74.4195 29.2151 74.4415C29.3452 74.4635 29.4843 74.4698 29.6325 74.4605C29.7823 74.4475 29.9411 74.4188 30.109 74.3744C30.2769 74.33 30.461 74.2686 30.6612 74.1904L33.9555 72.9341C33.7673 72.6858 33.5579 72.4609 33.3273 72.2595C33.0931 72.0565 32.8478 71.8837 32.5916 71.7409C32.5251 71.7031 32.4798 71.6571 32.4555 71.6028C32.4313 71.5485 32.4336 71.4884 32.4625 71.4224L32.7247 70.8233C33.1445 71.0115 33.5297 71.2587 33.8803 71.565C34.2272 71.8697 34.5254 72.2208 34.775 72.6182L37.1733 71.7032Z" fill="white"/>
<path d="M43.2489 48.1326L49.7472 53.7627L48.985 54.6425L46.0284 52.0808L42.9913 55.5862L45.948 58.1478L45.1857 59.0275L38.6875 53.3974L39.4497 52.5177L42.3474 55.0283L45.3844 51.5229L42.4867 49.0123L43.2489 48.1326Z" fill="white"/>
<path d="M58.8159 40.1697C59.213 40.6766 59.4978 41.2056 59.6703 41.7565C59.8402 42.3042 59.8984 42.8455 59.8449 43.3803C59.7913 43.9152 59.6249 44.4292 59.3456 44.9224C59.067 45.41 58.679 45.8486 58.1815 46.2384C57.684 46.6281 57.1652 46.8999 56.6251 47.0537C56.0825 47.2044 55.5452 47.2417 55.0131 47.1657C54.481 47.0896 53.9693 46.9036 53.4782 46.6074C52.9846 46.3082 52.5392 45.9051 52.142 45.3981C51.7449 44.8911 51.4613 44.3638 51.2914 43.816C51.1189 43.2652 51.0595 42.7223 51.113 42.1874C51.1641 41.6494 51.3277 41.1351 51.6039 40.6444C51.88 40.1537 52.2668 39.7134 52.7643 39.3237C53.2618 38.9339 53.7819 38.6637 54.3244 38.513C54.8701 38.3599 55.4103 38.3229 55.9448 38.4021C56.477 38.4781 56.9898 38.6658 57.4834 38.9651C57.9746 39.2612 58.4187 39.6627 58.8159 40.1697ZM57.876 40.906C57.5503 40.4904 57.2014 40.1617 56.829 39.9198C56.4566 39.678 56.0777 39.5252 55.6923 39.4613C55.3044 39.3942 54.9143 39.4152 54.5221 39.5243C54.13 39.6334 53.7512 39.831 53.386 40.1171C53.0239 40.4008 52.7429 40.72 52.5431 41.0747C52.3434 41.4294 52.228 41.8043 52.1971 42.1994C52.1669 42.589 52.2246 42.9934 52.3703 43.4129C52.516 43.8323 52.7516 44.2498 53.0772 44.6655C53.4028 45.0811 53.7518 45.4098 54.1242 45.6516C54.4941 45.8903 54.873 46.0432 55.2609 46.1102C55.6495 46.1716 56.0399 46.1478 56.4321 46.0387C56.8218 45.9265 57.1977 45.7286 57.5598 45.4449C57.9251 45.1587 58.2088 44.8399 58.4111 44.4884C58.6109 44.1337 58.7259 43.7616 58.7561 43.372C58.7838 42.9794 58.7261 42.5749 58.5829 42.1586C58.4372 41.7392 58.2016 41.3217 57.876 40.906Z" fill="white"/>
<path d="M70.9791 36.8546L71.4407 37.7168L67.14 40.0189L63.0824 32.4385L64.1034 31.8921L67.6994 38.6102L70.9791 36.8546Z" fill="white"/>
<path d="M83.3277 28.532C83.5293 29.1436 83.6158 29.7321 83.5874 30.2974C83.5589 30.8627 83.4269 31.3822 83.1913 31.8557C82.9557 32.3293 82.6216 32.7468 82.1891 33.1084C81.7591 33.4649 81.244 33.7421 80.6437 33.94L77.5951 34.9448L74.9035 26.779L77.9522 25.7741C78.5524 25.5763 79.132 25.4947 79.691 25.5295C80.2525 25.5592 80.7694 25.6963 81.2417 25.9407C81.7127 26.1814 82.1277 26.5205 82.4867 26.9581C82.8458 27.3957 83.1261 27.9203 83.3277 28.532ZM82.1937 28.9057C82.0284 28.4043 81.8123 27.9785 81.5453 27.6285C81.2783 27.2785 80.9744 27.0081 80.6335 26.8172C80.2926 26.6263 79.9198 26.5175 79.5151 26.4909C79.1104 26.4642 78.6877 26.5235 78.2471 26.6688L76.3039 27.3092L78.4057 33.6858L80.3488 33.0453C80.7895 32.9001 81.1646 32.6964 81.4741 32.4343C81.7836 32.1723 82.0193 31.8651 82.1811 31.5127C82.3417 31.1565 82.4253 30.7584 82.4318 30.3182C82.4384 29.878 82.359 29.4072 82.1937 28.9057Z" fill="white"/>
<path d="M99.9395 20.8632L100.772 20.8222L101.327 32.1006L100.494 32.1415L99.9395 20.8632Z" fill="white"/>
<path d="M109.742 20.8414L110.574 20.8966L109.827 32.1638L108.995 32.1086L109.742 20.8414Z" fill="white"/>
<path d="M130.03 29.7827C130.345 29.888 130.636 29.9388 130.903 29.9353C131.174 29.933 131.415 29.8851 131.628 29.7917C131.846 29.6958 132.031 29.5574 132.184 29.3767C132.337 29.1959 132.456 28.9803 132.54 28.73C132.713 28.2102 132.688 27.7504 132.463 27.3505C132.242 26.9519 131.805 26.6435 131.153 26.4253L129.844 25.9878L128.722 29.3452L130.03 29.7827ZM131.444 25.5547C131.96 25.7272 132.387 25.9375 132.726 26.1858C133.07 26.4315 133.33 26.7062 133.507 27.0099C133.684 27.3136 133.781 27.6413 133.798 27.993C133.819 28.3459 133.766 28.714 133.638 29.0971C133.511 29.4765 133.329 29.8014 133.091 30.0719C132.852 30.3424 132.566 30.5483 132.232 30.6897C131.902 30.8323 131.526 30.9047 131.103 30.9069C130.686 30.9065 130.231 30.8239 129.737 30.659L128.429 30.2215L127.409 33.2715L126.311 32.9044L129.037 24.75L131.444 25.5547Z" fill="white"/>
<path d="M142.281 34.6496C142.578 34.8075 142.858 34.9113 143.121 34.961C143.39 35.0091 143.635 35.0082 143.857 34.9584C144.084 34.907 144.285 34.8101 144.46 34.6679C144.636 34.5256 144.782 34.3433 144.901 34.1209C145.142 33.669 145.175 33.2493 145 32.8619C144.826 32.4745 144.442 32.1228 143.849 31.807L142.726 31.2091L141.201 34.0743L142.281 34.6496ZM143.703 40.4301L142.792 39.9451C142.605 39.8455 142.506 39.6998 142.495 39.508L141.968 35.7474C141.953 35.6307 141.92 35.5359 141.868 35.463C141.822 35.3884 141.726 35.3126 141.582 35.2355L140.803 34.821L139.117 37.988L138.095 37.4437L142.136 29.8546L144.28 30.9967C144.761 31.2524 145.149 31.5227 145.446 31.8077C145.745 32.0892 145.958 32.3818 146.087 32.6857C146.218 32.9915 146.269 33.3042 146.24 33.6238C146.212 33.9398 146.112 34.2584 145.941 34.5797C145.798 34.8481 145.623 35.0762 145.414 35.2641C145.205 35.452 144.97 35.5963 144.707 35.6969C144.451 35.7959 144.171 35.8487 143.869 35.8552C143.57 35.8636 143.256 35.8234 142.927 35.7344C143.018 35.8781 143.074 36.046 143.094 36.238L143.703 40.4301Z" fill="white"/>
<path d="M153.76 46.3502L153.182 47.1016L148.963 43.8972L154.163 37.0501L158.382 40.2545L157.809 41.0094L154.517 38.5091L152.789 40.7835L155.456 42.8084L154.904 43.5347L152.238 41.5097L150.463 43.8462L153.76 46.3502Z" fill="white"/>
<path d="M166.191 49.4888C166.123 49.5045 166.062 49.5076 166.008 49.4982C165.96 49.4888 165.916 49.4626 165.874 49.4194C165.827 49.3705 165.796 49.2893 165.781 49.1758C165.766 49.0624 165.739 48.9276 165.699 48.7713C165.665 48.6151 165.604 48.4428 165.517 48.2545C165.433 48.0692 165.295 47.8771 165.103 47.6785C164.923 47.4914 164.737 47.3508 164.547 47.2569C164.362 47.163 164.179 47.1088 163.998 47.0942C163.82 47.0825 163.648 47.1091 163.483 47.1741C163.321 47.2362 163.172 47.3325 163.036 47.4631C162.864 47.6297 162.76 47.8103 162.725 48.0048C162.696 48.1995 162.708 48.4048 162.761 48.6208C162.816 48.8396 162.899 49.066 163.008 49.2999C163.122 49.5339 163.237 49.7736 163.351 50.019C163.468 50.2672 163.571 50.518 163.66 50.7714C163.755 51.0248 163.808 51.279 163.82 51.5338C163.836 51.7915 163.796 52.0468 163.7 52.2997C163.608 52.5554 163.434 52.8069 163.178 53.0541C162.907 53.3151 162.608 53.5148 162.28 53.6532C161.955 53.7888 161.619 53.852 161.271 53.8429C160.926 53.8367 160.578 53.7527 160.227 53.5908C159.879 53.4317 159.547 53.1881 159.231 52.8599C158.842 52.4569 158.561 52.0219 158.389 51.5548C158.219 51.085 158.145 50.6141 158.168 50.1421L158.798 50.0006C158.852 49.9931 158.905 49.9955 158.955 50.0077C159.012 50.02 159.059 50.0464 159.098 50.0867C159.134 50.1241 159.159 50.1811 159.171 50.2577C159.19 50.3344 159.205 50.4252 159.217 50.5301C159.23 50.635 159.246 50.7527 159.266 50.8832C159.287 51.0137 159.321 51.1501 159.369 51.2924C159.42 51.4376 159.491 51.5888 159.582 51.746C159.675 51.9005 159.798 52.0569 159.951 52.2152C160.143 52.4138 160.341 52.5645 160.545 52.6672C160.75 52.7699 160.953 52.8273 161.153 52.8394C161.36 52.8516 161.56 52.8198 161.753 52.7441C161.947 52.6684 162.129 52.5486 162.299 52.3848C162.486 52.2043 162.597 52.0139 162.631 51.8137C162.672 51.6135 162.666 51.4055 162.613 51.1896C162.56 50.9736 162.475 50.75 162.358 50.5188C162.243 50.2847 162.126 50.0478 162.006 49.808C161.888 49.5655 161.782 49.3174 161.688 49.064C161.594 48.8105 161.542 48.555 161.532 48.2974C161.523 48.0398 161.568 47.7789 161.669 47.5148C161.776 47.2508 161.966 46.9869 162.239 46.7231C162.458 46.512 162.71 46.3497 162.995 46.236C163.283 46.1252 163.583 46.074 163.897 46.0825C164.214 46.0939 164.534 46.1717 164.856 46.3162C165.182 46.4635 165.493 46.6912 165.79 46.9992C166.124 47.3447 166.372 47.7112 166.534 48.0989C166.7 48.4894 166.783 48.8926 166.784 49.3085L166.191 49.4888Z" fill="white"/>
<path d="M174.085 59.5252C174.015 59.5303 173.954 59.5241 173.903 59.5065C173.857 59.49 173.816 59.4571 173.782 59.4081C173.743 59.3525 173.724 59.2675 173.727 59.1531C173.73 59.0388 173.723 58.9013 173.708 58.7408C173.699 58.5812 173.665 58.4017 173.608 58.2023C173.553 58.0062 173.446 57.7953 173.287 57.5696C173.137 57.3571 172.976 57.1897 172.802 57.0677C172.633 56.9466 172.461 56.865 172.284 56.8229C172.11 56.784 171.936 56.784 171.763 56.8229C171.593 56.8594 171.431 56.9318 171.278 57.04C171.081 57.1782 170.951 57.3408 170.887 57.5278C170.829 57.7157 170.809 57.9204 170.828 58.1419C170.849 58.3666 170.896 58.6029 170.968 58.8508C171.045 59.0996 171.121 59.354 171.197 59.614C171.275 59.8772 171.338 60.1408 171.387 60.4048C171.441 60.6698 171.455 60.9291 171.428 61.1828C171.404 61.4398 171.325 61.6859 171.193 61.9213C171.062 62.1599 170.852 62.3817 170.56 62.5866C170.253 62.8031 169.927 62.9546 169.582 63.0411C169.24 63.1253 168.898 63.1363 168.555 63.074C168.215 63.015 167.884 62.8786 167.563 62.6649C167.243 62.4544 166.952 62.1628 166.69 61.79C166.367 61.3321 166.157 60.8592 166.058 60.3712C165.962 59.8809 165.961 59.4043 166.056 58.9413L166.701 58.8982C166.755 58.899 166.806 58.9094 166.855 58.9292C166.909 58.95 166.952 58.9833 166.984 59.0291C167.014 59.0716 167.029 59.1317 167.03 59.2094C167.036 59.288 167.038 59.3801 167.034 59.4856C167.03 59.5912 167.028 59.71 167.028 59.842C167.028 59.9741 167.041 60.1141 167.067 60.2622C167.095 60.4135 167.142 60.5738 167.207 60.743C167.276 60.9099 167.374 61.0833 167.5 61.2632C167.659 61.4889 167.832 61.6681 168.018 61.801C168.205 61.9338 168.396 62.0216 168.593 62.0643C168.795 62.1079 168.997 62.1072 169.2 62.0621C169.403 62.0169 169.601 61.9264 169.794 61.7905C170.007 61.6408 170.146 61.4697 170.211 61.2772C170.281 61.0856 170.307 60.8791 170.288 60.6576C170.269 60.4361 170.219 60.2021 170.139 59.9556C170.061 59.7068 169.982 59.4547 169.9 59.1993C169.821 58.9417 169.754 58.6803 169.7 58.4154C169.645 58.1504 169.633 57.89 169.663 57.6339C169.693 57.3779 169.778 57.1272 169.919 56.8817C170.064 56.6371 170.293 56.4054 170.603 56.1866C170.852 56.0116 171.126 55.8898 171.425 55.8211C171.726 55.7557 172.031 55.7512 172.34 55.8077C172.651 55.8674 172.955 55.9934 173.252 56.1856C173.551 56.381 173.824 56.6537 174.07 57.0036C174.346 57.3961 174.535 57.7963 174.637 58.2043C174.74 58.6156 174.761 59.0268 174.698 59.4379L174.085 59.5252Z" fill="white"/>
<path d="M180.187 78.1502C179.837 77.8222 179.476 77.6081 179.103 77.508C178.731 77.4117 178.368 77.4248 178.012 77.5471C177.766 77.6318 177.564 77.752 177.406 77.9079C177.252 78.0624 177.136 78.2356 177.059 78.4274C176.981 78.6191 176.94 78.8213 176.937 79.0338C176.938 79.2451 176.972 79.449 177.04 79.6457C177.186 80.0693 177.394 80.4227 177.665 80.706C177.937 80.993 178.248 81.2183 178.596 81.3819L180.187 78.1502ZM177.986 84.771L177.648 83.7895C177.61 83.6798 177.593 83.5864 177.596 83.5092C177.599 83.432 177.628 83.3394 177.684 83.2313L178.229 82.1236C177.763 81.8865 177.347 81.5705 176.983 81.1756C176.624 80.7832 176.348 80.309 176.157 79.753C176.053 79.4504 176.002 79.1359 176.003 78.8096C176.007 78.487 176.065 78.1771 176.178 77.88C176.296 77.5816 176.47 77.3142 176.702 77.078C176.934 76.8417 177.225 76.663 177.577 76.5419C177.842 76.4508 178.107 76.4084 178.371 76.4147C178.64 76.4234 178.903 76.4727 179.158 76.5626C179.413 76.6524 179.657 76.7778 179.89 76.9387C180.123 77.0996 180.341 77.2892 180.543 77.5073C180.758 77.175 180.983 76.9072 181.218 76.7038C181.456 76.4991 181.723 76.3459 182.018 76.2444C182.294 76.1493 182.57 76.1093 182.846 76.1244C183.123 76.1432 183.383 76.2165 183.626 76.3444C183.873 76.4711 184.093 76.6511 184.288 76.8845C184.488 77.1203 184.645 77.4066 184.761 77.7432C184.864 78.042 184.909 78.3312 184.895 78.6109C184.885 78.8893 184.831 79.1447 184.734 79.3772C184.636 79.6096 184.499 79.8133 184.322 79.9884C184.15 80.1659 183.954 80.3012 183.732 80.3945L183.391 79.8077C183.317 79.6933 183.344 79.5805 183.471 79.4692C183.56 79.4089 183.647 79.3302 183.732 79.2332C183.819 79.1401 183.889 79.0312 183.943 78.9067C183.999 78.786 184.033 78.6497 184.044 78.4978C184.056 78.3497 184.033 78.1886 183.973 78.0146C183.908 77.8255 183.818 77.6638 183.704 77.5296C183.592 77.3991 183.462 77.2979 183.314 77.226C183.172 77.1566 183.017 77.1189 182.85 77.1129C182.687 77.1056 182.52 77.1313 182.35 77.1899C182.218 77.2354 182.096 77.2942 181.985 77.3661C181.875 77.438 181.768 77.5276 181.665 77.6349C181.564 77.7459 181.467 77.8746 181.373 78.021C181.28 78.1674 181.186 78.3372 181.092 78.5304L179.519 81.686C179.826 81.7412 180.132 81.7648 180.438 81.7567C180.748 81.7474 181.045 81.7084 181.331 81.6399C181.405 81.6227 181.47 81.6259 181.524 81.6494C181.579 81.6729 181.618 81.7186 181.641 81.7867L181.854 82.4051C181.418 82.5511 180.967 82.6301 180.502 82.6422C180.04 82.653 179.583 82.5968 179.13 82.4734L177.986 84.771Z" fill="white"/>
<path d="M189.482 106.226L180.888 106.486L180.852 105.323L184.763 105.204L184.622 100.569L180.712 100.687L180.677 99.5233L189.271 99.2635L189.306 100.427L185.474 100.543L185.614 105.179L189.446 105.063L189.482 106.226Z" fill="white"/>
<path d="M183.423 122.629C182.788 122.525 182.22 122.329 181.72 122.04C181.224 121.752 180.815 121.393 180.492 120.964C180.169 120.534 179.943 120.043 179.814 119.491C179.689 118.944 179.677 118.358 179.779 117.734C179.881 117.111 180.079 116.559 180.372 116.08C180.669 115.602 181.039 115.211 181.482 114.906C181.925 114.602 182.428 114.392 182.989 114.277C183.555 114.163 184.156 114.158 184.792 114.262C185.427 114.366 185.993 114.562 186.489 114.849C186.989 115.138 187.4 115.497 187.723 115.927C188.05 116.357 188.278 116.846 188.407 117.394C188.537 117.942 188.55 118.528 188.448 119.152C188.346 119.776 188.147 120.327 187.85 120.805C187.552 121.287 187.18 121.68 186.733 121.984C186.29 122.289 185.785 122.498 185.22 122.612C184.658 122.727 184.059 122.733 183.423 122.629ZM183.616 121.45C184.137 121.535 184.617 121.541 185.054 121.467C185.492 121.392 185.874 121.248 186.201 121.034C186.532 120.821 186.805 120.541 187.019 120.195C187.234 119.849 187.379 119.447 187.454 118.989C187.528 118.535 187.518 118.11 187.425 117.714C187.332 117.318 187.163 116.964 186.918 116.652C186.676 116.345 186.36 116.087 185.968 115.877C185.577 115.667 185.121 115.519 184.6 115.434C184.079 115.349 183.599 115.344 183.162 115.418C182.728 115.493 182.346 115.637 182.015 115.85C181.687 116.068 181.416 116.35 181.202 116.696C180.991 117.043 180.848 117.443 180.774 117.897C180.699 118.355 180.707 118.782 180.796 119.177C180.889 119.574 181.057 119.925 181.298 120.232C181.544 120.54 181.86 120.798 182.248 121.008C182.639 121.218 183.095 121.365 183.616 121.45Z" fill="white"/>
<path d="M176.721 133.306L175.797 132.985L177.402 128.378L185.521 131.206L185.14 132.3L177.944 129.793L176.721 133.306Z" fill="white"/>
<path d="M173.274 147.793C172.711 147.48 172.249 147.105 171.887 146.67C171.525 146.235 171.27 145.764 171.123 145.256C170.975 144.748 170.938 144.214 171.012 143.655C171.086 143.102 171.278 142.549 171.585 141.997L173.147 139.192L180.659 143.377L179.096 146.181C178.789 146.733 178.418 147.186 177.983 147.539C177.55 147.897 177.077 148.146 176.564 148.286C176.054 148.428 175.519 148.46 174.959 148.381C174.398 148.303 173.836 148.107 173.274 147.793ZM173.855 146.75C174.316 147.007 174.764 147.174 175.197 147.25C175.631 147.327 176.037 147.32 176.417 147.23C176.797 147.139 177.145 146.967 177.461 146.712C177.777 146.458 178.048 146.128 178.273 145.722L179.269 143.935L173.404 140.668L172.408 142.455C172.182 142.86 172.044 143.264 171.994 143.667C171.944 144.069 171.979 144.455 172.098 144.824C172.221 145.195 172.43 145.544 172.723 145.872C173.016 146.201 173.394 146.493 173.855 146.75Z" fill="white"/>
<path d="M166.248 164.687L165.663 165.281L157.615 157.36L158.2 156.766L166.248 164.687Z" fill="white"/>
<path d="M44.0744 164.959L43.4996 164.354L51.6812 156.572L52.256 157.176L44.0744 164.959Z" stroke="white" mask="url(#path-2-outside-1_315_405)"/>
<path d="M35.2056 144.639C35.0453 144.348 34.8657 144.113 34.667 143.935C34.4663 143.754 34.2561 143.625 34.0364 143.55C33.8113 143.473 33.5812 143.449 33.3461 143.478C33.1109 143.507 32.8778 143.586 32.6466 143.713C32.1667 143.978 31.874 144.334 31.7685 144.78C31.6611 145.223 31.7735 145.746 32.1058 146.348L32.7722 147.557L35.8721 145.847L35.2056 144.639ZM31.3019 146.791C31.0392 146.315 30.8673 145.871 30.7862 145.459C30.6997 145.045 30.6943 144.667 30.7699 144.324C30.8456 143.98 30.9961 143.673 31.2215 143.403C31.445 143.129 31.7336 142.894 32.0873 142.699C32.4376 142.506 32.7919 142.391 33.1502 142.353C33.5086 142.315 33.8585 142.357 34.2 142.48C34.5396 142.598 34.8655 142.8 35.1778 143.085C35.4846 143.368 35.7636 143.737 36.0147 144.192L36.6812 145.401L39.4973 143.848L40.0565 144.862L32.5276 149.014L31.3019 146.791Z" stroke="white" mask="url(#path-2-outside-1_315_405)"/>
<path d="M29.4898 132.76C29.3786 132.443 29.2429 132.177 29.0827 131.962C28.9174 131.744 28.7364 131.579 28.5398 131.466C28.3381 131.35 28.1246 131.285 27.8992 131.271C27.6738 131.256 27.4422 131.291 27.2044 131.374C26.7213 131.544 26.4126 131.83 26.2785 132.233C26.1443 132.636 26.1885 133.155 26.4109 133.789L26.8319 134.99L29.895 133.915L29.4898 132.76ZM32.3593 127.544L32.7009 128.518C32.771 128.718 32.7453 128.893 32.6236 129.041L30.4635 132.164C30.3954 132.26 30.3558 132.353 30.3445 132.441C30.3281 132.528 30.3471 132.648 30.4014 132.803L30.6933 133.635L34.0791 132.448L34.4623 133.54L26.3489 136.386L25.5446 134.093C25.3646 133.58 25.2619 133.118 25.2365 132.707C25.2073 132.297 25.2485 131.938 25.3601 131.627C25.4703 131.313 25.6446 131.048 25.8828 130.833C26.1173 130.62 26.4063 130.453 26.7498 130.332C27.0367 130.232 27.3206 130.183 27.6014 130.186C27.8823 130.189 28.1533 130.243 28.4142 130.346C28.6701 130.447 28.9115 130.598 29.1386 130.798C29.3643 130.994 29.5679 131.236 29.7495 131.525C29.7798 131.357 29.8526 131.196 29.9678 131.041L32.3593 127.544Z" stroke="white" mask="url(#path-2-outside-1_315_405)"/>
<path d="M28.9706 116.377L29.9048 116.216L30.8381 121.431L22.3746 122.946L21.4413 117.731L22.3745 117.564L23.1027 121.633L25.914 121.13L25.3243 117.834L26.222 117.673L26.8118 120.969L29.6999 120.452L28.9706 116.377Z" stroke="white" mask="url(#path-2-outside-1_315_405)"/>
<path d="M21.9516 105.648C22.0124 105.683 22.0593 105.722 22.0924 105.765C22.1213 105.804 22.1364 105.854 22.1378 105.914C22.1394 105.982 22.1073 106.063 22.0414 106.156C21.9756 106.25 21.9043 106.367 21.8276 106.509C21.7468 106.647 21.6746 106.815 21.6112 107.012C21.5477 107.206 21.5191 107.441 21.5256 107.717C21.5316 107.976 21.5729 108.206 21.6496 108.404C21.7221 108.598 21.8199 108.762 21.9431 108.895C22.0661 109.024 22.2104 109.121 22.3759 109.185C22.5374 109.249 22.7122 109.279 22.9001 109.275C23.1401 109.269 23.3387 109.207 23.4959 109.087C23.6491 108.964 23.7794 108.804 23.887 108.61C23.9944 108.411 24.0872 108.189 24.1655 107.943C24.2398 107.693 24.3179 107.44 24.3999 107.182C24.4818 106.92 24.576 106.665 24.6823 106.419C24.7845 106.168 24.9173 105.945 25.0808 105.749C25.2442 105.55 25.4465 105.389 25.6878 105.267C25.9289 105.142 26.2274 105.075 26.5833 105.066C26.9592 105.058 27.3146 105.113 27.6495 105.234C27.9804 105.354 28.2707 105.535 28.5204 105.777C28.77 106.016 28.969 106.313 29.1173 106.67C29.2655 107.022 29.3449 107.427 29.3555 107.883C29.3685 108.442 29.2804 108.953 29.091 109.413C28.8977 109.874 28.6328 110.27 28.2964 110.602L27.7368 110.279C27.692 110.248 27.6552 110.211 27.6262 110.167C27.593 110.12 27.5758 110.069 27.5745 110.013C27.5733 109.961 27.594 109.902 27.6365 109.837C27.6749 109.768 27.7251 109.691 27.7871 109.606C27.8492 109.52 27.9169 109.422 27.9904 109.313C28.0639 109.203 28.131 109.079 28.1918 108.942C28.2526 108.801 28.3029 108.641 28.3428 108.464C28.3787 108.287 28.3941 108.089 28.389 107.869C28.3825 107.593 28.3388 107.348 28.2578 107.134C28.1768 106.92 28.0666 106.74 27.9272 106.595C27.7837 106.447 27.6151 106.335 27.4213 106.259C27.2275 106.184 27.0126 106.149 26.7767 106.154C26.5167 106.16 26.3062 106.225 26.145 106.349C25.9798 106.469 25.8434 106.626 25.7359 106.82C25.6284 107.015 25.5395 107.237 25.4693 107.487C25.3951 107.737 25.3209 107.99 25.2469 108.248C25.1689 108.506 25.0788 108.76 24.9766 109.011C24.8744 109.261 24.7395 109.484 24.572 109.68C24.4045 109.876 24.1942 110.037 23.9411 110.163C23.6838 110.285 23.3653 110.35 22.9854 110.359C22.6814 110.366 22.3862 110.315 22.0996 110.206C21.8128 110.093 21.5569 109.926 21.3318 109.708C21.1065 109.485 20.9241 109.211 20.7845 108.886C20.6449 108.557 20.57 108.179 20.5601 107.751C20.5489 107.271 20.6148 106.833 20.7576 106.438C20.9004 106.039 21.1123 105.686 21.3932 105.379L21.9516 105.648Z" stroke="white" mask="url(#path-2-outside-1_315_405)"/>
<path d="M22.9429 92.918C22.9977 92.9615 23.0381 93.0071 23.0641 93.0549C23.0866 93.0982 23.094 93.1496 23.0862 93.2091C23.0773 93.2765 23.0332 93.3514 22.9538 93.4338C22.8744 93.5162 22.7859 93.6215 22.6884 93.7499C22.5874 93.8738 22.4904 94.0285 22.3974 94.214C22.305 94.3955 22.2408 94.6231 22.2049 94.8967C22.171 95.1545 22.1768 95.3872 22.2221 95.5949C22.264 95.7981 22.3356 95.9749 22.4368 96.1254C22.5386 96.2719 22.6664 96.3895 22.8201 96.4783C22.9699 96.5666 23.138 96.6229 23.3244 96.6474C23.5624 96.6787 23.7682 96.6472 23.942 96.5531C24.1123 96.4544 24.2654 96.3172 24.4015 96.1414C24.5381 95.9617 24.6639 95.7563 24.7789 95.5253C24.8906 95.2898 25.0067 95.0509 25.1273 94.8086C25.2484 94.5622 25.3803 94.3254 25.5232 94.0981C25.6625 93.8663 25.828 93.6661 26.0196 93.4976C26.2117 93.3252 26.4362 93.1973 26.6933 93.1141C26.9508 93.0269 27.2561 93.0065 27.6091 93.0528C27.9819 93.1018 28.3245 93.2114 28.637 93.3815C28.9455 93.5511 29.2046 93.7748 29.4142 94.0524C29.6244 94.3261 29.7754 94.6506 29.8673 95.0257C29.9598 95.3969 29.9763 95.8086 29.9169 96.2607C29.844 96.8159 29.6787 97.3066 29.421 97.7327C29.1594 98.1582 28.8369 98.5092 28.4536 98.7856L27.9501 98.3806C27.9106 98.3432 27.8799 98.3008 27.8579 98.2535C27.8324 98.2018 27.8233 98.1481 27.8306 98.0926C27.8374 98.041 27.8667 97.9864 27.9187 97.9287C27.9672 97.8665 28.0287 97.7979 28.103 97.7229C28.1774 97.648 28.2593 97.5619 28.3488 97.4647C28.4382 97.3676 28.5235 97.2557 28.6046 97.1292C28.6863 96.9987 28.7605 96.8491 28.827 96.6803C28.8896 96.5111 28.9352 96.3173 28.9638 96.0992C28.9998 95.8256 28.9942 95.5767 28.9469 95.3527C28.8997 95.1286 28.8183 94.9343 28.7027 94.7699C28.5837 94.601 28.4343 94.4643 28.2543 94.36C28.0744 94.2557 27.8674 94.1881 27.6334 94.1574C27.3756 94.1235 27.1576 94.1554 26.9794 94.253C26.7977 94.3462 26.6388 94.4806 26.5028 94.6564C26.3667 94.8322 26.2449 95.0381 26.1372 95.2741C26.0256 95.5095 25.9135 95.749 25.8008 95.9924C25.6842 96.2353 25.5562 96.4726 25.4168 96.7044C25.2774 96.9362 25.11 97.1361 24.9144 97.3041C24.7189 97.4721 24.4864 97.5989 24.217 97.6845C23.9441 97.7657 23.6192 97.7815 23.2425 97.732C22.9411 97.6924 22.6571 97.5966 22.3906 97.4446C22.1247 97.2886 21.8972 97.0853 21.7083 96.8345C21.5199 96.5798 21.3816 96.2813 21.2934 95.9389C21.2058 95.5925 21.1898 95.2072 21.2456 94.7828C21.3081 94.3069 21.4402 93.8845 21.642 93.5156C21.8442 93.1428 22.1077 92.8264 22.4323 92.5665L22.9429 92.918Z" stroke="white" mask="url(#path-2-outside-1_315_405)"/>
<path d="M31.0695 75.083C31.1046 75.5613 31.2254 75.9635 31.432 76.2897C31.6401 76.6122 31.9163 76.8489 32.2608 76.9997C32.499 77.104 32.7289 77.1522 32.9506 77.1445C33.1687 77.1352 33.3713 77.0863 33.5584 76.998C33.7456 76.9096 33.9122 76.7882 34.0584 76.6339C34.2009 76.478 34.3138 76.3047 34.3973 76.1142C34.5769 75.7038 34.663 75.3027 34.6556 74.9108C34.6497 74.5152 34.5741 74.1393 34.4288 73.7831L31.0695 75.083ZM37.1733 71.7032L36.757 72.6541C36.7105 72.7604 36.6599 72.8409 36.6054 72.8956C36.5509 72.9503 36.4665 72.9985 36.3522 73.0402L35.2008 73.4858C35.3835 73.9762 35.4751 74.4901 35.4756 75.0274C35.4741 75.5595 35.3554 76.0948 35.1196 76.6335C34.9913 76.9266 34.8159 77.1926 34.5934 77.4314C34.3726 77.6666 34.1198 77.855 33.8351 77.9967C33.5467 78.1369 33.2372 78.2153 32.9067 78.2322C32.5762 78.2491 32.2406 78.1829 31.8998 78.0337C31.6433 77.9214 31.4199 77.7734 31.2296 77.5897C31.0373 77.4007 30.8777 77.1867 30.7509 76.9478C30.624 76.7089 30.5294 76.4513 30.4669 76.1751C30.4045 75.8988 30.3728 75.6121 30.372 75.3148C29.9883 75.4132 29.6413 75.4577 29.331 75.4485C29.0169 75.4376 28.717 75.3697 28.4312 75.2445C28.1637 75.1274 27.9336 74.9699 27.7408 74.772C27.5496 74.5704 27.408 74.3403 27.316 74.0817C27.2203 73.8214 27.1799 73.5396 27.1949 73.2361C27.2078 72.9274 27.2856 72.61 27.4284 72.2838C27.5552 71.9944 27.7183 71.7514 27.9178 71.5549C28.1137 71.3569 28.3263 71.2054 28.5556 71.1006C28.7849 70.9957 29.0238 70.9387 29.2723 70.9296C29.5187 70.9153 29.7551 70.9489 29.9814 71.0305L29.8352 71.6935C29.8116 71.8273 29.7155 71.8922 29.5469 71.8882C29.4404 71.8722 29.323 71.871 29.1948 71.8847C29.0681 71.8948 28.9426 71.9271 28.8182 71.9819C28.6954 72.0329 28.5785 72.1105 28.4674 72.2147C28.3579 72.3152 28.2662 72.4498 28.1924 72.6183C28.1122 72.8015 28.0685 72.9811 28.0614 73.157C28.0558 73.3292 28.0829 73.4917 28.1427 73.6445C28.2004 73.792 28.2886 73.9245 28.4075 74.0421C28.5227 74.158 28.6627 74.252 28.8276 74.3242C28.9558 74.3804 29.085 74.4195 29.2151 74.4415C29.3452 74.4635 29.4843 74.4698 29.6325 74.4605C29.7823 74.4475 29.9411 74.4188 30.109 74.3744C30.2769 74.33 30.461 74.2686 30.6612 74.1904L33.9555 72.9341C33.7673 72.6858 33.5579 72.4609 33.3273 72.2595C33.0931 72.0565 32.8478 71.8837 32.5916 71.7409C32.5251 71.7031 32.4798 71.6571 32.4555 71.6028C32.4313 71.5485 32.4336 71.4884 32.4625 71.4224L32.7247 70.8233C33.1445 71.0115 33.5297 71.2587 33.8803 71.565C34.2272 71.8697 34.5254 72.2208 34.775 72.6182L37.1733 71.7032Z" stroke="white" mask="url(#path-2-outside-1_315_405)"/>
<path d="M43.2489 48.1326L49.7472 53.7627L48.985 54.6425L46.0284 52.0808L42.9913 55.5862L45.948 58.1478L45.1857 59.0275L38.6875 53.3974L39.4497 52.5177L42.3474 55.0283L45.3844 51.5229L42.4867 49.0123L43.2489 48.1326Z" stroke="white" mask="url(#path-2-outside-1_315_405)"/>
<path d="M58.8159 40.1697C59.213 40.6766 59.4978 41.2056 59.6703 41.7565C59.8402 42.3042 59.8984 42.8455 59.8449 43.3803C59.7913 43.9152 59.6249 44.4292 59.3456 44.9224C59.067 45.41 58.679 45.8486 58.1815 46.2384C57.684 46.6281 57.1652 46.8999 56.6251 47.0537C56.0825 47.2044 55.5452 47.2417 55.0131 47.1657C54.481 47.0896 53.9693 46.9036 53.4782 46.6074C52.9846 46.3082 52.5392 45.9051 52.142 45.3981C51.7449 44.8911 51.4613 44.3638 51.2914 43.816C51.1189 43.2652 51.0595 42.7223 51.113 42.1874C51.1641 41.6494 51.3277 41.1351 51.6039 40.6444C51.88 40.1537 52.2668 39.7134 52.7643 39.3237C53.2618 38.9339 53.7819 38.6637 54.3244 38.513C54.8701 38.3599 55.4103 38.3229 55.9448 38.4021C56.477 38.4781 56.9898 38.6658 57.4834 38.9651C57.9746 39.2612 58.4187 39.6627 58.8159 40.1697ZM57.876 40.906C57.5503 40.4904 57.2014 40.1617 56.829 39.9198C56.4566 39.678 56.0777 39.5252 55.6923 39.4613C55.3044 39.3942 54.9143 39.4152 54.5221 39.5243C54.13 39.6334 53.7512 39.831 53.386 40.1171C53.0239 40.4008 52.7429 40.72 52.5431 41.0747C52.3434 41.4294 52.228 41.8043 52.1971 42.1994C52.1669 42.589 52.2246 42.9934 52.3703 43.4129C52.516 43.8323 52.7516 44.2498 53.0772 44.6655C53.4028 45.0811 53.7518 45.4098 54.1242 45.6516C54.4941 45.8903 54.873 46.0432 55.2609 46.1102C55.6495 46.1716 56.0399 46.1478 56.4321 46.0387C56.8218 45.9265 57.1977 45.7286 57.5598 45.4449C57.9251 45.1587 58.2088 44.8399 58.4111 44.4884C58.6109 44.1337 58.7259 43.7616 58.7561 43.372C58.7838 42.9794 58.7261 42.5749 58.5829 42.1586C58.4372 41.7392 58.2016 41.3217 57.876 40.906Z" stroke="white" mask="url(#path-2-outside-1_315_405)"/>
<path d="M70.9791 36.8546L71.4407 37.7168L67.14 40.0189L63.0824 32.4385L64.1034 31.8921L67.6994 38.6102L70.9791 36.8546Z" stroke="white" mask="url(#path-2-outside-1_315_405)"/>
<path d="M83.3277 28.532C83.5293 29.1436 83.6158 29.7321 83.5874 30.2974C83.5589 30.8627 83.4269 31.3822 83.1913 31.8557C82.9557 32.3293 82.6216 32.7468 82.1891 33.1084C81.7591 33.4649 81.244 33.7421 80.6437 33.94L77.5951 34.9448L74.9035 26.779L77.9522 25.7741C78.5524 25.5763 79.132 25.4947 79.691 25.5295C80.2525 25.5592 80.7694 25.6963 81.2417 25.9407C81.7127 26.1814 82.1277 26.5205 82.4867 26.9581C82.8458 27.3957 83.1261 27.9203 83.3277 28.532ZM82.1937 28.9057C82.0284 28.4043 81.8123 27.9785 81.5453 27.6285C81.2783 27.2785 80.9744 27.0081 80.6335 26.8172C80.2926 26.6263 79.9198 26.5175 79.5151 26.4909C79.1104 26.4642 78.6877 26.5235 78.2471 26.6688L76.3039 27.3092L78.4057 33.6858L80.3488 33.0453C80.7895 32.9001 81.1646 32.6964 81.4741 32.4343C81.7836 32.1723 82.0193 31.8651 82.1811 31.5127C82.3417 31.1565 82.4253 30.7584 82.4318 30.3182C82.4384 29.878 82.359 29.4072 82.1937 28.9057Z" stroke="white" mask="url(#path-2-outside-1_315_405)"/>
<path d="M99.9395 20.8632L100.772 20.8222L101.327 32.1006L100.494 32.1415L99.9395 20.8632Z" stroke="white" mask="url(#path-2-outside-1_315_405)"/>
<path d="M109.742 20.8414L110.574 20.8966L109.827 32.1638L108.995 32.1086L109.742 20.8414Z" stroke="white" mask="url(#path-2-outside-1_315_405)"/>
<path d="M130.03 29.7827C130.345 29.888 130.636 29.9388 130.903 29.9353C131.174 29.933 131.415 29.8851 131.628 29.7917C131.846 29.6958 132.031 29.5574 132.184 29.3767C132.337 29.1959 132.456 28.9803 132.54 28.73C132.713 28.2102 132.688 27.7504 132.463 27.3505C132.242 26.9519 131.805 26.6435 131.153 26.4253L129.844 25.9878L128.722 29.3452L130.03 29.7827ZM131.444 25.5547C131.96 25.7272 132.387 25.9375 132.726 26.1858C133.07 26.4315 133.33 26.7062 133.507 27.0099C133.684 27.3136 133.781 27.6413 133.798 27.993C133.819 28.3459 133.766 28.714 133.638 29.0971C133.511 29.4765 133.329 29.8014 133.091 30.0719C132.852 30.3424 132.566 30.5483 132.232 30.6897C131.902 30.8323 131.526 30.9047 131.103 30.9069C130.686 30.9065 130.231 30.8239 129.737 30.659L128.429 30.2215L127.409 33.2715L126.311 32.9044L129.037 24.75L131.444 25.5547Z" stroke="white" mask="url(#path-2-outside-1_315_405)"/>
<path d="M142.281 34.6496C142.578 34.8075 142.858 34.9113 143.121 34.961C143.39 35.0091 143.635 35.0082 143.857 34.9584C144.084 34.907 144.285 34.8101 144.46 34.6679C144.636 34.5256 144.782 34.3433 144.901 34.1209C145.142 33.669 145.175 33.2493 145 32.8619C144.826 32.4745 144.442 32.1228 143.849 31.807L142.726 31.2091L141.201 34.0743L142.281 34.6496ZM143.703 40.4301L142.792 39.9451C142.605 39.8455 142.506 39.6998 142.495 39.508L141.968 35.7474C141.953 35.6307 141.92 35.5359 141.868 35.463C141.822 35.3884 141.726 35.3126 141.582 35.2355L140.803 34.821L139.117 37.988L138.095 37.4437L142.136 29.8546L144.28 30.9967C144.761 31.2524 145.149 31.5227 145.446 31.8077C145.745 32.0892 145.958 32.3818 146.087 32.6857C146.218 32.9915 146.269 33.3042 146.24 33.6238C146.212 33.9398 146.112 34.2584 145.941 34.5797C145.798 34.8481 145.623 35.0762 145.414 35.2641C145.205 35.452 144.97 35.5963 144.707 35.6969C144.451 35.7959 144.171 35.8487 143.869 35.8552C143.57 35.8636 143.256 35.8234 142.927 35.7344C143.018 35.8781 143.074 36.046 143.094 36.238L143.703 40.4301Z" stroke="white" mask="url(#path-2-outside-1_315_405)"/>
<path d="M153.76 46.3502L153.182 47.1016L148.963 43.8972L154.163 37.0501L158.382 40.2545L157.809 41.0094L154.517 38.5091L152.789 40.7835L155.456 42.8084L154.904 43.5347L152.238 41.5097L150.463 43.8462L153.76 46.3502Z" stroke="white" mask="url(#path-2-outside-1_315_405)"/>
<path d="M166.191 49.4888C166.123 49.5045 166.062 49.5076 166.008 49.4982C165.96 49.4888 165.916 49.4626 165.874 49.4194C165.827 49.3705 165.796 49.2893 165.781 49.1758C165.766 49.0624 165.739 48.9276 165.699 48.7713C165.665 48.6151 165.604 48.4428 165.517 48.2545C165.433 48.0692 165.295 47.8771 165.103 47.6785C164.923 47.4914 164.737 47.3508 164.547 47.2569C164.362 47.163 164.179 47.1088 163.998 47.0942C163.82 47.0825 163.648 47.1091 163.483 47.1741C163.321 47.2362 163.172 47.3325 163.036 47.4631C162.864 47.6297 162.76 47.8103 162.725 48.0048C162.696 48.1995 162.708 48.4048 162.761 48.6208C162.816 48.8396 162.899 49.066 163.008 49.2999C163.122 49.5339 163.237 49.7736 163.351 50.019C163.468 50.2672 163.571 50.518 163.66 50.7714C163.755 51.0248 163.808 51.279 163.82 51.5338C163.836 51.7915 163.796 52.0468 163.7 52.2997C163.608 52.5554 163.434 52.8069 163.178 53.0541C162.907 53.3151 162.608 53.5148 162.28 53.6532C161.955 53.7888 161.619 53.852 161.271 53.8429C160.926 53.8367 160.578 53.7527 160.227 53.5908C159.879 53.4317 159.547 53.1881 159.231 52.8599C158.842 52.4569 158.561 52.0219 158.389 51.5548C158.219 51.085 158.145 50.6141 158.168 50.1421L158.798 50.0006C158.852 49.9931 158.905 49.9955 158.955 50.0077C159.012 50.02 159.059 50.0464 159.098 50.0867C159.134 50.1241 159.159 50.1811 159.171 50.2577C159.19 50.3344 159.205 50.4252 159.217 50.5301C159.23 50.635 159.246 50.7527 159.266 50.8832C159.287 51.0137 159.321 51.1501 159.369 51.2924C159.42 51.4376 159.491 51.5888 159.582 51.746C159.675 51.9005 159.798 52.0569 159.951 52.2152C160.143 52.4138 160.341 52.5645 160.545 52.6672C160.75 52.7699 160.953 52.8273 161.153 52.8394C161.36 52.8516 161.56 52.8198 161.753 52.7441C161.947 52.6684 162.129 52.5486 162.299 52.3848C162.486 52.2043 162.597 52.0139 162.631 51.8137C162.672 51.6135 162.666 51.4055 162.613 51.1896C162.56 50.9736 162.475 50.75 162.358 50.5188C162.243 50.2847 162.126 50.0478 162.006 49.808C161.888 49.5655 161.782 49.3174 161.688 49.064C161.594 48.8105 161.542 48.555 161.532 48.2974C161.523 48.0398 161.568 47.7789 161.669 47.5148C161.776 47.2508 161.966 46.9869 162.239 46.7231C162.458 46.512 162.71 46.3497 162.995 46.236C163.283 46.1252 163.583 46.074 163.897 46.0825C164.214 46.0939 164.534 46.1717 164.856 46.3162C165.182 46.4635 165.493 46.6912 165.79 46.9992C166.124 47.3447 166.372 47.7112 166.534 48.0989C166.7 48.4894 166.783 48.8926 166.784 49.3085L166.191 49.4888Z" stroke="white" mask="url(#path-2-outside-1_315_405)"/>
<path d="M174.085 59.5252C174.015 59.5303 173.954 59.5241 173.903 59.5065C173.857 59.49 173.816 59.4571 173.782 59.4081C173.743 59.3525 173.724 59.2675 173.727 59.1531C173.73 59.0388 173.723 58.9013 173.708 58.7408C173.699 58.5812 173.665 58.4017 173.608 58.2023C173.553 58.0062 173.446 57.7953 173.287 57.5696C173.137 57.3571 172.976 57.1897 172.802 57.0677C172.633 56.9466 172.461 56.865 172.284 56.8229C172.11 56.784 171.936 56.784 171.763 56.8229C171.593 56.8594 171.431 56.9318 171.278 57.04C171.081 57.1782 170.951 57.3408 170.887 57.5278C170.829 57.7157 170.809 57.9204 170.828 58.1419C170.849 58.3666 170.896 58.6029 170.968 58.8508C171.045 59.0996 171.121 59.354 171.197 59.614C171.275 59.8772 171.338 60.1408 171.387 60.4048C171.441 60.6698 171.455 60.9291 171.428 61.1828C171.404 61.4398 171.325 61.6859 171.193 61.9213C171.062 62.1599 170.852 62.3817 170.56 62.5866C170.253 62.8031 169.927 62.9546 169.582 63.0411C169.24 63.1253 168.898 63.1363 168.555 63.074C168.215 63.015 167.884 62.8786 167.563 62.6649C167.243 62.4544 166.952 62.1628 166.69 61.79C166.367 61.3321 166.157 60.8592 166.058 60.3712C165.962 59.8809 165.961 59.4043 166.056 58.9413L166.701 58.8982C166.755 58.899 166.806 58.9094 166.855 58.9292C166.909 58.95 166.952 58.9833 166.984 59.0291C167.014 59.0716 167.029 59.1317 167.03 59.2094C167.036 59.288 167.038 59.3801 167.034 59.4856C167.03 59.5912 167.028 59.71 167.028 59.842C167.028 59.9741 167.041 60.1141 167.067 60.2622C167.095 60.4135 167.142 60.5738 167.207 60.743C167.276 60.9099 167.374 61.0833 167.5 61.2632C167.659 61.4889 167.832 61.6681 168.018 61.801C168.205 61.9338 168.396 62.0216 168.593 62.0643C168.795 62.1079 168.997 62.1072 169.2 62.0621C169.403 62.0169 169.601 61.9264 169.794 61.7905C170.007 61.6408 170.146 61.4697 170.211 61.2772C170.281 61.0856 170.307 60.8791 170.288 60.6576C170.269 60.4361 170.219 60.2021 170.139 59.9556C170.061 59.7068 169.982 59.4547 169.9 59.1993C169.821 58.9417 169.754 58.6803 169.7 58.4154C169.645 58.1504 169.633 57.89 169.663 57.6339C169.693 57.3779 169.778 57.1272 169.919 56.8817C170.064 56.6371 170.293 56.4054 170.603 56.1866C170.852 56.0116 171.126 55.8898 171.425 55.8211C171.726 55.7557 172.031 55.7512 172.34 55.8077C172.651 55.8674 172.955 55.9934 173.252 56.1856C173.551 56.381 173.824 56.6537 174.07 57.0036C174.346 57.3961 174.535 57.7963 174.637 58.2043C174.74 58.6156 174.761 59.0268 174.698 59.4379L174.085 59.5252Z" stroke="white" mask="url(#path-2-outside-1_315_405)"/>
<path d="M180.187 78.1502C179.837 77.8222 179.476 77.6081 179.103 77.508C178.731 77.4117 178.368 77.4248 178.012 77.5471C177.766 77.6318 177.564 77.752 177.406 77.9079C177.252 78.0624 177.136 78.2356 177.059 78.4274C176.981 78.6191 176.94 78.8213 176.937 79.0338C176.938 79.2451 176.972 79.449 177.04 79.6457C177.186 80.0693 177.394 80.4227 177.665 80.706C177.937 80.993 178.248 81.2183 178.596 81.3819L180.187 78.1502ZM177.986 84.771L177.648 83.7895C177.61 83.6798 177.593 83.5864 177.596 83.5092C177.599 83.432 177.628 83.3394 177.684 83.2313L178.229 82.1236C177.763 81.8865 177.347 81.5705 176.983 81.1756C176.624 80.7832 176.348 80.309 176.157 79.753C176.053 79.4504 176.002 79.1359 176.003 78.8096C176.007 78.487 176.065 78.1771 176.178 77.88C176.296 77.5816 176.47 77.3142 176.702 77.078C176.934 76.8417 177.225 76.663 177.577 76.5419C177.842 76.4508 178.107 76.4084 178.371 76.4147C178.64 76.4234 178.903 76.4727 179.158 76.5626C179.413 76.6524 179.657 76.7778 179.89 76.9387C180.123 77.0996 180.341 77.2892 180.543 77.5073C180.758 77.175 180.983 76.9072 181.218 76.7038C181.456 76.4991 181.723 76.3459 182.018 76.2444C182.294 76.1493 182.57 76.1093 182.846 76.1244C183.123 76.1432 183.383 76.2165 183.626 76.3444C183.873 76.4711 184.093 76.6511 184.288 76.8845C184.488 77.1203 184.645 77.4066 184.761 77.7432C184.864 78.042 184.909 78.3312 184.895 78.6109C184.885 78.8893 184.831 79.1447 184.734 79.3772C184.636 79.6096 184.499 79.8133 184.322 79.9884C184.15 80.1659 183.954 80.3012 183.732 80.3945L183.391 79.8077C183.317 79.6933 183.344 79.5805 183.471 79.4692C183.56 79.4089 183.647 79.3302 183.732 79.2332C183.819 79.1401 183.889 79.0312 183.943 78.9067C183.999 78.786 184.033 78.6497 184.044 78.4978C184.056 78.3497 184.033 78.1886 183.973 78.0146C183.908 77.8255 183.818 77.6638 183.704 77.5296C183.592 77.3991 183.462 77.2979 183.314 77.226C183.172 77.1566 183.017 77.1189 182.85 77.1129C182.687 77.1056 182.52 77.1313 182.35 77.1899C182.218 77.2354 182.096 77.2942 181.985 77.3661C181.875 77.438 181.768 77.5276 181.665 77.6349C181.564 77.7459 181.467 77.8746 181.373 78.021C181.28 78.1674 181.186 78.3372 181.092 78.5304L179.519 81.686C179.826 81.7412 180.132 81.7648 180.438 81.7567C180.748 81.7474 181.045 81.7084 181.331 81.6399C181.405 81.6227 181.47 81.6259 181.524 81.6494C181.579 81.6729 181.618 81.7186 181.641 81.7867L181.854 82.4051C181.418 82.5511 180.967 82.6301 180.502 82.6422C180.04 82.653 179.583 82.5968 179.13 82.4734L177.986 84.771Z" stroke="white" mask="url(#path-2-outside-1_315_405)"/>
<path d="M189.482 106.226L180.888 106.486L180.852 105.323L184.763 105.204L184.622 100.569L180.712 100.687L180.677 99.5233L189.271 99.2635L189.306 100.427L185.474 100.543L185.614 105.179L189.446 105.063L189.482 106.226Z" stroke="white" mask="url(#path-2-outside-1_315_405)"/>
<path d="M183.423 122.629C182.788 122.525 182.22 122.329 181.72 122.04C181.224 121.752 180.815 121.393 180.492 120.964C180.169 120.534 179.943 120.043 179.814 119.491C179.689 118.944 179.677 118.358 179.779 117.734C179.881 117.111 180.079 116.559 180.372 116.08C180.669 115.602 181.039 115.211 181.482 114.906C181.925 114.602 182.428 114.392 182.989 114.277C183.555 114.163 184.156 114.158 184.792 114.262C185.427 114.366 185.993 114.562 186.489 114.849C186.989 115.138 187.4 115.497 187.723 115.927C188.05 116.357 188.278 116.846 188.407 117.394C188.537 117.942 188.55 118.528 188.448 119.152C188.346 119.776 188.147 120.327 187.85 120.805C187.552 121.287 187.18 121.68 186.733 121.984C186.29 122.289 185.785 122.498 185.22 122.612C184.658 122.727 184.059 122.733 183.423 122.629ZM183.616 121.45C184.137 121.535 184.617 121.541 185.054 121.467C185.492 121.392 185.874 121.248 186.201 121.034C186.532 120.821 186.805 120.541 187.019 120.195C187.234 119.849 187.379 119.447 187.454 118.989C187.528 118.535 187.518 118.11 187.425 117.714C187.332 117.318 187.163 116.964 186.918 116.652C186.676 116.345 186.36 116.087 185.968 115.877C185.577 115.667 185.121 115.519 184.6 115.434C184.079 115.349 183.599 115.344 183.162 115.418C182.728 115.493 182.346 115.637 182.015 115.85C181.687 116.068 181.416 116.35 181.202 116.696C180.991 117.043 180.848 117.443 180.774 117.897C180.699 118.355 180.707 118.782 180.796 119.177C180.889 119.574 181.057 119.925 181.298 120.232C181.544 120.54 181.86 120.798 182.248 121.008C182.639 121.218 183.095 121.365 183.616 121.45Z" stroke="white" mask="url(#path-2-outside-1_315_405)"/>
<path d="M176.721 133.306L175.797 132.985L177.402 128.378L185.521 131.206L185.14 132.3L177.944 129.793L176.721 133.306Z" stroke="white" mask="url(#path-2-outside-1_315_405)"/>
<path d="M173.274 147.793C172.711 147.48 172.249 147.105 171.887 146.67C171.525 146.235 171.27 145.764 171.123 145.256C170.975 144.748 170.938 144.214 171.012 143.655C171.086 143.102 171.278 142.549 171.585 141.997L173.147 139.192L180.659 143.377L179.096 146.181C178.789 146.733 178.418 147.186 177.983 147.539C177.55 147.897 177.077 148.146 176.564 148.286C176.054 148.428 175.519 148.46 174.959 148.381C174.398 148.303 173.836 148.107 173.274 147.793ZM173.855 146.75C174.316 147.007 174.764 147.174 175.197 147.25C175.631 147.327 176.037 147.32 176.417 147.23C176.797 147.139 177.145 146.967 177.461 146.712C177.777 146.458 178.048 146.128 178.273 145.722L179.269 143.935L173.404 140.668L172.408 142.455C172.182 142.86 172.044 143.264 171.994 143.667C171.944 144.069 171.979 144.455 172.098 144.824C172.221 145.195 172.43 145.544 172.723 145.872C173.016 146.201 173.394 146.493 173.855 146.75Z" stroke="white" mask="url(#path-2-outside-1_315_405)"/>
<path d="M166.248 164.687L165.663 165.281L157.615 157.36L158.2 156.766L166.248 164.687Z" stroke="white" mask="url(#path-2-outside-1_315_405)"/>
<path fill-rule="evenodd" clip-rule="evenodd" d="M55.0867 159.27L46.6964 167.853C61.9156 182.204 82.4306 191 105 191C127.304 191 147.601 182.41 162.764 168.357L154.543 159.615C141.528 171.647 124.122 179 105 179C85.6954 179 68.141 171.507 55.0867 159.27Z" fill="white"/>
<rect x="136.094" y="92.2134" width="19.6884" height="3.40761" rx="1.7038" transform="rotate(45 136.094 92.2134)" fill="white"/>
<rect width="19.6884" height="3.40761" rx="1.7038" transform="matrix(0.707107 -0.707107 -0.707107 -0.707107 136.094 120.118)" fill="white"/>
<rect x="73.6062" y="120.118" width="19.6884" height="3.40761" rx="1.7038" transform="rotate(-135 73.6062 120.118)" fill="white"/>
<rect width="19.6884" height="3.40761" rx="1.7038" transform="matrix(-0.707107 0.707107 0.707107 0.707107 73.6062 92.2134)" fill="white"/>
</svg>
