<svg width="1000" height="1000" viewBox="0 0 1000 1000" fill="none" xmlns="http://www.w3.org/2000/svg">
<g clip-path="url(#clip0_43_173)">
<path d="M500.001 148.738C415.098 246.095 368.267 370.816 368.135 499.939C368.442 523.789 370.338 547.592 373.821 571.187H626.054C629.578 547.595 631.52 523.791 631.867 499.939C631.713 370.816 584.904 246.095 500.001 148.738ZM0.00865853 345.072C-0.397072 423.517 17.6149 500.964 52.6136 571.187H349.418C336.977 551.307 323.157 532.322 308.058 514.373C229.165 422.681 119.765 362.557 0.00865853 345.072ZM999.994 345.072C880.239 362.557 770.841 422.683 691.95 514.373C676.887 532.324 663.1 551.31 650.693 571.187H947.309C982.335 500.971 1000.38 423.522 999.994 345.072ZM73.5935 609.123C81.5234 622.15 90.0428 634.802 99.1269 647.051H901.007C910.059 634.807 918.552 622.148 926.452 609.123H73.5935ZM130.125 684.987C142.281 698.321 155.146 710.979 168.666 722.923H831.61C845.153 710.987 858.041 698.318 870.217 684.987H130.125ZM217.27 760.859C280.42 804.456 352.737 832.999 428.661 844.298C428.576 816.332 426.147 788.423 421.405 760.859H217.27ZM436.907 760.859C454.776 793.044 475.919 823.298 500.001 851.148C524.074 823.297 545.211 793.042 563.073 760.859H436.907ZM578.4 760.859C573.724 788.428 571.365 816.338 571.346 844.298C647.265 832.991 719.577 804.454 782.723 760.859H578.4Z" fill="white"/>
</g>
<defs>
<clipPath id="clip0_43_173">
<rect width="1000" height="1000" fill="white"/>
</clipPath>
</defs>
</svg>
